G04*
G04 #@! TF.GenerationSoftware,Altium Limited,Altium Designer,20.0.2 (26)*
G04*
G04 Layer_Physical_Order=1*
G04 Layer_Color=255*
%FSLAX25Y25*%
%MOIN*%
G70*
G01*
G75*
%ADD11C,0.01000*%
%ADD18R,0.03150X0.04000*%
%ADD19R,0.08823X0.08061*%
%ADD20O,0.01390X0.05724*%
%ADD21R,0.03500X0.05000*%
G04:AMPARAMS|DCode=22|XSize=50mil|YSize=35mil|CornerRadius=0mil|HoleSize=0mil|Usage=FLASHONLY|Rotation=90.000|XOffset=0mil|YOffset=0mil|HoleType=Round|Shape=Octagon|*
%AMOCTAGOND22*
4,1,8,0.00875,0.02500,-0.00875,0.02500,-0.01750,0.01625,-0.01750,-0.01625,-0.00875,-0.02500,0.00875,-0.02500,0.01750,-0.01625,0.01750,0.01625,0.00875,0.02500,0.0*
%
%ADD22OCTAGOND22*%

%ADD23R,0.04000X0.03150*%
%ADD24R,0.03500X0.03000*%
%ADD25R,0.05000X0.05000*%
%ADD26R,0.09449X0.10236*%
%ADD27R,0.20000X0.20000*%
%ADD28R,0.03937X0.03150*%
G04:AMPARAMS|DCode=29|XSize=39.37mil|YSize=31.5mil|CornerRadius=0mil|HoleSize=0mil|Usage=FLASHONLY|Rotation=180.000|XOffset=0mil|YOffset=0mil|HoleType=Round|Shape=Octagon|*
%AMOCTAGOND29*
4,1,8,-0.01968,0.00787,-0.01968,-0.00787,-0.01181,-0.01575,0.01181,-0.01575,0.01968,-0.00787,0.01968,0.00787,0.01181,0.01575,-0.01181,0.01575,-0.01968,0.00787,0.0*
%
%ADD29OCTAGOND29*%

%ADD30R,0.05000X0.05000*%
%ADD31R,0.12598X0.06496*%
%ADD32O,0.06858X0.01433*%
%ADD33R,0.10236X0.09449*%
%ADD34R,0.22830X0.24410*%
%ADD35R,0.06300X0.11810*%
%ADD63C,0.03000*%
%ADD64C,0.02000*%
%ADD65C,0.01500*%
%ADD66C,0.01300*%
%ADD67C,0.02500*%
%ADD68C,0.05000*%
%ADD69R,0.06299X0.06299*%
%ADD70C,0.06299*%
%ADD71R,0.06693X0.06693*%
%ADD72C,0.06693*%
%ADD73C,0.07480*%
%ADD74R,0.07480X0.07480*%
%ADD75O,0.09843X0.13780*%
%ADD76R,0.06693X0.06693*%
G04:AMPARAMS|DCode=77|XSize=78.74mil|YSize=118.11mil|CornerRadius=19.68mil|HoleSize=0mil|Usage=FLASHONLY|Rotation=180.000|XOffset=0mil|YOffset=0mil|HoleType=Round|Shape=RoundedRectangle|*
%AMROUNDEDRECTD77*
21,1,0.07874,0.07874,0,0,180.0*
21,1,0.03937,0.11811,0,0,180.0*
1,1,0.03937,-0.01968,0.03937*
1,1,0.03937,0.01968,0.03937*
1,1,0.03937,0.01968,-0.03937*
1,1,0.03937,-0.01968,-0.03937*
%
%ADD77ROUNDEDRECTD77*%
%ADD78C,0.05000*%
%ADD79C,0.04000*%
%ADD80C,0.02000*%
G36*
X167265Y480950D02*
X167494Y480951D01*
X167721Y480921D01*
X167778Y480921D01*
X168005Y480951D01*
X168235Y480951D01*
X168313Y480971D01*
X481425D01*
Y475650D01*
X486575D01*
Y477121D01*
X509216D01*
X513040Y473297D01*
X512765Y472635D01*
X512616Y471500D01*
X512765Y470365D01*
X513203Y469308D01*
X513900Y468400D01*
X514808Y467703D01*
X515865Y467265D01*
X517000Y467116D01*
X518135Y467265D01*
X519192Y467703D01*
X520100Y468400D01*
X520797Y469308D01*
X521235Y470365D01*
X521384Y471500D01*
X521235Y472635D01*
X520797Y473692D01*
X520100Y474600D01*
X519192Y475297D01*
X518135Y475735D01*
X517000Y475884D01*
X515865Y475735D01*
X515203Y475460D01*
X510931Y479731D01*
X510435Y480063D01*
X509850Y480179D01*
X486575D01*
Y480971D01*
X543037D01*
X544094Y480780D01*
X545100Y480402D01*
X546023Y479851D01*
X546832Y479145D01*
X547502Y478305D01*
X548012Y477359D01*
X548355Y476306D01*
X548448Y475709D01*
X548463Y475654D01*
X548467Y475597D01*
X548471Y475583D01*
X548472Y99975D01*
X548477Y99940D01*
X548473Y99905D01*
X548474Y99853D01*
X548475Y99811D01*
X548475Y99770D01*
Y99730D01*
X548475Y99689D01*
X548474Y99651D01*
X548472Y99571D01*
X548476Y99532D01*
X548471Y99493D01*
Y99255D01*
X548445Y99141D01*
X548392Y98608D01*
X548107Y97574D01*
X547648Y96605D01*
X547031Y95728D01*
X546272Y94969D01*
X545396Y94352D01*
X544426Y93893D01*
X543376Y93603D01*
X542801Y93541D01*
X542751Y93529D01*
X168006D01*
X167962Y93523D01*
X167918Y93528D01*
X167256Y93511D01*
X165951Y93737D01*
X164716Y94213D01*
X163597Y94920D01*
X162637Y95832D01*
X161874Y96914D01*
X161336Y98124D01*
X161045Y99416D01*
X161028Y100078D01*
X161016Y100153D01*
X161029Y100250D01*
Y473687D01*
X161049Y473765D01*
X161049Y473994D01*
X161079Y474222D01*
Y474278D01*
X161049Y474506D01*
X161049Y474735D01*
X161029Y474813D01*
X161029Y475137D01*
X161277Y476388D01*
X161765Y477565D01*
X162473Y478625D01*
X163375Y479527D01*
X164435Y480235D01*
X165612Y480723D01*
X166863Y480971D01*
X167187D01*
X167265Y480950D01*
D02*
G37*
%LPC*%
G36*
X415500Y472384D02*
X414365Y472235D01*
X413308Y471797D01*
X412400Y471100D01*
X411703Y470192D01*
X411265Y469135D01*
X411116Y468000D01*
X411265Y466865D01*
X411703Y465808D01*
X412400Y464900D01*
X413308Y464203D01*
X414365Y463765D01*
X415500Y463616D01*
X416635Y463765D01*
X417692Y464203D01*
X418600Y464900D01*
X419297Y465808D01*
X419735Y466865D01*
X419884Y468000D01*
X419735Y469135D01*
X419297Y470192D01*
X418600Y471100D01*
X417692Y471797D01*
X416635Y472235D01*
X415500Y472384D01*
D02*
G37*
G36*
X468500Y476384D02*
X467365Y476235D01*
X466308Y475797D01*
X465400Y475100D01*
X464703Y474192D01*
X464265Y473135D01*
X464116Y472000D01*
X464265Y470865D01*
X464703Y469808D01*
X465400Y468900D01*
X466308Y468203D01*
X467365Y467765D01*
X468500Y467616D01*
X469635Y467765D01*
X470692Y468203D01*
X471600Y468900D01*
X472297Y469808D01*
X472571Y470471D01*
X481425D01*
Y468350D01*
X483545D01*
Y466425D01*
X483662Y465840D01*
X483993Y465344D01*
X484375Y464962D01*
X484184Y464500D01*
X481425D01*
Y463529D01*
X472847D01*
Y466347D01*
X464153D01*
Y457654D01*
X472847D01*
Y460471D01*
X481425D01*
Y458500D01*
X482471D01*
Y457700D01*
X482493Y457586D01*
X482176Y457200D01*
X481425D01*
Y451200D01*
X486575D01*
Y451200D01*
X486972Y451365D01*
X529615Y408722D01*
X529557Y408583D01*
X529415Y407500D01*
X529557Y406417D01*
X529975Y405407D01*
X530641Y404540D01*
X531507Y403875D01*
X532517Y403457D01*
X533600Y403315D01*
X534683Y403457D01*
X535693Y403875D01*
X536559Y404540D01*
X537225Y405407D01*
X537643Y406417D01*
X537785Y407500D01*
X537643Y408583D01*
X537225Y409593D01*
X536559Y410460D01*
X535693Y411125D01*
X534683Y411543D01*
X533600Y411685D01*
X532517Y411543D01*
X531529Y411134D01*
X488604Y454059D01*
Y456821D01*
X488488Y457407D01*
X488156Y457903D01*
X487278Y458781D01*
X486781Y459113D01*
X486575Y459154D01*
Y462109D01*
X487037Y462300D01*
X528269Y421068D01*
X528765Y420737D01*
X529350Y420620D01*
X530133D01*
X530380Y420120D01*
X529975Y419593D01*
X529557Y418583D01*
X529415Y417500D01*
X529557Y416417D01*
X529975Y415407D01*
X530641Y414540D01*
X531507Y413875D01*
X532517Y413457D01*
X533600Y413315D01*
X534683Y413457D01*
X535693Y413875D01*
X536559Y414540D01*
X536921Y415012D01*
X537421Y414842D01*
Y411550D01*
X537537Y410964D01*
X537869Y410468D01*
X539615Y408722D01*
X539557Y408583D01*
X539415Y407500D01*
X539557Y406417D01*
X539975Y405407D01*
X540640Y404540D01*
X541507Y403875D01*
X542517Y403457D01*
X543600Y403315D01*
X544683Y403457D01*
X545693Y403875D01*
X546559Y404540D01*
X547225Y405407D01*
X547643Y406417D01*
X547785Y407500D01*
X547643Y408583D01*
X547225Y409593D01*
X546559Y410460D01*
X545693Y411125D01*
X544683Y411543D01*
X543600Y411685D01*
X542517Y411543D01*
X541529Y411134D01*
X540480Y412183D01*
Y414034D01*
X540980Y414280D01*
X541507Y413875D01*
X542517Y413457D01*
X543600Y413315D01*
X544683Y413457D01*
X545693Y413875D01*
X546559Y414540D01*
X547225Y415407D01*
X547643Y416417D01*
X547785Y417500D01*
X547643Y418583D01*
X547225Y419593D01*
X546559Y420460D01*
X545693Y421125D01*
X544683Y421543D01*
X543600Y421685D01*
X542517Y421543D01*
X541507Y421125D01*
X540640Y420460D01*
X540394Y420139D01*
X539736Y420102D01*
X536607Y423231D01*
X536111Y423563D01*
X536107Y423563D01*
X535983Y424098D01*
X536559Y424541D01*
X537225Y425407D01*
X537643Y426417D01*
X537785Y427500D01*
X537643Y428583D01*
X537225Y429593D01*
X536559Y430459D01*
X535693Y431125D01*
X534683Y431543D01*
X533600Y431685D01*
X532517Y431543D01*
X531507Y431125D01*
X530641Y430459D01*
X529975Y429593D01*
X529557Y428583D01*
X529415Y427500D01*
X529557Y426417D01*
X529975Y425407D01*
X530641Y424541D01*
X531111Y424179D01*
X530942Y423679D01*
X529984D01*
X486604Y467059D01*
Y469850D01*
X486575Y469998D01*
Y474350D01*
X481425D01*
Y473529D01*
X472571D01*
X472297Y474192D01*
X471600Y475100D01*
X470692Y475797D01*
X469635Y476235D01*
X468500Y476384D01*
D02*
G37*
G36*
X363224Y460500D02*
X357724D01*
Y453501D01*
X363224D01*
Y454706D01*
X368925D01*
Y454350D01*
X374075D01*
Y460350D01*
X368925D01*
Y459295D01*
X363224D01*
Y460500D01*
D02*
G37*
G36*
X543600Y451685D02*
X542517Y451543D01*
X541507Y451125D01*
X540640Y450459D01*
X539975Y449593D01*
X539557Y448583D01*
X539415Y447500D01*
X539557Y446417D01*
X539975Y445407D01*
X540640Y444541D01*
X541507Y443875D01*
X542517Y443457D01*
X543600Y443315D01*
X544683Y443457D01*
X545693Y443875D01*
X546559Y444541D01*
X547225Y445407D01*
X547643Y446417D01*
X547785Y447500D01*
X547643Y448583D01*
X547225Y449593D01*
X546559Y450459D01*
X545693Y451125D01*
X544683Y451543D01*
X543600Y451685D01*
D02*
G37*
G36*
X394000D02*
X392917Y451543D01*
X391907Y451125D01*
X391040Y450459D01*
X390375Y449593D01*
X389957Y448583D01*
X389815Y447500D01*
X389957Y446417D01*
X390375Y445407D01*
X391040Y444541D01*
X391907Y443875D01*
X392917Y443457D01*
X394000Y443315D01*
X395083Y443457D01*
X396093Y443875D01*
X396959Y444541D01*
X397625Y445407D01*
X398043Y446417D01*
X398185Y447500D01*
X398043Y448583D01*
X397625Y449593D01*
X396959Y450459D01*
X396093Y451125D01*
X395083Y451543D01*
X394000Y451685D01*
D02*
G37*
G36*
X363150Y474529D02*
X349500D01*
X348915Y474413D01*
X348419Y474081D01*
X341919Y467581D01*
X341587Y467085D01*
X341471Y466500D01*
Y433029D01*
X308108D01*
X307640Y433640D01*
X307013Y434121D01*
X306283Y434423D01*
X305500Y434526D01*
X304717Y434423D01*
X303987Y434121D01*
X303360Y433640D01*
X302880Y433013D01*
X302577Y432283D01*
X302474Y431500D01*
X302577Y430717D01*
X302880Y429987D01*
X303360Y429360D01*
X303987Y428879D01*
X304125Y428822D01*
X304164Y428430D01*
X303826Y428031D01*
X303792Y428004D01*
X301530D01*
Y443500D01*
X301410Y444414D01*
X301057Y445265D01*
X300496Y445996D01*
X281496Y464996D01*
X281390Y465078D01*
X281336Y465629D01*
X280997Y466745D01*
X280447Y467774D01*
X279707Y468676D01*
X278806Y469416D01*
X277777Y469966D01*
X276661Y470304D01*
X275500Y470418D01*
X274339Y470304D01*
X273223Y469966D01*
X272194Y469416D01*
X271293Y468676D01*
X270553Y467774D01*
X270003Y466745D01*
X269664Y465629D01*
X269550Y464468D01*
Y460532D01*
X269664Y459371D01*
X270003Y458255D01*
X270553Y457226D01*
X271293Y456324D01*
X272194Y455584D01*
X273223Y455034D01*
X274339Y454696D01*
X275500Y454582D01*
X276661Y454696D01*
X277777Y455034D01*
X278806Y455584D01*
X279707Y456324D01*
X280161Y456347D01*
X294470Y442038D01*
Y431020D01*
X283878D01*
X283845Y431520D01*
X284283Y431577D01*
X285013Y431880D01*
X285640Y432360D01*
X286121Y432987D01*
X286423Y433717D01*
X286526Y434500D01*
X286423Y435283D01*
X286121Y436013D01*
X285640Y436640D01*
X285013Y437120D01*
X284283Y437423D01*
X283500Y437526D01*
X282717Y437423D01*
X281987Y437120D01*
X281360Y436640D01*
X281010Y436182D01*
X263322D01*
X263322Y436182D01*
X262678Y436054D01*
X262132Y435690D01*
X260471Y434029D01*
X260107Y433483D01*
X259979Y432839D01*
Y431020D01*
X247030D01*
Y447069D01*
X254628Y454667D01*
X255500Y454582D01*
X256661Y454696D01*
X257777Y455034D01*
X258806Y455584D01*
X259707Y456324D01*
X260447Y457226D01*
X260997Y458255D01*
X261336Y459371D01*
X261450Y460532D01*
Y464468D01*
X261336Y465629D01*
X260997Y466745D01*
X260447Y467774D01*
X259707Y468676D01*
X258806Y469416D01*
X257777Y469966D01*
X256661Y470304D01*
X255500Y470418D01*
X254339Y470304D01*
X253223Y469966D01*
X252194Y469416D01*
X251293Y468676D01*
X250553Y467774D01*
X250003Y466745D01*
X249664Y465629D01*
X249550Y464468D01*
Y460532D01*
X249636Y459660D01*
X241004Y451028D01*
X240443Y450297D01*
X240090Y449445D01*
X239970Y448531D01*
Y431020D01*
X206477D01*
X206399Y431520D01*
X212197Y437318D01*
X225409D01*
X225443Y437235D01*
X226004Y436504D01*
X226735Y435943D01*
X227586Y435590D01*
X228500Y435470D01*
X229414Y435590D01*
X230265Y435943D01*
X230996Y436504D01*
X231557Y437235D01*
X231910Y438086D01*
X232030Y439000D01*
X231910Y439914D01*
X231557Y440765D01*
X230996Y441496D01*
X230265Y442057D01*
X229414Y442410D01*
X228500Y442530D01*
X227586Y442410D01*
X226735Y442057D01*
X226004Y441496D01*
X225443Y440765D01*
X225409Y440682D01*
X211500D01*
X211500Y440682D01*
X210856Y440554D01*
X210310Y440190D01*
X210310Y440190D01*
X203471Y433351D01*
X203107Y432805D01*
X202979Y432161D01*
Y431020D01*
X192530D01*
Y439038D01*
X212462Y458970D01*
X229786D01*
X230003Y458255D01*
X230553Y457226D01*
X231293Y456324D01*
X232194Y455584D01*
X233223Y455034D01*
X234339Y454696D01*
X235500Y454582D01*
X236661Y454696D01*
X237777Y455034D01*
X238806Y455584D01*
X239707Y456324D01*
X240447Y457226D01*
X240997Y458255D01*
X241336Y459371D01*
X241450Y460532D01*
Y464468D01*
X241336Y465629D01*
X240997Y466745D01*
X240447Y467774D01*
X239707Y468676D01*
X238806Y469416D01*
X237777Y469966D01*
X236661Y470304D01*
X235500Y470418D01*
X234339Y470304D01*
X233223Y469966D01*
X232194Y469416D01*
X231293Y468676D01*
X230553Y467774D01*
X230003Y466745D01*
X229786Y466030D01*
X211000D01*
X210086Y465910D01*
X209235Y465557D01*
X208504Y464996D01*
X186504Y442996D01*
X185943Y442265D01*
X185590Y441414D01*
X185470Y440500D01*
Y431020D01*
X172500D01*
X172110Y430942D01*
X171779Y430721D01*
X171558Y430390D01*
X171480Y430000D01*
Y380653D01*
X171558Y380263D01*
X171779Y379932D01*
X172110Y379711D01*
X172110Y379711D01*
X172572Y379520D01*
X172572Y379520D01*
X172962Y379442D01*
X173352Y379520D01*
X173683Y379741D01*
X174422Y380480D01*
X185470D01*
Y346020D01*
X173000Y346020D01*
X172610Y345942D01*
X172279Y345721D01*
X172058Y345390D01*
X171980Y345000D01*
Y295500D01*
X172058Y295110D01*
X172279Y294779D01*
X172610Y294558D01*
X172803Y294520D01*
X172754Y294020D01*
X169500D01*
X169110Y293942D01*
X168779Y293721D01*
X168558Y293390D01*
X168480Y293000D01*
Y255500D01*
X168558Y255110D01*
X168779Y254779D01*
X169110Y254558D01*
X169500Y254480D01*
X191480Y254480D01*
Y253520D01*
X165024D01*
X164634Y253442D01*
X164303Y253221D01*
X164082Y252890D01*
X164005Y252500D01*
Y106000D01*
X164082Y105610D01*
X164303Y105279D01*
X164634Y105058D01*
X165024Y104980D01*
X191500D01*
X191890Y105058D01*
X192221Y105279D01*
X192442Y105610D01*
X192520Y106000D01*
Y211980D01*
X213480Y211980D01*
X213502Y211978D01*
X213980Y211566D01*
Y181000D01*
X214058Y180610D01*
X214279Y180279D01*
X214610Y180058D01*
X215000Y179980D01*
X253480D01*
X253480Y165000D01*
X253480Y165000D01*
Y137500D01*
X253558Y137110D01*
X253779Y136779D01*
X254110Y136558D01*
X254500Y136480D01*
X263578D01*
X269480Y130578D01*
Y96500D01*
X269558Y96110D01*
X269779Y95779D01*
X270110Y95558D01*
X270500Y95480D01*
X284500D01*
X284890Y95558D01*
X285221Y95779D01*
X287221Y97779D01*
X287442Y98110D01*
X287520Y98500D01*
Y122206D01*
X301426D01*
X302304Y122380D01*
X303048Y122878D01*
X351376Y171206D01*
X352543D01*
Y170925D01*
X358480D01*
Y176075D01*
X357306D01*
Y179425D01*
X358480D01*
Y184575D01*
X357306D01*
Y187425D01*
X357980D01*
Y192575D01*
X352043D01*
Y187425D01*
X352718D01*
Y184575D01*
X352543D01*
Y179425D01*
X352718D01*
Y176075D01*
X352543D01*
Y175794D01*
X350426D01*
X349548Y175619D01*
X348804Y175122D01*
X347919Y174237D01*
X347457Y174428D01*
Y174787D01*
X346169Y176075D01*
X342807D01*
X341520Y174787D01*
Y174784D01*
X337000D01*
Y176500D01*
X332523D01*
X331485Y177538D01*
X331677Y178000D01*
X337000D01*
Y180216D01*
X342017D01*
X342807Y179425D01*
X346169D01*
X347457Y180713D01*
Y183287D01*
X346169Y184575D01*
X342807D01*
X342017Y183784D01*
X337000D01*
Y185000D01*
X332523D01*
X331485Y186038D01*
X331677Y186500D01*
X337000D01*
Y188216D01*
X341517D01*
X342307Y187425D01*
X345669D01*
X346957Y188713D01*
Y191287D01*
X345669Y192575D01*
X342307D01*
X341517Y191784D01*
X337000D01*
Y193500D01*
X332523D01*
X330770Y195254D01*
X330961Y195716D01*
X380248D01*
X380375Y195407D01*
X381041Y194541D01*
X381907Y193875D01*
X382917Y193457D01*
X384000Y193315D01*
X385083Y193457D01*
X386093Y193875D01*
X386960Y194541D01*
X387625Y195407D01*
X388043Y196417D01*
X388185Y197500D01*
X388043Y198583D01*
X387625Y199593D01*
X387070Y200316D01*
X387266Y200816D01*
X388160D01*
X390085Y198892D01*
X389957Y198583D01*
X389815Y197500D01*
X389957Y196417D01*
X390375Y195407D01*
X391040Y194541D01*
X391512Y194179D01*
X391342Y193679D01*
X387150D01*
X386564Y193563D01*
X386068Y193231D01*
X384462Y191625D01*
X384000Y191685D01*
X382917Y191543D01*
X381907Y191125D01*
X381041Y190460D01*
X380375Y189593D01*
X379957Y188583D01*
X379815Y187500D01*
X379957Y186417D01*
X380375Y185407D01*
X381041Y184540D01*
X381907Y183875D01*
X382917Y183457D01*
X384000Y183315D01*
X385083Y183457D01*
X386093Y183875D01*
X386960Y184540D01*
X387625Y185407D01*
X388043Y186417D01*
X388185Y187500D01*
X388043Y188583D01*
X387625Y189593D01*
X387247Y190084D01*
X387783Y190620D01*
X390533D01*
X390780Y190120D01*
X390375Y189593D01*
X389957Y188583D01*
X389815Y187500D01*
X389957Y186417D01*
X390375Y185407D01*
X391040Y184540D01*
X391512Y184179D01*
X391342Y183679D01*
X388150D01*
X387564Y183563D01*
X387068Y183231D01*
X385293Y181456D01*
X385083Y181543D01*
X384000Y181685D01*
X382917Y181543D01*
X381907Y181125D01*
X381041Y180459D01*
X380375Y179593D01*
X379957Y178583D01*
X379815Y177500D01*
X379957Y176417D01*
X380375Y175407D01*
X381041Y174540D01*
X381907Y173875D01*
X382917Y173457D01*
X384000Y173315D01*
X385083Y173457D01*
X386093Y173875D01*
X386960Y174540D01*
X387625Y175407D01*
X388043Y176417D01*
X388185Y177500D01*
X388043Y178583D01*
X387663Y179500D01*
X388783Y180620D01*
X390533D01*
X390780Y180120D01*
X390375Y179593D01*
X389957Y178583D01*
X389815Y177500D01*
X389957Y176417D01*
X390375Y175407D01*
X391040Y174540D01*
X391907Y173875D01*
X392917Y173457D01*
X394000Y173315D01*
X395083Y173457D01*
X395647Y173690D01*
X405971Y163366D01*
Y137634D01*
X386797Y118460D01*
X386135Y118735D01*
X385000Y118884D01*
X383865Y118735D01*
X382808Y118297D01*
X381900Y117600D01*
X381203Y116692D01*
X380765Y115635D01*
X380616Y114500D01*
X380765Y113365D01*
X381203Y112308D01*
X381900Y111400D01*
X382808Y110703D01*
X383865Y110265D01*
X385000Y110116D01*
X386135Y110265D01*
X387192Y110703D01*
X388100Y111400D01*
X388797Y112308D01*
X389235Y113365D01*
X389384Y114500D01*
X389235Y115635D01*
X388960Y116297D01*
X408581Y135919D01*
X408913Y136415D01*
X409029Y137000D01*
Y164000D01*
X408913Y164585D01*
X408581Y165081D01*
X397810Y175853D01*
X398043Y176417D01*
X398185Y177500D01*
X398043Y178583D01*
X397625Y179593D01*
X397220Y180120D01*
X397466Y180620D01*
X399292D01*
X409971Y169942D01*
Y131633D01*
X396797Y118460D01*
X396135Y118735D01*
X395000Y118884D01*
X393865Y118735D01*
X392808Y118297D01*
X391900Y117600D01*
X391203Y116692D01*
X390765Y115635D01*
X390616Y114500D01*
X390765Y113365D01*
X391203Y112308D01*
X391900Y111400D01*
X392808Y110703D01*
X393865Y110265D01*
X395000Y110116D01*
X396135Y110265D01*
X397192Y110703D01*
X398100Y111400D01*
X398797Y112308D01*
X399235Y113365D01*
X399384Y114500D01*
X399235Y115635D01*
X398960Y116297D01*
X412581Y129919D01*
X412913Y130415D01*
X413029Y131000D01*
Y169058D01*
X413491Y169250D01*
X413971Y168771D01*
Y125634D01*
X406797Y118460D01*
X406135Y118735D01*
X405000Y118884D01*
X403865Y118735D01*
X402808Y118297D01*
X401900Y117600D01*
X401203Y116692D01*
X400765Y115635D01*
X400616Y114500D01*
X400765Y113365D01*
X401203Y112308D01*
X401900Y111400D01*
X402808Y110703D01*
X403865Y110265D01*
X405000Y110116D01*
X406135Y110265D01*
X407192Y110703D01*
X408100Y111400D01*
X408797Y112308D01*
X409235Y113365D01*
X409384Y114500D01*
X409235Y115635D01*
X408960Y116297D01*
X416581Y123919D01*
X416913Y124415D01*
X417029Y125000D01*
Y169404D01*
X416913Y169989D01*
X416581Y170485D01*
X398985Y188081D01*
X398489Y188413D01*
X398054Y188500D01*
X398043Y188583D01*
X397625Y189593D01*
X397220Y190120D01*
X397466Y190620D01*
X404217D01*
X418471Y176366D01*
Y120133D01*
X416797Y118460D01*
X416135Y118735D01*
X415000Y118884D01*
X413865Y118735D01*
X412808Y118297D01*
X411900Y117600D01*
X411203Y116692D01*
X410765Y115635D01*
X410616Y114500D01*
X410765Y113365D01*
X411203Y112308D01*
X411900Y111400D01*
X412808Y110703D01*
X413865Y110265D01*
X415000Y110116D01*
X416135Y110265D01*
X417192Y110703D01*
X418100Y111400D01*
X418797Y112308D01*
X419235Y113365D01*
X419384Y114500D01*
X419235Y115635D01*
X418960Y116297D01*
X421081Y118419D01*
X421413Y118915D01*
X421529Y119500D01*
Y177000D01*
X421413Y177585D01*
X421081Y178081D01*
X405932Y193231D01*
X405436Y193563D01*
X404850Y193679D01*
X396658D01*
X396488Y194179D01*
X396959Y194541D01*
X397625Y195407D01*
X398043Y196417D01*
X398185Y197500D01*
X398043Y198583D01*
X397625Y199593D01*
X396959Y200460D01*
X396093Y201125D01*
X395083Y201543D01*
X394000Y201685D01*
X392917Y201543D01*
X392608Y201415D01*
X390161Y203862D01*
X389582Y204249D01*
X388900Y204385D01*
X387470D01*
X387224Y204885D01*
X387625Y205407D01*
X388043Y206417D01*
X388185Y207500D01*
X388043Y208583D01*
X387625Y209593D01*
X387222Y210117D01*
X387469Y210617D01*
X388504D01*
X390127Y208994D01*
X389957Y208583D01*
X389815Y207500D01*
X389957Y206417D01*
X390375Y205407D01*
X391040Y204540D01*
X391907Y203875D01*
X392917Y203457D01*
X394000Y203315D01*
X395083Y203457D01*
X396093Y203875D01*
X396959Y204540D01*
X397625Y205407D01*
X398043Y206417D01*
X398185Y207500D01*
X398043Y208583D01*
X397625Y209593D01*
X396959Y210459D01*
X396093Y211125D01*
X395083Y211543D01*
X394000Y211685D01*
X392917Y211543D01*
X392506Y211373D01*
X390390Y213489D01*
X389844Y213854D01*
X389200Y213982D01*
X387009D01*
X386849Y214455D01*
X386960Y214541D01*
X387625Y215407D01*
X388043Y216417D01*
X388185Y217500D01*
X388043Y218583D01*
X387625Y219593D01*
X387222Y220117D01*
X387469Y220617D01*
X388504D01*
X390127Y218994D01*
X389957Y218583D01*
X389815Y217500D01*
X389957Y216417D01*
X390375Y215407D01*
X391040Y214541D01*
X391907Y213875D01*
X392917Y213457D01*
X394000Y213315D01*
X395083Y213457D01*
X396093Y213875D01*
X396959Y214541D01*
X397625Y215407D01*
X398043Y216417D01*
X398185Y217500D01*
X398043Y218583D01*
X397625Y219593D01*
X396959Y220460D01*
X396093Y221125D01*
X395083Y221543D01*
X394000Y221685D01*
X392917Y221543D01*
X392506Y221373D01*
X390390Y223489D01*
X389844Y223854D01*
X389200Y223982D01*
X387009D01*
X386849Y224455D01*
X386960Y224540D01*
X387625Y225407D01*
X388043Y226417D01*
X388185Y227500D01*
X388043Y228583D01*
X387625Y229593D01*
X386960Y230459D01*
X386093Y231125D01*
X385083Y231543D01*
X384000Y231685D01*
X382917Y231543D01*
X381907Y231125D01*
X381041Y230459D01*
X380375Y229593D01*
X379957Y228583D01*
X379815Y227500D01*
X379957Y226417D01*
X380375Y225407D01*
X381041Y224540D01*
X381151Y224455D01*
X380991Y223982D01*
X360846D01*
X360202Y223854D01*
X359656Y223489D01*
X353349Y217182D01*
X294000D01*
X293356Y217054D01*
X292810Y216690D01*
X287007Y210887D01*
X286643Y210341D01*
X286515Y209697D01*
Y196266D01*
X285484D01*
X284815Y196133D01*
X284247Y195754D01*
X283867Y195186D01*
X283734Y194516D01*
X283867Y193846D01*
X284247Y193278D01*
Y193195D01*
X283867Y192627D01*
X283734Y191957D01*
X283867Y191287D01*
X284247Y190719D01*
Y190636D01*
X283867Y190068D01*
X283734Y189398D01*
X283867Y188728D01*
X284247Y188160D01*
Y188076D01*
X283867Y187509D01*
X283734Y186839D01*
X283867Y186169D01*
X284008Y185959D01*
X284224Y185559D01*
X284008Y185160D01*
X283867Y184949D01*
X283734Y184279D01*
X283867Y183609D01*
X284247Y183042D01*
Y182957D01*
X283867Y182390D01*
X283780Y181950D01*
X283253Y181770D01*
X282262Y182762D01*
X281683Y183149D01*
X281500Y183185D01*
Y186000D01*
X274500D01*
Y185289D01*
X273000D01*
Y186000D01*
X266000D01*
Y185289D01*
X265020D01*
X265020Y210000D01*
X264942Y210390D01*
X264721Y210721D01*
X264390Y210942D01*
X264000Y211020D01*
X254500Y211020D01*
X254500Y211020D01*
X239520D01*
Y238000D01*
X239442Y238390D01*
X239221Y238721D01*
X238962Y238980D01*
X239169Y239480D01*
X362500Y239480D01*
X362890Y239558D01*
X363221Y239779D01*
X363442Y240110D01*
X363520Y240500D01*
X363520Y269901D01*
X363539Y270000D01*
Y276580D01*
X368809Y281850D01*
X371075D01*
Y287850D01*
X365925D01*
Y284734D01*
X360058Y278867D01*
X359616Y278205D01*
X359461Y277425D01*
Y271520D01*
X331856D01*
X331799Y271996D01*
X331799Y272020D01*
Y280492D01*
X317201D01*
Y272020D01*
X317201Y271996D01*
X317144Y271520D01*
X314520D01*
Y292500D01*
X314442Y292890D01*
X314221Y293221D01*
X313890Y293442D01*
X313500Y293520D01*
X285000D01*
X284610Y293442D01*
X284279Y293221D01*
X284058Y292890D01*
X283980Y292500D01*
Y271520D01*
X261020D01*
Y292500D01*
X260942Y292890D01*
X260721Y293221D01*
X260390Y293442D01*
X260000Y293520D01*
X241746D01*
X241697Y294020D01*
X241890Y294058D01*
X242221Y294279D01*
X242442Y294610D01*
X242520Y295000D01*
Y312480D01*
X244487D01*
X244589Y312385D01*
X244827Y311980D01*
X244780Y311744D01*
Y295744D01*
X244857Y295354D01*
X245078Y295023D01*
X245409Y294802D01*
X245799Y294724D01*
X280799D01*
X281189Y294802D01*
X281520Y295023D01*
X281741Y295354D01*
X281819Y295744D01*
Y311744D01*
X281741Y312134D01*
X281520Y312465D01*
X281189Y312686D01*
X280799Y312764D01*
X263812D01*
X263710Y312859D01*
X263473Y313264D01*
X263520Y313500D01*
Y347000D01*
X263442Y347390D01*
X263382Y347480D01*
X263649Y347980D01*
X281750D01*
X282140Y348058D01*
X282471Y348279D01*
X282692Y348610D01*
X282770Y349000D01*
Y365000D01*
X282692Y365390D01*
X282471Y365721D01*
X282140Y365942D01*
X281750Y366020D01*
X248250D01*
X247860Y365942D01*
X247529Y365721D01*
X247030Y365874D01*
Y380480D01*
X292970D01*
Y347520D01*
X283500D01*
X283110Y347442D01*
X282779Y347221D01*
X282558Y346890D01*
X282480Y346500D01*
X282480Y296000D01*
X282558Y295610D01*
X282779Y295279D01*
X283110Y295058D01*
X283500Y294980D01*
X296000Y294980D01*
X296390Y295058D01*
X296721Y295279D01*
X296942Y295610D01*
X297020Y296000D01*
X297020Y312980D01*
X299390D01*
X299533Y312619D01*
X299562Y312480D01*
X299357Y312174D01*
X299280Y311784D01*
Y295784D01*
X299357Y295394D01*
X299578Y295063D01*
X299909Y294842D01*
X300299Y294764D01*
X335299D01*
X335689Y294842D01*
X336020Y295063D01*
X336241Y295394D01*
X336319Y295784D01*
Y311784D01*
X336241Y312174D01*
X336020Y312505D01*
X335689Y312726D01*
X335299Y312804D01*
X316409D01*
X316266Y313165D01*
X316237Y313304D01*
X316442Y313610D01*
X316520Y314000D01*
X316520Y346500D01*
X316442Y346890D01*
X316382Y346980D01*
X316649Y347480D01*
X335500D01*
X335890Y347558D01*
X336221Y347779D01*
X336442Y348110D01*
X336520Y348500D01*
Y364500D01*
X336442Y364890D01*
X336221Y365221D01*
X335890Y365442D01*
X335500Y365520D01*
X301500D01*
X301110Y365442D01*
X300779Y365221D01*
X300558Y364890D01*
X300530Y364750D01*
X300030Y364800D01*
Y380480D01*
X343500D01*
X343890Y380558D01*
X344221Y380779D01*
X344442Y381110D01*
X344520Y381500D01*
Y392318D01*
X370303D01*
X375318Y387303D01*
Y347712D01*
X375446Y347069D01*
X375810Y346523D01*
X380822Y341511D01*
X380822Y341511D01*
X381232Y341237D01*
X381331Y340683D01*
X381041Y340459D01*
X380375Y339593D01*
X379957Y338583D01*
X379815Y337500D01*
X379957Y336417D01*
X380375Y335407D01*
X381041Y334541D01*
X381907Y333875D01*
X382917Y333457D01*
X384000Y333315D01*
X385083Y333457D01*
X386093Y333875D01*
X386960Y334541D01*
X387625Y335407D01*
X388043Y336417D01*
X388185Y337500D01*
X388043Y338583D01*
X387625Y339593D01*
X386960Y340459D01*
X386849Y340545D01*
X387009Y341018D01*
X390991D01*
X391151Y340545D01*
X391040Y340459D01*
X390375Y339593D01*
X389957Y338583D01*
X389815Y337500D01*
X389957Y336417D01*
X390375Y335407D01*
X391040Y334541D01*
X391907Y333875D01*
X392917Y333457D01*
X394000Y333315D01*
X395083Y333457D01*
X396093Y333875D01*
X396959Y334541D01*
X397625Y335407D01*
X398043Y336417D01*
X398185Y337500D01*
X398043Y338583D01*
X397625Y339593D01*
X396959Y340459D01*
X396849Y340545D01*
X397009Y341018D01*
X399103D01*
X403117Y337003D01*
Y328996D01*
X395494Y321373D01*
X395083Y321543D01*
X394000Y321685D01*
X392917Y321543D01*
X391907Y321125D01*
X391040Y320460D01*
X390375Y319593D01*
X389957Y318583D01*
X389815Y317500D01*
X389957Y316417D01*
X390375Y315407D01*
X391040Y314541D01*
X391907Y313875D01*
X392917Y313457D01*
X394000Y313315D01*
X395083Y313457D01*
X396093Y313875D01*
X396959Y314541D01*
X397625Y315407D01*
X398043Y316417D01*
X398185Y317500D01*
X398043Y318583D01*
X397873Y318994D01*
X405989Y327110D01*
X406354Y327656D01*
X406482Y328300D01*
X406482Y328300D01*
Y337700D01*
X406482Y337700D01*
X406354Y338344D01*
X405989Y338890D01*
X400989Y343890D01*
X400443Y344255D01*
X399800Y344383D01*
X397469D01*
X397222Y344883D01*
X397625Y345407D01*
X398043Y346417D01*
X398185Y347500D01*
X398043Y348583D01*
X397625Y349593D01*
X396959Y350460D01*
X396093Y351125D01*
X395083Y351543D01*
X394000Y351685D01*
X392917Y351543D01*
X391907Y351125D01*
X391040Y350460D01*
X390375Y349593D01*
X389957Y348583D01*
X389815Y347500D01*
X389957Y346417D01*
X390375Y345407D01*
X390778Y344883D01*
X390531Y344383D01*
X387469D01*
X387222Y344883D01*
X387625Y345407D01*
X388043Y346417D01*
X388185Y347500D01*
X388043Y348583D01*
X387625Y349593D01*
X386960Y350460D01*
X386093Y351125D01*
X385083Y351543D01*
X384000Y351685D01*
X382917Y351543D01*
X381907Y351125D01*
X381041Y350460D01*
X380375Y349593D01*
X379957Y348583D01*
X379871Y347928D01*
X379343Y347748D01*
X378682Y348409D01*
Y388000D01*
X378554Y388644D01*
X378190Y389190D01*
X372190Y395190D01*
X371644Y395554D01*
X371000Y395682D01*
X344520D01*
Y416684D01*
X344442Y417074D01*
X344221Y417405D01*
X344082Y417917D01*
X344149Y418020D01*
X344413Y418415D01*
X344529Y419000D01*
Y426971D01*
X358425D01*
Y425850D01*
X363575D01*
Y431850D01*
X358425D01*
Y430029D01*
X344529D01*
Y431500D01*
Y465867D01*
X350133Y471471D01*
X362516D01*
X368919Y465069D01*
X368925Y465064D01*
Y461650D01*
X374075D01*
Y463121D01*
X389216D01*
X401120Y451217D01*
Y446783D01*
X395647Y441309D01*
X395083Y441543D01*
X394000Y441685D01*
X392917Y441543D01*
X391907Y441125D01*
X391040Y440459D01*
X390375Y439593D01*
X389957Y438583D01*
X389815Y437500D01*
X389957Y436417D01*
X390375Y435407D01*
X391040Y434541D01*
X391907Y433875D01*
X392917Y433457D01*
X394000Y433315D01*
X395083Y433457D01*
X396093Y433875D01*
X396959Y434541D01*
X397625Y435407D01*
X398043Y436417D01*
X398185Y437500D01*
X398043Y438583D01*
X397810Y439147D01*
X403731Y445068D01*
X404063Y445564D01*
X404179Y446150D01*
Y451850D01*
X404063Y452436D01*
X403731Y452932D01*
X390931Y465731D01*
X390435Y466063D01*
X389850Y466179D01*
X374075D01*
Y467650D01*
X370663D01*
X364231Y474081D01*
X363735Y474413D01*
X363150Y474529D01*
D02*
G37*
G36*
X375276Y439500D02*
X369776D01*
Y438219D01*
X363575D01*
Y439150D01*
X358425D01*
Y436983D01*
X358355Y436878D01*
X358180Y436000D01*
X358355Y435123D01*
X358425Y435017D01*
Y433150D01*
X363575D01*
Y433631D01*
X369776D01*
Y432500D01*
X370497D01*
X370689Y432038D01*
X369776Y431124D01*
Y426874D01*
X371151Y425499D01*
X373901D01*
X375107Y426705D01*
X379919D01*
X379957Y426417D01*
X380375Y425407D01*
X381041Y424541D01*
X381907Y423875D01*
X382917Y423457D01*
X384000Y423315D01*
X385083Y423457D01*
X386093Y423875D01*
X386960Y424541D01*
X387625Y425407D01*
X388043Y426417D01*
X388185Y427500D01*
X388043Y428583D01*
X387670Y429482D01*
X387592Y429877D01*
X387095Y430622D01*
X386350Y431119D01*
X385881Y431212D01*
X385083Y431543D01*
X384000Y431685D01*
X382917Y431543D01*
X382315Y431294D01*
X375107D01*
X374362Y432038D01*
X374554Y432500D01*
X375276D01*
Y439500D01*
D02*
G37*
G36*
X543600Y441685D02*
X542517Y441543D01*
X541507Y441125D01*
X540640Y440459D01*
X539975Y439593D01*
X539557Y438583D01*
X539415Y437500D01*
X539557Y436417D01*
X539975Y435407D01*
X540640Y434541D01*
X541507Y433875D01*
X542517Y433457D01*
X543600Y433315D01*
X544683Y433457D01*
X545693Y433875D01*
X546559Y434541D01*
X547225Y435407D01*
X547643Y436417D01*
X547785Y437500D01*
X547643Y438583D01*
X547225Y439593D01*
X546559Y440459D01*
X545693Y441125D01*
X544683Y441543D01*
X543600Y441685D01*
D02*
G37*
G36*
Y431685D02*
X542517Y431543D01*
X541507Y431125D01*
X540640Y430459D01*
X539975Y429593D01*
X539557Y428583D01*
X539415Y427500D01*
X539557Y426417D01*
X539975Y425407D01*
X540640Y424541D01*
X541507Y423875D01*
X542517Y423457D01*
X543600Y423315D01*
X544683Y423457D01*
X545693Y423875D01*
X546559Y424541D01*
X547225Y425407D01*
X547643Y426417D01*
X547785Y427500D01*
X547643Y428583D01*
X547225Y429593D01*
X546559Y430459D01*
X545693Y431125D01*
X544683Y431543D01*
X543600Y431685D01*
D02*
G37*
G36*
X394000D02*
X392917Y431543D01*
X391907Y431125D01*
X391040Y430459D01*
X390375Y429593D01*
X389957Y428583D01*
X389815Y427500D01*
X389957Y426417D01*
X390375Y425407D01*
X391040Y424541D01*
X391907Y423875D01*
X392917Y423457D01*
X394000Y423315D01*
X395083Y423457D01*
X396093Y423875D01*
X396959Y424541D01*
X397625Y425407D01*
X398043Y426417D01*
X398185Y427500D01*
X398043Y428583D01*
X397625Y429593D01*
X396959Y430459D01*
X396093Y431125D01*
X395083Y431543D01*
X394000Y431685D01*
D02*
G37*
G36*
Y421685D02*
X392917Y421543D01*
X391907Y421125D01*
X391040Y420460D01*
X390375Y419593D01*
X389957Y418583D01*
X389815Y417500D01*
X389957Y416417D01*
X390375Y415407D01*
X391040Y414540D01*
X391907Y413875D01*
X392917Y413457D01*
X394000Y413315D01*
X395083Y413457D01*
X396093Y413875D01*
X396959Y414540D01*
X397625Y415407D01*
X398043Y416417D01*
X398185Y417500D01*
X398043Y418583D01*
X397625Y419593D01*
X396959Y420460D01*
X396093Y421125D01*
X395083Y421543D01*
X394000Y421685D01*
D02*
G37*
G36*
X384000D02*
X382917Y421543D01*
X381907Y421125D01*
X381041Y420460D01*
X380375Y419593D01*
X379957Y418583D01*
X379815Y417500D01*
X379957Y416417D01*
X380375Y415407D01*
X381041Y414540D01*
X381907Y413875D01*
X382917Y413457D01*
X384000Y413315D01*
X385083Y413457D01*
X386093Y413875D01*
X386960Y414540D01*
X387625Y415407D01*
X388043Y416417D01*
X388185Y417500D01*
X388043Y418583D01*
X387625Y419593D01*
X386960Y420460D01*
X386093Y421125D01*
X385083Y421543D01*
X384000Y421685D01*
D02*
G37*
G36*
X394000Y411685D02*
X392917Y411543D01*
X391907Y411125D01*
X391040Y410460D01*
X390375Y409593D01*
X389957Y408583D01*
X389815Y407500D01*
X389957Y406417D01*
X390375Y405407D01*
X391040Y404540D01*
X391907Y403875D01*
X392917Y403457D01*
X394000Y403315D01*
X395083Y403457D01*
X396093Y403875D01*
X396959Y404540D01*
X397625Y405407D01*
X398043Y406417D01*
X398185Y407500D01*
X398043Y408583D01*
X397625Y409593D01*
X396959Y410460D01*
X396093Y411125D01*
X395083Y411543D01*
X394000Y411685D01*
D02*
G37*
G36*
X384000D02*
X382917Y411543D01*
X381907Y411125D01*
X381041Y410460D01*
X380375Y409593D01*
X379957Y408583D01*
X379815Y407500D01*
X379957Y406417D01*
X380375Y405407D01*
X381041Y404540D01*
X381907Y403875D01*
X382917Y403457D01*
X384000Y403315D01*
X385083Y403457D01*
X386093Y403875D01*
X386960Y404540D01*
X387625Y405407D01*
X388043Y406417D01*
X388185Y407500D01*
X388043Y408583D01*
X387625Y409593D01*
X386960Y410460D01*
X386093Y411125D01*
X385083Y411543D01*
X384000Y411685D01*
D02*
G37*
G36*
X543600Y401685D02*
X542517Y401543D01*
X541507Y401125D01*
X540640Y400459D01*
X539975Y399593D01*
X539557Y398583D01*
X539415Y397500D01*
X539557Y396417D01*
X539975Y395407D01*
X540640Y394541D01*
X541507Y393875D01*
X542517Y393457D01*
X543600Y393315D01*
X544683Y393457D01*
X545693Y393875D01*
X546559Y394541D01*
X547225Y395407D01*
X547643Y396417D01*
X547785Y397500D01*
X547643Y398583D01*
X547225Y399593D01*
X546559Y400459D01*
X545693Y401125D01*
X544683Y401543D01*
X543600Y401685D01*
D02*
G37*
G36*
X533600D02*
X532517Y401543D01*
X531507Y401125D01*
X530641Y400459D01*
X529975Y399593D01*
X529557Y398583D01*
X529415Y397500D01*
X529557Y396417D01*
X529975Y395407D01*
X530641Y394541D01*
X531507Y393875D01*
X532517Y393457D01*
X533600Y393315D01*
X534683Y393457D01*
X535693Y393875D01*
X536559Y394541D01*
X537225Y395407D01*
X537643Y396417D01*
X537785Y397500D01*
X537643Y398583D01*
X537225Y399593D01*
X536559Y400459D01*
X535693Y401125D01*
X534683Y401543D01*
X533600Y401685D01*
D02*
G37*
G36*
X394000D02*
X392917Y401543D01*
X391907Y401125D01*
X391040Y400459D01*
X390375Y399593D01*
X389957Y398583D01*
X389815Y397500D01*
X389957Y396417D01*
X390375Y395407D01*
X391040Y394541D01*
X391907Y393875D01*
X392917Y393457D01*
X394000Y393315D01*
X395083Y393457D01*
X396093Y393875D01*
X396959Y394541D01*
X397625Y395407D01*
X398043Y396417D01*
X398185Y397500D01*
X398043Y398583D01*
X397625Y399593D01*
X396959Y400459D01*
X396093Y401125D01*
X395083Y401543D01*
X394000Y401685D01*
D02*
G37*
G36*
X384000D02*
X382917Y401543D01*
X381907Y401125D01*
X381041Y400459D01*
X380375Y399593D01*
X379957Y398583D01*
X379815Y397500D01*
X379957Y396417D01*
X380375Y395407D01*
X381041Y394541D01*
X381907Y393875D01*
X382917Y393457D01*
X384000Y393315D01*
X385083Y393457D01*
X386093Y393875D01*
X386960Y394541D01*
X387625Y395407D01*
X388043Y396417D01*
X388185Y397500D01*
X388043Y398583D01*
X387625Y399593D01*
X386960Y400459D01*
X386093Y401125D01*
X385083Y401543D01*
X384000Y401685D01*
D02*
G37*
G36*
X543600Y391685D02*
X542517Y391543D01*
X541507Y391125D01*
X540640Y390459D01*
X539975Y389593D01*
X539557Y388583D01*
X539415Y387500D01*
X539557Y386417D01*
X539975Y385407D01*
X540640Y384541D01*
X541507Y383875D01*
X542517Y383457D01*
X543600Y383315D01*
X544683Y383457D01*
X545693Y383875D01*
X546559Y384541D01*
X547225Y385407D01*
X547643Y386417D01*
X547785Y387500D01*
X547643Y388583D01*
X547225Y389593D01*
X546559Y390459D01*
X545693Y391125D01*
X544683Y391543D01*
X543600Y391685D01*
D02*
G37*
G36*
X533600D02*
X532517Y391543D01*
X531507Y391125D01*
X530641Y390459D01*
X529975Y389593D01*
X529557Y388583D01*
X529415Y387500D01*
X529557Y386417D01*
X529975Y385407D01*
X530641Y384541D01*
X531507Y383875D01*
X532517Y383457D01*
X533600Y383315D01*
X534683Y383457D01*
X535693Y383875D01*
X536559Y384541D01*
X537225Y385407D01*
X537643Y386417D01*
X537785Y387500D01*
X537643Y388583D01*
X537225Y389593D01*
X536559Y390459D01*
X535693Y391125D01*
X534683Y391543D01*
X533600Y391685D01*
D02*
G37*
G36*
X394000D02*
X392917Y391543D01*
X391907Y391125D01*
X391040Y390459D01*
X390375Y389593D01*
X389957Y388583D01*
X389815Y387500D01*
X389957Y386417D01*
X390375Y385407D01*
X391040Y384541D01*
X391907Y383875D01*
X392917Y383457D01*
X394000Y383315D01*
X395083Y383457D01*
X396093Y383875D01*
X396959Y384541D01*
X397625Y385407D01*
X398043Y386417D01*
X398185Y387500D01*
X398043Y388583D01*
X397625Y389593D01*
X396959Y390459D01*
X396093Y391125D01*
X395083Y391543D01*
X394000Y391685D01*
D02*
G37*
G36*
X384000D02*
X382917Y391543D01*
X381907Y391125D01*
X381041Y390459D01*
X380375Y389593D01*
X379957Y388583D01*
X379815Y387500D01*
X379957Y386417D01*
X380375Y385407D01*
X381041Y384541D01*
X381907Y383875D01*
X382917Y383457D01*
X384000Y383315D01*
X385083Y383457D01*
X386093Y383875D01*
X386960Y384541D01*
X387625Y385407D01*
X388043Y386417D01*
X388185Y387500D01*
X388043Y388583D01*
X387625Y389593D01*
X386960Y390459D01*
X386093Y391125D01*
X385083Y391543D01*
X384000Y391685D01*
D02*
G37*
G36*
X543600Y381685D02*
X542517Y381543D01*
X541507Y381125D01*
X540640Y380459D01*
X539975Y379593D01*
X539557Y378583D01*
X539415Y377500D01*
X539557Y376417D01*
X539975Y375407D01*
X540640Y374540D01*
X541507Y373875D01*
X542517Y373457D01*
X543600Y373315D01*
X544683Y373457D01*
X545693Y373875D01*
X546559Y374540D01*
X547225Y375407D01*
X547643Y376417D01*
X547785Y377500D01*
X547643Y378583D01*
X547225Y379593D01*
X546559Y380459D01*
X545693Y381125D01*
X544683Y381543D01*
X543600Y381685D01*
D02*
G37*
G36*
X533600D02*
X532517Y381543D01*
X531507Y381125D01*
X530641Y380459D01*
X529975Y379593D01*
X529557Y378583D01*
X529415Y377500D01*
X529557Y376417D01*
X529975Y375407D01*
X530641Y374540D01*
X531507Y373875D01*
X532517Y373457D01*
X533600Y373315D01*
X534683Y373457D01*
X535693Y373875D01*
X536559Y374540D01*
X537225Y375407D01*
X537643Y376417D01*
X537785Y377500D01*
X537643Y378583D01*
X537225Y379593D01*
X536559Y380459D01*
X535693Y381125D01*
X534683Y381543D01*
X533600Y381685D01*
D02*
G37*
G36*
X394000D02*
X392917Y381543D01*
X391907Y381125D01*
X391040Y380459D01*
X390375Y379593D01*
X389957Y378583D01*
X389815Y377500D01*
X389957Y376417D01*
X390375Y375407D01*
X391040Y374540D01*
X391907Y373875D01*
X392917Y373457D01*
X394000Y373315D01*
X395083Y373457D01*
X396093Y373875D01*
X396959Y374540D01*
X397625Y375407D01*
X398043Y376417D01*
X398185Y377500D01*
X398043Y378583D01*
X397625Y379593D01*
X396959Y380459D01*
X396093Y381125D01*
X395083Y381543D01*
X394000Y381685D01*
D02*
G37*
G36*
X384000D02*
X382917Y381543D01*
X381907Y381125D01*
X381041Y380459D01*
X380375Y379593D01*
X379957Y378583D01*
X379815Y377500D01*
X379957Y376417D01*
X380375Y375407D01*
X381041Y374540D01*
X381907Y373875D01*
X382917Y373457D01*
X384000Y373315D01*
X385083Y373457D01*
X386093Y373875D01*
X386960Y374540D01*
X387625Y375407D01*
X388043Y376417D01*
X388185Y377500D01*
X388043Y378583D01*
X387625Y379593D01*
X386960Y380459D01*
X386093Y381125D01*
X385083Y381543D01*
X384000Y381685D01*
D02*
G37*
G36*
X543600Y371685D02*
X542517Y371543D01*
X541507Y371125D01*
X540640Y370460D01*
X539975Y369593D01*
X539557Y368583D01*
X539415Y367500D01*
X539557Y366417D01*
X539975Y365407D01*
X540640Y364541D01*
X541507Y363875D01*
X542517Y363457D01*
X543600Y363315D01*
X544683Y363457D01*
X545693Y363875D01*
X546559Y364541D01*
X547225Y365407D01*
X547643Y366417D01*
X547785Y367500D01*
X547643Y368583D01*
X547225Y369593D01*
X546559Y370460D01*
X545693Y371125D01*
X544683Y371543D01*
X543600Y371685D01*
D02*
G37*
G36*
X533600D02*
X532517Y371543D01*
X531507Y371125D01*
X530641Y370460D01*
X529975Y369593D01*
X529557Y368583D01*
X529415Y367500D01*
X529557Y366417D01*
X529975Y365407D01*
X530641Y364541D01*
X531507Y363875D01*
X532517Y363457D01*
X533600Y363315D01*
X534683Y363457D01*
X535693Y363875D01*
X536559Y364541D01*
X537225Y365407D01*
X537643Y366417D01*
X537785Y367500D01*
X537643Y368583D01*
X537225Y369593D01*
X536559Y370460D01*
X535693Y371125D01*
X534683Y371543D01*
X533600Y371685D01*
D02*
G37*
G36*
X394000D02*
X392917Y371543D01*
X391907Y371125D01*
X391040Y370460D01*
X390375Y369593D01*
X389957Y368583D01*
X389815Y367500D01*
X389957Y366417D01*
X390375Y365407D01*
X391040Y364541D01*
X391907Y363875D01*
X392917Y363457D01*
X394000Y363315D01*
X395083Y363457D01*
X396093Y363875D01*
X396959Y364541D01*
X397625Y365407D01*
X398043Y366417D01*
X398185Y367500D01*
X398043Y368583D01*
X397625Y369593D01*
X396959Y370460D01*
X396093Y371125D01*
X395083Y371543D01*
X394000Y371685D01*
D02*
G37*
G36*
X384000D02*
X382917Y371543D01*
X381907Y371125D01*
X381041Y370460D01*
X380375Y369593D01*
X379957Y368583D01*
X379815Y367500D01*
X379957Y366417D01*
X380375Y365407D01*
X381041Y364541D01*
X381907Y363875D01*
X382917Y363457D01*
X384000Y363315D01*
X385083Y363457D01*
X386093Y363875D01*
X386960Y364541D01*
X387625Y365407D01*
X388043Y366417D01*
X388185Y367500D01*
X388043Y368583D01*
X387625Y369593D01*
X386960Y370460D01*
X386093Y371125D01*
X385083Y371543D01*
X384000Y371685D01*
D02*
G37*
G36*
X543600Y361685D02*
X542517Y361543D01*
X541507Y361125D01*
X540640Y360459D01*
X539975Y359593D01*
X539557Y358583D01*
X539415Y357500D01*
X539557Y356417D01*
X539975Y355407D01*
X540640Y354540D01*
X541507Y353875D01*
X542517Y353457D01*
X543600Y353315D01*
X544683Y353457D01*
X545693Y353875D01*
X546559Y354540D01*
X547225Y355407D01*
X547643Y356417D01*
X547785Y357500D01*
X547643Y358583D01*
X547225Y359593D01*
X546559Y360459D01*
X545693Y361125D01*
X544683Y361543D01*
X543600Y361685D01*
D02*
G37*
G36*
X533600D02*
X532517Y361543D01*
X531507Y361125D01*
X530641Y360459D01*
X529975Y359593D01*
X529557Y358583D01*
X529415Y357500D01*
X529557Y356417D01*
X529975Y355407D01*
X530641Y354540D01*
X531507Y353875D01*
X532517Y353457D01*
X533600Y353315D01*
X534683Y353457D01*
X535693Y353875D01*
X536559Y354540D01*
X537225Y355407D01*
X537643Y356417D01*
X537785Y357500D01*
X537643Y358583D01*
X537225Y359593D01*
X536559Y360459D01*
X535693Y361125D01*
X534683Y361543D01*
X533600Y361685D01*
D02*
G37*
G36*
X394000D02*
X392917Y361543D01*
X391907Y361125D01*
X391040Y360459D01*
X390375Y359593D01*
X389957Y358583D01*
X389815Y357500D01*
X389957Y356417D01*
X390375Y355407D01*
X391040Y354540D01*
X391907Y353875D01*
X392917Y353457D01*
X394000Y353315D01*
X395083Y353457D01*
X396093Y353875D01*
X396959Y354540D01*
X397625Y355407D01*
X398043Y356417D01*
X398185Y357500D01*
X398043Y358583D01*
X397625Y359593D01*
X396959Y360459D01*
X396093Y361125D01*
X395083Y361543D01*
X394000Y361685D01*
D02*
G37*
G36*
X384000D02*
X382917Y361543D01*
X381907Y361125D01*
X381041Y360459D01*
X380375Y359593D01*
X379957Y358583D01*
X379815Y357500D01*
X379957Y356417D01*
X380375Y355407D01*
X381041Y354540D01*
X381907Y353875D01*
X382917Y353457D01*
X384000Y353315D01*
X385083Y353457D01*
X386093Y353875D01*
X386960Y354540D01*
X387625Y355407D01*
X388043Y356417D01*
X388185Y357500D01*
X388043Y358583D01*
X387625Y359593D01*
X386960Y360459D01*
X386093Y361125D01*
X385083Y361543D01*
X384000Y361685D01*
D02*
G37*
G36*
X543600Y351685D02*
X542517Y351543D01*
X541507Y351125D01*
X540640Y350460D01*
X539975Y349593D01*
X539557Y348583D01*
X539415Y347500D01*
X539557Y346417D01*
X539975Y345407D01*
X540640Y344541D01*
X541507Y343875D01*
X542517Y343457D01*
X543600Y343315D01*
X544683Y343457D01*
X545693Y343875D01*
X546559Y344541D01*
X547225Y345407D01*
X547643Y346417D01*
X547785Y347500D01*
X547643Y348583D01*
X547225Y349593D01*
X546559Y350460D01*
X545693Y351125D01*
X544683Y351543D01*
X543600Y351685D01*
D02*
G37*
G36*
X533600D02*
X532517Y351543D01*
X531507Y351125D01*
X530641Y350460D01*
X529975Y349593D01*
X529557Y348583D01*
X529415Y347500D01*
X529557Y346417D01*
X529975Y345407D01*
X530641Y344541D01*
X531507Y343875D01*
X532517Y343457D01*
X533600Y343315D01*
X534683Y343457D01*
X535693Y343875D01*
X536559Y344541D01*
X537225Y345407D01*
X537643Y346417D01*
X537785Y347500D01*
X537643Y348583D01*
X537225Y349593D01*
X536559Y350460D01*
X535693Y351125D01*
X534683Y351543D01*
X533600Y351685D01*
D02*
G37*
G36*
X543600Y341685D02*
X542517Y341543D01*
X541507Y341125D01*
X540640Y340459D01*
X539975Y339593D01*
X539557Y338583D01*
X539415Y337500D01*
X539557Y336417D01*
X539975Y335407D01*
X540640Y334541D01*
X541507Y333875D01*
X542517Y333457D01*
X543600Y333315D01*
X544683Y333457D01*
X545693Y333875D01*
X546559Y334541D01*
X547225Y335407D01*
X547643Y336417D01*
X547785Y337500D01*
X547643Y338583D01*
X547225Y339593D01*
X546559Y340459D01*
X545693Y341125D01*
X544683Y341543D01*
X543600Y341685D01*
D02*
G37*
G36*
X533600D02*
X532517Y341543D01*
X531507Y341125D01*
X530641Y340459D01*
X529975Y339593D01*
X529557Y338583D01*
X529415Y337500D01*
X529557Y336417D01*
X529975Y335407D01*
X530641Y334541D01*
X531507Y333875D01*
X532517Y333457D01*
X533600Y333315D01*
X534683Y333457D01*
X535693Y333875D01*
X536559Y334541D01*
X537225Y335407D01*
X537643Y336417D01*
X537785Y337500D01*
X537643Y338583D01*
X537225Y339593D01*
X536559Y340459D01*
X535693Y341125D01*
X534683Y341543D01*
X533600Y341685D01*
D02*
G37*
G36*
X332799Y334748D02*
X318201D01*
Y326252D01*
X332799D01*
Y334748D01*
D02*
G37*
G36*
X279799Y332492D02*
X265201D01*
Y323996D01*
X279799D01*
Y332492D01*
D02*
G37*
G36*
X543600Y331685D02*
X542517Y331543D01*
X541507Y331125D01*
X540640Y330459D01*
X539975Y329593D01*
X539557Y328583D01*
X539415Y327500D01*
X539557Y326417D01*
X539975Y325407D01*
X540640Y324540D01*
X541507Y323875D01*
X542517Y323457D01*
X543600Y323315D01*
X544683Y323457D01*
X545693Y323875D01*
X546559Y324540D01*
X547225Y325407D01*
X547643Y326417D01*
X547785Y327500D01*
X547643Y328583D01*
X547225Y329593D01*
X546559Y330459D01*
X545693Y331125D01*
X544683Y331543D01*
X543600Y331685D01*
D02*
G37*
G36*
X533600D02*
X532517Y331543D01*
X531507Y331125D01*
X530641Y330459D01*
X529975Y329593D01*
X529557Y328583D01*
X529415Y327500D01*
X529557Y326417D01*
X529975Y325407D01*
X530641Y324540D01*
X531507Y323875D01*
X532517Y323457D01*
X533600Y323315D01*
X534683Y323457D01*
X535693Y323875D01*
X536559Y324540D01*
X537225Y325407D01*
X537643Y326417D01*
X537785Y327500D01*
X537643Y328583D01*
X537225Y329593D01*
X536559Y330459D01*
X535693Y331125D01*
X534683Y331543D01*
X533600Y331685D01*
D02*
G37*
G36*
X394000D02*
X392917Y331543D01*
X391907Y331125D01*
X391040Y330459D01*
X390375Y329593D01*
X389957Y328583D01*
X389815Y327500D01*
X389957Y326417D01*
X390375Y325407D01*
X391040Y324540D01*
X391907Y323875D01*
X392917Y323457D01*
X394000Y323315D01*
X395083Y323457D01*
X396093Y323875D01*
X396959Y324540D01*
X397625Y325407D01*
X398043Y326417D01*
X398185Y327500D01*
X398043Y328583D01*
X397625Y329593D01*
X396959Y330459D01*
X396093Y331125D01*
X395083Y331543D01*
X394000Y331685D01*
D02*
G37*
G36*
X384000D02*
X382917Y331543D01*
X381907Y331125D01*
X381041Y330459D01*
X380375Y329593D01*
X379957Y328583D01*
X379815Y327500D01*
X379957Y326417D01*
X380375Y325407D01*
X381041Y324540D01*
X381907Y323875D01*
X382917Y323457D01*
X384000Y323315D01*
X385083Y323457D01*
X386093Y323875D01*
X386960Y324540D01*
X387625Y325407D01*
X388043Y326417D01*
X388185Y327500D01*
X388043Y328583D01*
X387625Y329593D01*
X386960Y330459D01*
X386093Y331125D01*
X385083Y331543D01*
X384000Y331685D01*
D02*
G37*
G36*
X543600Y321685D02*
X542517Y321543D01*
X541507Y321125D01*
X540640Y320460D01*
X539975Y319593D01*
X539557Y318583D01*
X539415Y317500D01*
X539557Y316417D01*
X539975Y315407D01*
X540640Y314541D01*
X541507Y313875D01*
X542517Y313457D01*
X543600Y313315D01*
X544683Y313457D01*
X545693Y313875D01*
X546559Y314541D01*
X547225Y315407D01*
X547643Y316417D01*
X547785Y317500D01*
X547643Y318583D01*
X547225Y319593D01*
X546559Y320460D01*
X545693Y321125D01*
X544683Y321543D01*
X543600Y321685D01*
D02*
G37*
G36*
X533600D02*
X532517Y321543D01*
X531507Y321125D01*
X530641Y320460D01*
X529975Y319593D01*
X529557Y318583D01*
X529415Y317500D01*
X529557Y316417D01*
X529975Y315407D01*
X530641Y314541D01*
X531507Y313875D01*
X532517Y313457D01*
X533600Y313315D01*
X534683Y313457D01*
X535693Y313875D01*
X536559Y314541D01*
X537225Y315407D01*
X537643Y316417D01*
X537785Y317500D01*
X537643Y318583D01*
X537225Y319593D01*
X536559Y320460D01*
X535693Y321125D01*
X534683Y321543D01*
X533600Y321685D01*
D02*
G37*
G36*
X384000D02*
X382917Y321543D01*
X381907Y321125D01*
X381041Y320460D01*
X380375Y319593D01*
X379957Y318583D01*
X379815Y317500D01*
X379957Y316417D01*
X380375Y315407D01*
X381041Y314541D01*
X381907Y313875D01*
X382917Y313457D01*
X384000Y313315D01*
X385083Y313457D01*
X386093Y313875D01*
X386960Y314541D01*
X387625Y315407D01*
X388043Y316417D01*
X388185Y317500D01*
X388043Y318583D01*
X387625Y319593D01*
X386960Y320460D01*
X386093Y321125D01*
X385083Y321543D01*
X384000Y321685D01*
D02*
G37*
G36*
Y311685D02*
X382917Y311543D01*
X381907Y311125D01*
X381041Y310459D01*
X380375Y309593D01*
X379957Y308583D01*
X379815Y307500D01*
X379957Y306417D01*
X380074Y306134D01*
X379425Y305484D01*
X371075D01*
Y306700D01*
X365925D01*
Y300700D01*
X366716D01*
Y295150D01*
X365925D01*
Y289150D01*
X371075D01*
Y295150D01*
X370284D01*
Y300700D01*
X371075D01*
Y301916D01*
X380164D01*
X380847Y302051D01*
X381425Y302438D01*
X382583Y303596D01*
X382917Y303457D01*
X384000Y303315D01*
X385083Y303457D01*
X386093Y303875D01*
X386960Y304540D01*
X387625Y305407D01*
X388043Y306417D01*
X388185Y307500D01*
X388043Y308583D01*
X387625Y309593D01*
X386960Y310459D01*
X386093Y311125D01*
X385083Y311543D01*
X384000Y311685D01*
D02*
G37*
G36*
X543600D02*
X542517Y311543D01*
X541507Y311125D01*
X540640Y310459D01*
X539975Y309593D01*
X539557Y308583D01*
X539415Y307500D01*
X539557Y306417D01*
X539975Y305407D01*
X540640Y304540D01*
X541507Y303875D01*
X542517Y303457D01*
X543600Y303315D01*
X544683Y303457D01*
X545693Y303875D01*
X546559Y304540D01*
X547225Y305407D01*
X547643Y306417D01*
X547785Y307500D01*
X547643Y308583D01*
X547225Y309593D01*
X546559Y310459D01*
X545693Y311125D01*
X544683Y311543D01*
X543600Y311685D01*
D02*
G37*
G36*
X533600D02*
X532517Y311543D01*
X531507Y311125D01*
X530641Y310459D01*
X529975Y309593D01*
X529557Y308583D01*
X529415Y307500D01*
X529557Y306417D01*
X529975Y305407D01*
X530641Y304540D01*
X531507Y303875D01*
X532517Y303457D01*
X533600Y303315D01*
X534683Y303457D01*
X535693Y303875D01*
X536559Y304540D01*
X537225Y305407D01*
X537643Y306417D01*
X537785Y307500D01*
X537643Y308583D01*
X537225Y309593D01*
X536559Y310459D01*
X535693Y311125D01*
X534683Y311543D01*
X533600Y311685D01*
D02*
G37*
G36*
X394000D02*
X392917Y311543D01*
X391907Y311125D01*
X391040Y310459D01*
X390375Y309593D01*
X389957Y308583D01*
X389815Y307500D01*
X389957Y306417D01*
X390375Y305407D01*
X391040Y304540D01*
X391907Y303875D01*
X392917Y303457D01*
X394000Y303315D01*
X395083Y303457D01*
X396093Y303875D01*
X396959Y304540D01*
X397625Y305407D01*
X398043Y306417D01*
X398185Y307500D01*
X398043Y308583D01*
X397625Y309593D01*
X396959Y310459D01*
X396093Y311125D01*
X395083Y311543D01*
X394000Y311685D01*
D02*
G37*
G36*
Y301685D02*
X392917Y301543D01*
X391907Y301125D01*
X391040Y300460D01*
X390375Y299593D01*
X389957Y298583D01*
X389815Y297500D01*
X389957Y296417D01*
X390375Y295407D01*
X391040Y294541D01*
X391512Y294179D01*
X391342Y293679D01*
X389984D01*
X387809Y295853D01*
X388043Y296417D01*
X388185Y297500D01*
X388043Y298583D01*
X387625Y299593D01*
X386960Y300460D01*
X386093Y301125D01*
X385083Y301543D01*
X384000Y301685D01*
X382917Y301543D01*
X381907Y301125D01*
X381041Y300460D01*
X380375Y299593D01*
X379957Y298583D01*
X379815Y297500D01*
X379957Y296417D01*
X380375Y295407D01*
X381041Y294541D01*
X381907Y293875D01*
X382917Y293457D01*
X384000Y293315D01*
X385083Y293457D01*
X385647Y293690D01*
X388269Y291068D01*
X388765Y290737D01*
X389350Y290620D01*
X390533D01*
X390780Y290120D01*
X390375Y289593D01*
X389957Y288583D01*
X389815Y287500D01*
X389957Y286417D01*
X390375Y285407D01*
X390780Y284880D01*
X390533Y284380D01*
X389283D01*
X387809Y285853D01*
X388043Y286417D01*
X388185Y287500D01*
X388043Y288583D01*
X387625Y289593D01*
X386960Y290459D01*
X386093Y291125D01*
X385083Y291543D01*
X384000Y291685D01*
X382917Y291543D01*
X381907Y291125D01*
X381041Y290459D01*
X380375Y289593D01*
X379957Y288583D01*
X379815Y287500D01*
X379957Y286417D01*
X380375Y285407D01*
X381041Y284541D01*
X381907Y283875D01*
X382917Y283457D01*
X384000Y283315D01*
X385083Y283457D01*
X385647Y283691D01*
X387568Y281769D01*
X388064Y281437D01*
X388650Y281321D01*
X391342D01*
X391512Y280821D01*
X391040Y280459D01*
X390375Y279593D01*
X389957Y278583D01*
X389815Y277500D01*
X389957Y276417D01*
X390375Y275407D01*
X391040Y274540D01*
X391907Y273875D01*
X392917Y273457D01*
X394000Y273315D01*
X395083Y273457D01*
X396093Y273875D01*
X396959Y274540D01*
X397625Y275407D01*
X398043Y276417D01*
X398185Y277500D01*
X398043Y278583D01*
X397625Y279593D01*
X396959Y280459D01*
X396488Y280821D01*
X396658Y281321D01*
X399292D01*
X423471Y257143D01*
X423471Y118571D01*
X422808Y118297D01*
X421900Y117600D01*
X421203Y116692D01*
X420765Y115635D01*
X420616Y114500D01*
X420765Y113365D01*
X421203Y112308D01*
X421900Y111400D01*
X422808Y110703D01*
X423865Y110265D01*
X425000Y110116D01*
X426135Y110265D01*
X427192Y110703D01*
X428100Y111400D01*
X428797Y112308D01*
X429235Y113365D01*
X429384Y114500D01*
X429235Y115635D01*
X428797Y116692D01*
X428100Y117600D01*
X427192Y118297D01*
X426529Y118571D01*
X426529Y257776D01*
X426413Y258362D01*
X426081Y258858D01*
X401007Y283932D01*
X400511Y284263D01*
X399926Y284380D01*
X397466D01*
X397220Y284880D01*
X397625Y285407D01*
X398043Y286417D01*
X398185Y287500D01*
X398043Y288583D01*
X397625Y289593D01*
X397220Y290120D01*
X397466Y290620D01*
X399292D01*
X433471Y256442D01*
X433471Y118571D01*
X432808Y118297D01*
X431900Y117600D01*
X431203Y116692D01*
X430765Y115635D01*
X430616Y114500D01*
X430765Y113365D01*
X431203Y112308D01*
X431900Y111400D01*
X432808Y110703D01*
X433865Y110265D01*
X435000Y110116D01*
X436135Y110265D01*
X437192Y110703D01*
X438100Y111400D01*
X438797Y112308D01*
X439235Y113365D01*
X439384Y114500D01*
X439235Y115635D01*
X438797Y116692D01*
X438100Y117600D01*
X437192Y118297D01*
X436529Y118571D01*
X436529Y257076D01*
X436413Y257661D01*
X436081Y258157D01*
X401007Y293231D01*
X400511Y293563D01*
X399926Y293679D01*
X396658D01*
X396488Y294179D01*
X396959Y294541D01*
X397625Y295407D01*
X398043Y296417D01*
X398185Y297500D01*
X398043Y298583D01*
X397625Y299593D01*
X396959Y300460D01*
X396093Y301125D01*
X395083Y301543D01*
X394000Y301685D01*
D02*
G37*
G36*
X543600D02*
X542517Y301543D01*
X541507Y301125D01*
X540640Y300460D01*
X539975Y299593D01*
X539557Y298583D01*
X539415Y297500D01*
X539557Y296417D01*
X539975Y295407D01*
X540640Y294541D01*
X541507Y293875D01*
X542517Y293457D01*
X543600Y293315D01*
X544683Y293457D01*
X545693Y293875D01*
X546559Y294541D01*
X547225Y295407D01*
X547643Y296417D01*
X547785Y297500D01*
X547643Y298583D01*
X547225Y299593D01*
X546559Y300460D01*
X545693Y301125D01*
X544683Y301543D01*
X543600Y301685D01*
D02*
G37*
G36*
X533600D02*
X532517Y301543D01*
X531507Y301125D01*
X530641Y300460D01*
X529975Y299593D01*
X529557Y298583D01*
X529415Y297500D01*
X529557Y296417D01*
X529975Y295407D01*
X530641Y294541D01*
X531507Y293875D01*
X532517Y293457D01*
X533600Y293315D01*
X534683Y293457D01*
X535693Y293875D01*
X536559Y294541D01*
X537225Y295407D01*
X537643Y296417D01*
X537785Y297500D01*
X537643Y298583D01*
X537225Y299593D01*
X536559Y300460D01*
X535693Y301125D01*
X534683Y301543D01*
X533600Y301685D01*
D02*
G37*
G36*
X543600Y291685D02*
X542517Y291543D01*
X541507Y291125D01*
X540640Y290459D01*
X539975Y289593D01*
X539557Y288583D01*
X539415Y287500D01*
X539557Y286417D01*
X539975Y285407D01*
X540640Y284541D01*
X541507Y283875D01*
X542517Y283457D01*
X543600Y283315D01*
X544683Y283457D01*
X545693Y283875D01*
X546559Y284541D01*
X547225Y285407D01*
X547643Y286417D01*
X547785Y287500D01*
X547643Y288583D01*
X547225Y289593D01*
X546559Y290459D01*
X545693Y291125D01*
X544683Y291543D01*
X543600Y291685D01*
D02*
G37*
G36*
X435500Y472384D02*
X434365Y472235D01*
X433308Y471797D01*
X432400Y471100D01*
X431703Y470192D01*
X431265Y469135D01*
X431116Y468000D01*
X431265Y466865D01*
X431703Y465808D01*
X432400Y464900D01*
X433308Y464203D01*
X434365Y463765D01*
X435500Y463616D01*
X436579Y463758D01*
X512471Y387866D01*
Y295500D01*
X512587Y294915D01*
X512919Y294419D01*
X529464Y277873D01*
X529415Y277500D01*
X529557Y276417D01*
X529975Y275407D01*
X530641Y274540D01*
X531507Y273875D01*
X532517Y273457D01*
X533600Y273315D01*
X534683Y273457D01*
X535693Y273875D01*
X536559Y274540D01*
X537225Y275407D01*
X537643Y276417D01*
X537785Y277500D01*
X537643Y278583D01*
X537225Y279593D01*
X536559Y280459D01*
X536089Y280821D01*
X536258Y281321D01*
X537616D01*
X539790Y279147D01*
X539557Y278583D01*
X539415Y277500D01*
X539557Y276417D01*
X539975Y275407D01*
X540640Y274540D01*
X541507Y273875D01*
X542517Y273457D01*
X543600Y273315D01*
X544683Y273457D01*
X545693Y273875D01*
X546559Y274540D01*
X547225Y275407D01*
X547643Y276417D01*
X547785Y277500D01*
X547643Y278583D01*
X547225Y279593D01*
X546559Y280459D01*
X545693Y281125D01*
X544683Y281543D01*
X543600Y281685D01*
X542517Y281543D01*
X541953Y281310D01*
X539331Y283932D01*
X538835Y284263D01*
X538250Y284380D01*
X537067D01*
X536820Y284880D01*
X537225Y285407D01*
X537643Y286417D01*
X537785Y287500D01*
X537643Y288583D01*
X537225Y289593D01*
X536559Y290459D01*
X535693Y291125D01*
X534683Y291543D01*
X533600Y291685D01*
X532517Y291543D01*
X531507Y291125D01*
X530641Y290459D01*
X529975Y289593D01*
X529557Y288583D01*
X529468Y287902D01*
X528940Y287723D01*
X522029Y294634D01*
Y393000D01*
X521913Y393585D01*
X521581Y394081D01*
X449847Y465816D01*
Y472346D01*
X441153D01*
Y464216D01*
X440654Y464009D01*
X439105Y465558D01*
X439297Y465808D01*
X439735Y466865D01*
X439884Y468000D01*
X439735Y469135D01*
X439297Y470192D01*
X438600Y471100D01*
X437692Y471797D01*
X436635Y472235D01*
X435500Y472384D01*
D02*
G37*
G36*
X384000Y281685D02*
X382917Y281543D01*
X381907Y281125D01*
X381041Y280459D01*
X380375Y279593D01*
X379957Y278583D01*
X379815Y277500D01*
X379957Y276417D01*
X380375Y275407D01*
X381041Y274540D01*
X381907Y273875D01*
X382917Y273457D01*
X384000Y273315D01*
X385083Y273457D01*
X386093Y273875D01*
X386960Y274540D01*
X387625Y275407D01*
X388043Y276417D01*
X388185Y277500D01*
X388043Y278583D01*
X387625Y279593D01*
X386960Y280459D01*
X386093Y281125D01*
X385083Y281543D01*
X384000Y281685D01*
D02*
G37*
G36*
X279299Y281492D02*
X264701D01*
Y272996D01*
X279299D01*
Y281492D01*
D02*
G37*
G36*
X543600Y271685D02*
X542517Y271543D01*
X541507Y271125D01*
X540640Y270460D01*
X539975Y269593D01*
X539557Y268583D01*
X539415Y267500D01*
X539557Y266417D01*
X539975Y265407D01*
X540640Y264541D01*
X541507Y263875D01*
X542517Y263457D01*
X543600Y263315D01*
X544683Y263457D01*
X545693Y263875D01*
X546559Y264541D01*
X547225Y265407D01*
X547643Y266417D01*
X547785Y267500D01*
X547643Y268583D01*
X547225Y269593D01*
X546559Y270460D01*
X545693Y271125D01*
X544683Y271543D01*
X543600Y271685D01*
D02*
G37*
G36*
X533600D02*
X532517Y271543D01*
X531507Y271125D01*
X530641Y270460D01*
X529975Y269593D01*
X529557Y268583D01*
X529415Y267500D01*
X529557Y266417D01*
X529975Y265407D01*
X530641Y264541D01*
X531507Y263875D01*
X532517Y263457D01*
X533600Y263315D01*
X534683Y263457D01*
X535693Y263875D01*
X536559Y264541D01*
X537225Y265407D01*
X537643Y266417D01*
X537785Y267500D01*
X537643Y268583D01*
X537225Y269593D01*
X536559Y270460D01*
X535693Y271125D01*
X534683Y271543D01*
X533600Y271685D01*
D02*
G37*
G36*
X394000D02*
X392917Y271543D01*
X391907Y271125D01*
X391040Y270460D01*
X390375Y269593D01*
X389957Y268583D01*
X389815Y267500D01*
X389957Y266417D01*
X390375Y265407D01*
X391040Y264541D01*
X391907Y263875D01*
X392917Y263457D01*
X394000Y263315D01*
X395083Y263457D01*
X396093Y263875D01*
X396959Y264541D01*
X397625Y265407D01*
X398043Y266417D01*
X398185Y267500D01*
X398043Y268583D01*
X397625Y269593D01*
X396959Y270460D01*
X396093Y271125D01*
X395083Y271543D01*
X394000Y271685D01*
D02*
G37*
G36*
X384000D02*
X382917Y271543D01*
X381907Y271125D01*
X381041Y270460D01*
X380375Y269593D01*
X379957Y268583D01*
X379815Y267500D01*
X379957Y266417D01*
X380375Y265407D01*
X381041Y264541D01*
X381907Y263875D01*
X382917Y263457D01*
X384000Y263315D01*
X385083Y263457D01*
X386093Y263875D01*
X386960Y264541D01*
X387625Y265407D01*
X388043Y266417D01*
X388185Y267500D01*
X388043Y268583D01*
X387625Y269593D01*
X386960Y270460D01*
X386093Y271125D01*
X385083Y271543D01*
X384000Y271685D01*
D02*
G37*
G36*
X543600Y261685D02*
X542517Y261543D01*
X541507Y261125D01*
X540640Y260459D01*
X539975Y259593D01*
X539557Y258583D01*
X539415Y257500D01*
X539557Y256417D01*
X539975Y255407D01*
X540640Y254540D01*
X541507Y253875D01*
X542517Y253457D01*
X543600Y253315D01*
X544683Y253457D01*
X545693Y253875D01*
X546559Y254540D01*
X547225Y255407D01*
X547643Y256417D01*
X547785Y257500D01*
X547643Y258583D01*
X547225Y259593D01*
X546559Y260459D01*
X545693Y261125D01*
X544683Y261543D01*
X543600Y261685D01*
D02*
G37*
G36*
X533600D02*
X532517Y261543D01*
X531507Y261125D01*
X530641Y260459D01*
X529975Y259593D01*
X529557Y258583D01*
X529415Y257500D01*
X529557Y256417D01*
X529975Y255407D01*
X530641Y254540D01*
X531507Y253875D01*
X532517Y253457D01*
X533600Y253315D01*
X534683Y253457D01*
X535693Y253875D01*
X536559Y254540D01*
X537225Y255407D01*
X537643Y256417D01*
X537785Y257500D01*
X537643Y258583D01*
X537225Y259593D01*
X536559Y260459D01*
X535693Y261125D01*
X534683Y261543D01*
X533600Y261685D01*
D02*
G37*
G36*
X394000D02*
X392917Y261543D01*
X391907Y261125D01*
X391040Y260459D01*
X390375Y259593D01*
X389957Y258583D01*
X389815Y257500D01*
X389957Y256417D01*
X390375Y255407D01*
X391040Y254540D01*
X391907Y253875D01*
X392917Y253457D01*
X394000Y253315D01*
X395083Y253457D01*
X396093Y253875D01*
X396959Y254540D01*
X397625Y255407D01*
X398043Y256417D01*
X398185Y257500D01*
X398043Y258583D01*
X397625Y259593D01*
X396959Y260459D01*
X396093Y261125D01*
X395083Y261543D01*
X394000Y261685D01*
D02*
G37*
G36*
X384000D02*
X382917Y261543D01*
X381907Y261125D01*
X381041Y260459D01*
X380375Y259593D01*
X379957Y258583D01*
X379815Y257500D01*
X379957Y256417D01*
X380375Y255407D01*
X381041Y254540D01*
X381907Y253875D01*
X382917Y253457D01*
X384000Y253315D01*
X385083Y253457D01*
X386093Y253875D01*
X386960Y254540D01*
X387625Y255407D01*
X388043Y256417D01*
X388185Y257500D01*
X388043Y258583D01*
X387625Y259593D01*
X386960Y260459D01*
X386093Y261125D01*
X385083Y261543D01*
X384000Y261685D01*
D02*
G37*
G36*
X537750Y251650D02*
X529450D01*
Y243350D01*
X537750D01*
Y251650D01*
D02*
G37*
G36*
X388150D02*
X379850D01*
Y243350D01*
X388150D01*
Y251650D01*
D02*
G37*
G36*
X543600Y251685D02*
X542517Y251543D01*
X541507Y251125D01*
X540640Y250460D01*
X539975Y249593D01*
X539557Y248583D01*
X539415Y247500D01*
X539557Y246417D01*
X539975Y245407D01*
X540640Y244541D01*
X541507Y243875D01*
X542517Y243457D01*
X543600Y243315D01*
X544683Y243457D01*
X545693Y243875D01*
X546559Y244541D01*
X547225Y245407D01*
X547643Y246417D01*
X547785Y247500D01*
X547643Y248583D01*
X547225Y249593D01*
X546559Y250460D01*
X545693Y251125D01*
X544683Y251543D01*
X543600Y251685D01*
D02*
G37*
G36*
X394000D02*
X392917Y251543D01*
X391907Y251125D01*
X391040Y250460D01*
X390375Y249593D01*
X389957Y248583D01*
X389815Y247500D01*
X389957Y246417D01*
X390375Y245407D01*
X391040Y244541D01*
X391907Y243875D01*
X392917Y243457D01*
X394000Y243315D01*
X395083Y243457D01*
X396093Y243875D01*
X396959Y244541D01*
X397625Y245407D01*
X398043Y246417D01*
X398185Y247500D01*
X398043Y248583D01*
X397625Y249593D01*
X396959Y250460D01*
X396093Y251125D01*
X395083Y251543D01*
X394000Y251685D01*
D02*
G37*
G36*
X543600Y241685D02*
X542517Y241543D01*
X541507Y241125D01*
X540640Y240459D01*
X539975Y239593D01*
X539557Y238583D01*
X539415Y237500D01*
X539557Y236417D01*
X539975Y235407D01*
X540640Y234541D01*
X541507Y233875D01*
X542517Y233457D01*
X543600Y233315D01*
X544683Y233457D01*
X545693Y233875D01*
X546559Y234541D01*
X547225Y235407D01*
X547643Y236417D01*
X547785Y237500D01*
X547643Y238583D01*
X547225Y239593D01*
X546559Y240459D01*
X545693Y241125D01*
X544683Y241543D01*
X543600Y241685D01*
D02*
G37*
G36*
X533600D02*
X532517Y241543D01*
X531507Y241125D01*
X530641Y240459D01*
X529975Y239593D01*
X529557Y238583D01*
X529415Y237500D01*
X529557Y236417D01*
X529975Y235407D01*
X530641Y234541D01*
X531507Y233875D01*
X532517Y233457D01*
X533600Y233315D01*
X534683Y233457D01*
X535693Y233875D01*
X536559Y234541D01*
X537225Y235407D01*
X537643Y236417D01*
X537785Y237500D01*
X537643Y238583D01*
X537225Y239593D01*
X536559Y240459D01*
X535693Y241125D01*
X534683Y241543D01*
X533600Y241685D01*
D02*
G37*
G36*
X394000D02*
X392917Y241543D01*
X391907Y241125D01*
X391040Y240459D01*
X390375Y239593D01*
X389957Y238583D01*
X389815Y237500D01*
X389957Y236417D01*
X390375Y235407D01*
X391040Y234541D01*
X391907Y233875D01*
X392917Y233457D01*
X394000Y233315D01*
X395083Y233457D01*
X396093Y233875D01*
X396959Y234541D01*
X397625Y235407D01*
X398043Y236417D01*
X398185Y237500D01*
X398043Y238583D01*
X397625Y239593D01*
X396959Y240459D01*
X396093Y241125D01*
X395083Y241543D01*
X394000Y241685D01*
D02*
G37*
G36*
X384000D02*
X382917Y241543D01*
X381907Y241125D01*
X381041Y240459D01*
X380375Y239593D01*
X379957Y238583D01*
X379815Y237500D01*
X379957Y236417D01*
X380375Y235407D01*
X381041Y234541D01*
X381907Y233875D01*
X382917Y233457D01*
X384000Y233315D01*
X385083Y233457D01*
X386093Y233875D01*
X386960Y234541D01*
X387625Y235407D01*
X388043Y236417D01*
X388185Y237500D01*
X388043Y238583D01*
X387625Y239593D01*
X386960Y240459D01*
X386093Y241125D01*
X385083Y241543D01*
X384000Y241685D01*
D02*
G37*
G36*
X543600Y231685D02*
X542517Y231543D01*
X541507Y231125D01*
X540640Y230459D01*
X539975Y229593D01*
X539557Y228583D01*
X539415Y227500D01*
X539557Y226417D01*
X539975Y225407D01*
X540640Y224540D01*
X541507Y223875D01*
X542517Y223457D01*
X543600Y223315D01*
X544683Y223457D01*
X545693Y223875D01*
X546559Y224540D01*
X547225Y225407D01*
X547643Y226417D01*
X547785Y227500D01*
X547643Y228583D01*
X547225Y229593D01*
X546559Y230459D01*
X545693Y231125D01*
X544683Y231543D01*
X543600Y231685D01*
D02*
G37*
G36*
X533600D02*
X532517Y231543D01*
X531507Y231125D01*
X530641Y230459D01*
X529975Y229593D01*
X529557Y228583D01*
X529415Y227500D01*
X529557Y226417D01*
X529975Y225407D01*
X530641Y224540D01*
X531507Y223875D01*
X532517Y223457D01*
X533600Y223315D01*
X534683Y223457D01*
X535693Y223875D01*
X536559Y224540D01*
X537225Y225407D01*
X537643Y226417D01*
X537785Y227500D01*
X537643Y228583D01*
X537225Y229593D01*
X536559Y230459D01*
X535693Y231125D01*
X534683Y231543D01*
X533600Y231685D01*
D02*
G37*
G36*
X394000D02*
X392917Y231543D01*
X391907Y231125D01*
X391040Y230459D01*
X390375Y229593D01*
X389957Y228583D01*
X389815Y227500D01*
X389957Y226417D01*
X390375Y225407D01*
X391040Y224540D01*
X391907Y223875D01*
X392917Y223457D01*
X394000Y223315D01*
X395083Y223457D01*
X396093Y223875D01*
X396959Y224540D01*
X397625Y225407D01*
X398043Y226417D01*
X398185Y227500D01*
X398043Y228583D01*
X397625Y229593D01*
X396959Y230459D01*
X396093Y231125D01*
X395083Y231543D01*
X394000Y231685D01*
D02*
G37*
G36*
X543600Y221685D02*
X542517Y221543D01*
X541507Y221125D01*
X540640Y220460D01*
X539975Y219593D01*
X539557Y218583D01*
X539415Y217500D01*
X539557Y216417D01*
X539975Y215407D01*
X540640Y214541D01*
X541507Y213875D01*
X542517Y213457D01*
X543600Y213315D01*
X544683Y213457D01*
X545693Y213875D01*
X546559Y214541D01*
X547225Y215407D01*
X547643Y216417D01*
X547785Y217500D01*
X547643Y218583D01*
X547225Y219593D01*
X546559Y220460D01*
X545693Y221125D01*
X544683Y221543D01*
X543600Y221685D01*
D02*
G37*
G36*
X533600D02*
X532517Y221543D01*
X531507Y221125D01*
X530641Y220460D01*
X529975Y219593D01*
X529557Y218583D01*
X529415Y217500D01*
X529557Y216417D01*
X529975Y215407D01*
X530641Y214541D01*
X531507Y213875D01*
X532517Y213457D01*
X533600Y213315D01*
X534683Y213457D01*
X535693Y213875D01*
X536559Y214541D01*
X537225Y215407D01*
X537643Y216417D01*
X537785Y217500D01*
X537643Y218583D01*
X537225Y219593D01*
X536559Y220460D01*
X535693Y221125D01*
X534683Y221543D01*
X533600Y221685D01*
D02*
G37*
G36*
X543600Y211685D02*
X542517Y211543D01*
X541507Y211125D01*
X540640Y210459D01*
X539975Y209593D01*
X539557Y208583D01*
X539415Y207500D01*
X539557Y206417D01*
X539975Y205407D01*
X540640Y204540D01*
X541507Y203875D01*
X542517Y203457D01*
X543600Y203315D01*
X544683Y203457D01*
X545693Y203875D01*
X546559Y204540D01*
X547225Y205407D01*
X547643Y206417D01*
X547785Y207500D01*
X547643Y208583D01*
X547225Y209593D01*
X546559Y210459D01*
X545693Y211125D01*
X544683Y211543D01*
X543600Y211685D01*
D02*
G37*
G36*
X533600D02*
X532517Y211543D01*
X531507Y211125D01*
X530641Y210459D01*
X529975Y209593D01*
X529557Y208583D01*
X529415Y207500D01*
X529557Y206417D01*
X529975Y205407D01*
X530641Y204540D01*
X531507Y203875D01*
X532517Y203457D01*
X533600Y203315D01*
X534683Y203457D01*
X535693Y203875D01*
X536559Y204540D01*
X537225Y205407D01*
X537643Y206417D01*
X537785Y207500D01*
X537643Y208583D01*
X537225Y209593D01*
X536559Y210459D01*
X535693Y211125D01*
X534683Y211543D01*
X533600Y211685D01*
D02*
G37*
G36*
X543600Y201685D02*
X542517Y201543D01*
X541507Y201125D01*
X540640Y200460D01*
X539975Y199593D01*
X539557Y198583D01*
X539415Y197500D01*
X539557Y196417D01*
X539975Y195407D01*
X540640Y194541D01*
X541507Y193875D01*
X542517Y193457D01*
X543600Y193315D01*
X544683Y193457D01*
X545693Y193875D01*
X546559Y194541D01*
X547225Y195407D01*
X547643Y196417D01*
X547785Y197500D01*
X547643Y198583D01*
X547225Y199593D01*
X546559Y200460D01*
X545693Y201125D01*
X544683Y201543D01*
X543600Y201685D01*
D02*
G37*
G36*
X533600D02*
X532517Y201543D01*
X531507Y201125D01*
X530641Y200460D01*
X529975Y199593D01*
X529557Y198583D01*
X529415Y197500D01*
X529557Y196417D01*
X529975Y195407D01*
X530641Y194541D01*
X531507Y193875D01*
X532517Y193457D01*
X533600Y193315D01*
X534683Y193457D01*
X535693Y193875D01*
X536559Y194541D01*
X537225Y195407D01*
X537643Y196417D01*
X537785Y197500D01*
X537643Y198583D01*
X537225Y199593D01*
X536559Y200460D01*
X535693Y201125D01*
X534683Y201543D01*
X533600Y201685D01*
D02*
G37*
G36*
X543600Y191685D02*
X542517Y191543D01*
X541507Y191125D01*
X540640Y190460D01*
X539975Y189593D01*
X539557Y188583D01*
X539415Y187500D01*
X539557Y186417D01*
X539975Y185407D01*
X540640Y184540D01*
X541507Y183875D01*
X542517Y183457D01*
X543600Y183315D01*
X544683Y183457D01*
X545693Y183875D01*
X546559Y184540D01*
X547225Y185407D01*
X547643Y186417D01*
X547785Y187500D01*
X547643Y188583D01*
X547225Y189593D01*
X546559Y190460D01*
X545693Y191125D01*
X544683Y191543D01*
X543600Y191685D01*
D02*
G37*
G36*
X533600D02*
X532517Y191543D01*
X531507Y191125D01*
X530641Y190460D01*
X529975Y189593D01*
X529557Y188583D01*
X529415Y187500D01*
X529557Y186417D01*
X529975Y185407D01*
X530641Y184540D01*
X531507Y183875D01*
X532517Y183457D01*
X533600Y183315D01*
X534683Y183457D01*
X535693Y183875D01*
X536559Y184540D01*
X537225Y185407D01*
X537643Y186417D01*
X537785Y187500D01*
X537643Y188583D01*
X537225Y189593D01*
X536559Y190460D01*
X535693Y191125D01*
X534683Y191543D01*
X533600Y191685D01*
D02*
G37*
G36*
X543600Y181685D02*
X542517Y181543D01*
X541507Y181125D01*
X540640Y180459D01*
X539975Y179593D01*
X539557Y178583D01*
X539415Y177500D01*
X539557Y176417D01*
X539975Y175407D01*
X540640Y174540D01*
X541507Y173875D01*
X542517Y173457D01*
X543600Y173315D01*
X544683Y173457D01*
X545693Y173875D01*
X546559Y174540D01*
X547225Y175407D01*
X547643Y176417D01*
X547785Y177500D01*
X547643Y178583D01*
X547225Y179593D01*
X546559Y180459D01*
X545693Y181125D01*
X544683Y181543D01*
X543600Y181685D01*
D02*
G37*
G36*
X533600D02*
X532517Y181543D01*
X531507Y181125D01*
X530641Y180459D01*
X529975Y179593D01*
X529557Y178583D01*
X529415Y177500D01*
X529557Y176417D01*
X529975Y175407D01*
X530641Y174540D01*
X531507Y173875D01*
X532517Y173457D01*
X533600Y173315D01*
X534683Y173457D01*
X535693Y173875D01*
X536559Y174540D01*
X537225Y175407D01*
X537643Y176417D01*
X537785Y177500D01*
X537643Y178583D01*
X537225Y179593D01*
X536559Y180459D01*
X535693Y181125D01*
X534683Y181543D01*
X533600Y181685D01*
D02*
G37*
G36*
X251000Y166520D02*
X235131D01*
X235045Y166502D01*
X234957Y166505D01*
X234851Y166464D01*
X234740Y166442D01*
X234668Y166393D01*
X234586Y166362D01*
X234504Y166284D01*
X234410Y166221D01*
X234361Y166148D01*
X234297Y166088D01*
X234251Y165984D01*
X234189Y165890D01*
X234172Y165804D01*
X234136Y165724D01*
X232228Y157251D01*
X231730Y157209D01*
X231490Y157788D01*
X230604Y158942D01*
X229449Y159828D01*
X228804Y160096D01*
X228664Y160434D01*
X228188Y161054D01*
X227568Y161530D01*
X226846Y161829D01*
X226071Y161931D01*
X222134D01*
X221359Y161829D01*
X220637Y161530D01*
X220017Y161054D01*
X219541Y160434D01*
X219401Y160096D01*
X218756Y159828D01*
X217601Y158942D01*
X216715Y157788D01*
X216158Y156443D01*
X215968Y155000D01*
X216158Y153557D01*
X216715Y152212D01*
X217601Y151058D01*
X218756Y150172D01*
X219401Y149905D01*
X219541Y149566D01*
X220017Y148946D01*
X220637Y148470D01*
X221359Y148171D01*
X222134Y148069D01*
X226071D01*
X226846Y148171D01*
X227568Y148470D01*
X228188Y148946D01*
X228664Y149566D01*
X228804Y149905D01*
X229449Y150172D01*
X230261Y150795D01*
X230709Y150508D01*
X221048Y107615D01*
X221047Y107557D01*
X221029Y107503D01*
X221042Y107360D01*
X221038Y107217D01*
X221059Y107164D01*
X221063Y107107D01*
X221130Y106979D01*
X221181Y106845D01*
X221220Y106804D01*
X221247Y106754D01*
X221559Y106363D01*
X221603Y106326D01*
X221634Y106279D01*
X221754Y106199D01*
X221863Y106107D01*
X221918Y106090D01*
X221965Y106058D01*
X222106Y106030D01*
X222242Y105987D01*
X222299Y105991D01*
X222355Y105980D01*
X240000Y105980D01*
X240390Y106058D01*
X240721Y106279D01*
X240942Y106610D01*
X241020Y107000D01*
Y137480D01*
X250500D01*
X250890Y137558D01*
X251221Y137779D01*
X251721Y138279D01*
X251942Y138610D01*
X252020Y139000D01*
Y165500D01*
X251942Y165890D01*
X251721Y166221D01*
X251390Y166442D01*
X251000Y166520D01*
D02*
G37*
G36*
X543600Y171685D02*
X542517Y171543D01*
X541507Y171125D01*
X540640Y170459D01*
X539975Y169593D01*
X539557Y168583D01*
X539415Y167500D01*
X539557Y166417D01*
X539975Y165407D01*
X540640Y164541D01*
X540692Y164501D01*
X540511Y164056D01*
X540485Y164029D01*
X536671D01*
X536511Y164503D01*
X536559Y164541D01*
X537225Y165407D01*
X537643Y166417D01*
X537785Y167500D01*
X537643Y168583D01*
X537225Y169593D01*
X536559Y170459D01*
X535693Y171125D01*
X534683Y171543D01*
X533600Y171685D01*
X532517Y171543D01*
X531507Y171125D01*
X530641Y170459D01*
X529975Y169593D01*
X529557Y168583D01*
X529415Y167500D01*
X529557Y166417D01*
X529975Y165407D01*
X530641Y164541D01*
X530689Y164503D01*
X530529Y164029D01*
X492775D01*
X492190Y163913D01*
X491694Y163581D01*
X477687Y149575D01*
X473850D01*
Y144425D01*
X475471D01*
Y137500D01*
X474250D01*
Y132500D01*
X475471D01*
Y113161D01*
X470213Y107903D01*
X469352Y108260D01*
X468114Y108423D01*
X466877Y108260D01*
X465724Y107782D01*
X464734Y107022D01*
X463974Y106032D01*
X463496Y104879D01*
X463333Y103642D01*
X463496Y102404D01*
X463974Y101251D01*
X464734Y100261D01*
X465724Y99501D01*
X466877Y99024D01*
X468114Y98861D01*
X469352Y99024D01*
X470505Y99501D01*
X471495Y100261D01*
X472255Y101251D01*
X472611Y102112D01*
X490389D01*
X490745Y101251D01*
X491505Y100261D01*
X492495Y99501D01*
X493648Y99024D01*
X494886Y98861D01*
X496123Y99024D01*
X497276Y99501D01*
X498267Y100261D01*
X499026Y101251D01*
X499504Y102404D01*
X499667Y103642D01*
X499504Y104879D01*
X499026Y106032D01*
X498267Y107022D01*
X497276Y107782D01*
X496123Y108260D01*
X494886Y108423D01*
X493648Y108260D01*
X492495Y107782D01*
X491505Y107022D01*
X490745Y106032D01*
X490389Y105171D01*
X472611D01*
X472376Y105740D01*
X478081Y111446D01*
X478413Y111942D01*
X478529Y112528D01*
Y132500D01*
X479750D01*
Y137500D01*
X478529D01*
Y144425D01*
X479850D01*
Y147412D01*
X480688Y148250D01*
X481150Y148059D01*
Y144425D01*
X487150D01*
Y149575D01*
X482666D01*
X482475Y150037D01*
X493409Y160971D01*
X530529D01*
X530689Y160497D01*
X530641Y160459D01*
X529975Y159593D01*
X529742Y159029D01*
X526000D01*
X525415Y158913D01*
X524919Y158581D01*
X515769Y149431D01*
X515437Y148935D01*
X515321Y148350D01*
Y145075D01*
X513850D01*
Y139925D01*
X515471D01*
Y134000D01*
X514250D01*
Y129000D01*
X515221D01*
Y109383D01*
X512918Y107081D01*
X512005Y107782D01*
X510852Y108260D01*
X509614Y108423D01*
X508377Y108260D01*
X507224Y107782D01*
X506234Y107022D01*
X505474Y106032D01*
X504996Y104879D01*
X504833Y103642D01*
X504996Y102404D01*
X505474Y101251D01*
X506234Y100261D01*
X507224Y99501D01*
X508377Y99024D01*
X509614Y98861D01*
X510852Y99024D01*
X512005Y99501D01*
X512995Y100261D01*
X513755Y101251D01*
X514111Y102112D01*
X531889D01*
X532245Y101251D01*
X533005Y100261D01*
X533995Y99501D01*
X535148Y99024D01*
X536386Y98861D01*
X537623Y99024D01*
X538776Y99501D01*
X539767Y100261D01*
X540526Y101251D01*
X541004Y102404D01*
X541167Y103642D01*
X541004Y104879D01*
X540526Y106032D01*
X539767Y107022D01*
X538776Y107782D01*
X537623Y108260D01*
X536386Y108423D01*
X535148Y108260D01*
X533995Y107782D01*
X533005Y107022D01*
X532245Y106032D01*
X531889Y105171D01*
X515987D01*
X515796Y105633D01*
X517831Y107669D01*
X518163Y108165D01*
X518279Y108750D01*
Y129000D01*
X519750D01*
Y134000D01*
X518529D01*
Y139925D01*
X519850D01*
Y145075D01*
X518379D01*
Y147716D01*
X526634Y155971D01*
X529742D01*
X529975Y155407D01*
X530641Y154541D01*
X531507Y153875D01*
X532517Y153457D01*
X533600Y153315D01*
X534683Y153457D01*
X535693Y153875D01*
X536559Y154541D01*
X537225Y155407D01*
X537643Y156417D01*
X537785Y157500D01*
X537643Y158583D01*
X537225Y159593D01*
X536559Y160459D01*
X536511Y160497D01*
X536671Y160971D01*
X539866D01*
X540526Y160311D01*
X539975Y159593D01*
X539557Y158583D01*
X539415Y157500D01*
X539557Y156417D01*
X539975Y155407D01*
X540640Y154541D01*
X541507Y153875D01*
X542517Y153457D01*
X543600Y153315D01*
X544683Y153457D01*
X545693Y153875D01*
X546559Y154541D01*
X547225Y155407D01*
X547643Y156417D01*
X547785Y157500D01*
X547643Y158583D01*
X547225Y159593D01*
X546559Y160459D01*
X545693Y161125D01*
X544683Y161543D01*
X543600Y161685D01*
X543492Y161671D01*
X542056Y163107D01*
X542339Y163531D01*
X542517Y163457D01*
X543600Y163315D01*
X544683Y163457D01*
X545693Y163875D01*
X546559Y164541D01*
X547225Y165407D01*
X547643Y166417D01*
X547785Y167500D01*
X547643Y168583D01*
X547225Y169593D01*
X546559Y170459D01*
X545693Y171125D01*
X544683Y171543D01*
X543600Y171685D01*
D02*
G37*
G36*
X394000D02*
X392917Y171543D01*
X391907Y171125D01*
X391040Y170459D01*
X390375Y169593D01*
X389957Y168583D01*
X389815Y167500D01*
X389957Y166417D01*
X390375Y165407D01*
X391040Y164541D01*
X391907Y163875D01*
X392917Y163457D01*
X394000Y163315D01*
X395083Y163457D01*
X396093Y163875D01*
X396959Y164541D01*
X397625Y165407D01*
X398043Y166417D01*
X398185Y167500D01*
X398043Y168583D01*
X397625Y169593D01*
X396959Y170459D01*
X396093Y171125D01*
X395083Y171543D01*
X394000Y171685D01*
D02*
G37*
G36*
Y161685D02*
X392917Y161543D01*
X391907Y161125D01*
X391040Y160459D01*
X390375Y159593D01*
X389957Y158583D01*
X389815Y157500D01*
X389957Y156417D01*
X390375Y155407D01*
X391040Y154541D01*
X391907Y153875D01*
X392917Y153457D01*
X394000Y153315D01*
X395083Y153457D01*
X396093Y153875D01*
X396959Y154541D01*
X397625Y155407D01*
X398043Y156417D01*
X398185Y157500D01*
X398043Y158583D01*
X397625Y159593D01*
X396959Y160459D01*
X396093Y161125D01*
X395083Y161543D01*
X394000Y161685D01*
D02*
G37*
G36*
X543600Y151685D02*
X542517Y151543D01*
X541507Y151125D01*
X540640Y150460D01*
X539975Y149593D01*
X539557Y148583D01*
X539415Y147500D01*
X539557Y146417D01*
X539975Y145407D01*
X540640Y144541D01*
X541507Y143875D01*
X542517Y143457D01*
X543600Y143315D01*
X544683Y143457D01*
X545693Y143875D01*
X546559Y144541D01*
X547225Y145407D01*
X547643Y146417D01*
X547785Y147500D01*
X547643Y148583D01*
X547225Y149593D01*
X546559Y150460D01*
X545693Y151125D01*
X544683Y151543D01*
X543600Y151685D01*
D02*
G37*
G36*
X394000D02*
X392917Y151543D01*
X391907Y151125D01*
X391040Y150460D01*
X390375Y149593D01*
X389957Y148583D01*
X389815Y147500D01*
X389957Y146417D01*
X390375Y145407D01*
X391040Y144541D01*
X391907Y143875D01*
X392917Y143457D01*
X394000Y143315D01*
X395083Y143457D01*
X396093Y143875D01*
X396959Y144541D01*
X397625Y145407D01*
X398043Y146417D01*
X398185Y147500D01*
X398043Y148583D01*
X397625Y149593D01*
X396959Y150460D01*
X396093Y151125D01*
X395083Y151543D01*
X394000Y151685D01*
D02*
G37*
G36*
X527150Y145075D02*
X521150D01*
Y139925D01*
X527150D01*
Y145075D01*
D02*
G37*
G36*
X543600Y141685D02*
X542517Y141543D01*
X541507Y141125D01*
X540640Y140460D01*
X539975Y139593D01*
X539557Y138583D01*
X539415Y137500D01*
X539557Y136417D01*
X539975Y135407D01*
X540640Y134540D01*
X541507Y133875D01*
X542517Y133457D01*
X543600Y133315D01*
X544683Y133457D01*
X545693Y133875D01*
X546559Y134540D01*
X547225Y135407D01*
X547643Y136417D01*
X547785Y137500D01*
X547643Y138583D01*
X547225Y139593D01*
X546559Y140460D01*
X545693Y141125D01*
X544683Y141543D01*
X543600Y141685D01*
D02*
G37*
G36*
X394000D02*
X392917Y141543D01*
X391907Y141125D01*
X391040Y140460D01*
X390375Y139593D01*
X389957Y138583D01*
X389815Y137500D01*
X389957Y136417D01*
X390375Y135407D01*
X391040Y134540D01*
X391907Y133875D01*
X392917Y133457D01*
X394000Y133315D01*
X395083Y133457D01*
X396093Y133875D01*
X396959Y134540D01*
X397625Y135407D01*
X398043Y136417D01*
X398185Y137500D01*
X398043Y138583D01*
X397625Y139593D01*
X396959Y140460D01*
X396093Y141125D01*
X395083Y141543D01*
X394000Y141685D01*
D02*
G37*
G36*
X374911Y151531D02*
X364089D01*
Y141470D01*
X368951D01*
Y126556D01*
X365395Y123000D01*
X361000D01*
Y118605D01*
X359476Y117080D01*
X353857D01*
X353435Y117631D01*
X352527Y118328D01*
X351469Y118766D01*
X350335Y118915D01*
X349200Y118766D01*
X348143Y118328D01*
X347235Y117631D01*
X346538Y116724D01*
X346100Y115666D01*
X345951Y114532D01*
X346100Y113397D01*
X346538Y112339D01*
X346804Y111992D01*
Y108878D01*
X345988D01*
Y100185D01*
X354681D01*
Y108878D01*
X353865D01*
Y111983D01*
X360531D01*
X361507Y112177D01*
X362334Y112729D01*
X365605Y116000D01*
X368000D01*
Y118395D01*
X373302Y123698D01*
X373855Y124524D01*
X374049Y125500D01*
Y141470D01*
X374911D01*
Y151531D01*
D02*
G37*
G36*
X445000Y118884D02*
X443865Y118735D01*
X442808Y118297D01*
X441900Y117600D01*
X441203Y116692D01*
X440765Y115635D01*
X440616Y114500D01*
X440765Y113365D01*
X441203Y112308D01*
X441900Y111400D01*
X442808Y110703D01*
X443865Y110265D01*
X445000Y110116D01*
X446135Y110265D01*
X447192Y110703D01*
X448100Y111400D01*
X448797Y112308D01*
X449235Y113365D01*
X449384Y114500D01*
X449235Y115635D01*
X448797Y116692D01*
X448100Y117600D01*
X447192Y118297D01*
X446135Y118735D01*
X445000Y118884D01*
D02*
G37*
%LPD*%
G36*
X281360Y432360D02*
X281987Y431880D01*
X282717Y431577D01*
X283155Y431520D01*
X283122Y431020D01*
X263343D01*
Y432142D01*
X264019Y432818D01*
X281010D01*
X281360Y432360D01*
D02*
G37*
G36*
X294470Y428004D02*
X290701D01*
Y419508D01*
X296318D01*
Y416500D01*
X296446Y415856D01*
X296810Y415310D01*
X301026Y411095D01*
X301268Y410750D01*
X301026Y410405D01*
X296810Y406190D01*
X296446Y405644D01*
X296318Y405000D01*
Y402492D01*
X290701D01*
Y393996D01*
X292970D01*
Y381500D01*
X247030D01*
Y392996D01*
X250799D01*
Y401492D01*
X245182D01*
Y404303D01*
X247697Y406818D01*
X260303D01*
X262539Y404582D01*
Y400874D01*
X262493Y400643D01*
Y396309D01*
X262624Y395647D01*
X262999Y395087D01*
X263560Y394712D01*
X264221Y394581D01*
X264882Y394712D01*
X265443Y395087D01*
X265558D01*
X266119Y394712D01*
X266780Y394581D01*
X267441Y394712D01*
X268002Y395087D01*
X268377Y395647D01*
X268508Y396309D01*
Y400643D01*
X268462Y400874D01*
Y405973D01*
X268462Y405973D01*
X268334Y406616D01*
X267970Y407162D01*
X263142Y411990D01*
X262597Y412354D01*
X261953Y412482D01*
X247397D01*
X245182Y414697D01*
Y418508D01*
X250799D01*
Y427004D01*
X247030D01*
Y430000D01*
X259979D01*
Y423921D01*
X259933Y423691D01*
Y419357D01*
X260064Y418695D01*
X260439Y418135D01*
X261000Y417760D01*
X261661Y417629D01*
X262322Y417760D01*
X262883Y418135D01*
X263258Y418695D01*
X263389Y419357D01*
Y423691D01*
X263343Y423921D01*
Y430000D01*
X294470D01*
Y428004D01*
D02*
G37*
G36*
X239970Y427004D02*
X236201D01*
Y418508D01*
X241818D01*
Y414000D01*
X241946Y413356D01*
X242310Y412810D01*
X245267Y409854D01*
X245313Y409192D01*
X242310Y406190D01*
X241946Y405644D01*
X241818Y405000D01*
Y401492D01*
X236201D01*
Y392996D01*
X239970D01*
Y381500D01*
X192530D01*
Y394252D01*
X196299D01*
Y402748D01*
X190182D01*
Y406803D01*
X192697Y409318D01*
X201745D01*
X205539Y405524D01*
Y400874D01*
X205493Y400643D01*
Y396309D01*
X205624Y395647D01*
X205999Y395087D01*
X206560Y394712D01*
X207221Y394581D01*
X207882Y394712D01*
X208443Y395087D01*
X208558D01*
X209119Y394712D01*
X209780Y394581D01*
X210441Y394712D01*
X211002Y395087D01*
X211377Y395647D01*
X211508Y396309D01*
Y400643D01*
X211462Y400874D01*
Y406915D01*
X211334Y407558D01*
X210970Y408104D01*
X203884Y415190D01*
X203339Y415554D01*
X202695Y415682D01*
X192197D01*
X190682Y417197D01*
Y419764D01*
X196299D01*
Y428260D01*
X192530D01*
Y430000D01*
X202979D01*
Y423921D01*
X202933Y423691D01*
Y419357D01*
X203064Y418695D01*
X203439Y418135D01*
X204000Y417760D01*
X204661Y417629D01*
X205322Y417760D01*
X205883Y418135D01*
X206258Y418695D01*
X206389Y419357D01*
Y423691D01*
X206343Y423921D01*
Y430000D01*
X239970D01*
Y427004D01*
D02*
G37*
G36*
X341471Y428500D02*
Y419633D01*
X338962Y417125D01*
X338500Y417316D01*
Y418500D01*
X333663D01*
X329057Y423105D01*
X328561Y423437D01*
X327976Y423553D01*
X324567D01*
Y424191D01*
X324436Y424853D01*
X324061Y425413D01*
X323500Y425788D01*
X322839Y425919D01*
X322178Y425788D01*
X321617Y425413D01*
X321502D01*
X320941Y425788D01*
X320280Y425919D01*
X319619Y425788D01*
X319058Y425413D01*
X318683Y424853D01*
X318552Y424191D01*
Y419857D01*
X318683Y419195D01*
X319058Y418635D01*
X319619Y418260D01*
X320280Y418129D01*
X320941Y418260D01*
X321502Y418635D01*
X321617D01*
X322178Y418260D01*
X322839Y418129D01*
X323500Y418260D01*
X324061Y418635D01*
X324436Y419195D01*
X324567Y419857D01*
Y420495D01*
X327343D01*
X331500Y416337D01*
Y411500D01*
X338500D01*
Y413471D01*
X339000D01*
X339585Y413587D01*
X340081Y413919D01*
X343038Y416875D01*
X343500Y416684D01*
Y395682D01*
X340363D01*
X316861Y419185D01*
Y419713D01*
X316889Y419857D01*
Y424191D01*
X316758Y424853D01*
X316383Y425413D01*
X315822Y425788D01*
X315161Y425919D01*
X314500Y425788D01*
X313939Y425413D01*
X313564Y424853D01*
X313433Y424191D01*
Y419857D01*
X313496Y419540D01*
Y418488D01*
X313624Y417845D01*
X313989Y417299D01*
X317180Y414107D01*
X316934Y413646D01*
X316753Y413682D01*
X303197D01*
X299682Y417197D01*
Y419508D01*
X305299D01*
Y427996D01*
X305307Y428309D01*
X305500Y428474D01*
X306283Y428577D01*
X307013Y428879D01*
X307640Y429360D01*
X308108Y429971D01*
X341471D01*
Y428500D01*
D02*
G37*
G36*
X338477Y392810D02*
X338477Y392810D01*
X339023Y392446D01*
X339667Y392318D01*
X343500D01*
Y381500D01*
X300030D01*
Y393996D01*
X305299D01*
Y402492D01*
X299682D01*
Y404303D01*
X303197Y407818D01*
X315303D01*
X316039Y407082D01*
Y401373D01*
X315993Y401143D01*
Y396809D01*
X316124Y396147D01*
X316499Y395587D01*
X317060Y395212D01*
X317721Y395081D01*
X318382Y395212D01*
X318943Y395587D01*
X319058D01*
X319619Y395212D01*
X320280Y395081D01*
X320941Y395212D01*
X321502Y395587D01*
X321877Y396147D01*
X322008Y396809D01*
Y401143D01*
X321962Y401373D01*
Y408473D01*
X321926Y408654D01*
X322387Y408900D01*
X338477Y392810D01*
D02*
G37*
G36*
X185470Y428260D02*
X181701D01*
Y419764D01*
X187318D01*
Y416500D01*
X187446Y415856D01*
X187810Y415310D01*
X190310Y412810D01*
X190310Y412810D01*
X190575Y412634D01*
X190616Y412557D01*
X190639Y412018D01*
X187310Y408690D01*
X186946Y408144D01*
X186818Y407500D01*
Y402748D01*
X181701D01*
Y394252D01*
X185470D01*
Y381500D01*
X174000D01*
X172962Y380462D01*
X172500Y380653D01*
Y430000D01*
X185470D01*
Y428260D01*
D02*
G37*
G36*
X281750Y349000D02*
X248250D01*
Y365000D01*
X281750D01*
Y349000D01*
D02*
G37*
G36*
X335500Y348500D02*
X301500D01*
Y364500D01*
X335500D01*
Y348500D01*
D02*
G37*
G36*
X239970Y348020D02*
X229020D01*
Y364000D01*
X228942Y364390D01*
X228721Y364721D01*
X228390Y364942D01*
X228000Y365020D01*
X193500D01*
X193110Y364942D01*
X193030Y364889D01*
X192530Y365156D01*
Y380480D01*
X239970D01*
Y348020D01*
D02*
G37*
G36*
X228000Y347098D02*
X227980Y347000D01*
Y346000D01*
X193500D01*
Y364000D01*
X228000D01*
Y347098D01*
D02*
G37*
G36*
X315500Y314000D02*
X296000Y314000D01*
X296000Y296000D01*
X283500Y296000D01*
X283500Y346500D01*
X315500Y346500D01*
X315500Y314000D01*
D02*
G37*
G36*
X227980Y313175D02*
X227480Y312831D01*
X227350Y312857D01*
X205329D01*
X204991Y313357D01*
X205020Y313500D01*
X205020Y344980D01*
X227980D01*
Y313175D01*
D02*
G37*
G36*
X227350Y295837D02*
X192350D01*
Y311838D01*
X227350D01*
Y295837D01*
D02*
G37*
G36*
X335299Y295784D02*
X300299D01*
Y311784D01*
X335299D01*
Y295784D01*
D02*
G37*
G36*
X280799Y295744D02*
X245799D01*
Y311744D01*
X280799D01*
Y295744D01*
D02*
G37*
G36*
X193402Y345000D02*
X193500Y344980D01*
X204000D01*
X204000Y313500D01*
X188500D01*
X188000Y313000D01*
Y295500D01*
X173000D01*
Y345000D01*
X193402Y345000D01*
D02*
G37*
G36*
X262500Y313500D02*
X241500D01*
Y295000D01*
X229000D01*
Y347000D01*
X262500D01*
Y313500D01*
D02*
G37*
G36*
X191359Y311980D02*
X191330Y311838D01*
Y295837D01*
X191408Y295447D01*
X191629Y295116D01*
X191960Y294896D01*
X192350Y294818D01*
X227350D01*
X227740Y294896D01*
X228106Y294538D01*
X228279Y294279D01*
X228610Y294058D01*
X229000Y293980D01*
X229754D01*
X229803Y293480D01*
X229610Y293442D01*
X229279Y293221D01*
X229058Y292890D01*
X228980Y292500D01*
Y271520D01*
X207520D01*
X207520Y293000D01*
X207442Y293390D01*
X207221Y293721D01*
X206890Y293942D01*
X206500Y294020D01*
X188246D01*
X188197Y294520D01*
X188390Y294558D01*
X188721Y294779D01*
X188942Y295110D01*
X189020Y295500D01*
Y312480D01*
X191021D01*
X191359Y311980D01*
D02*
G37*
G36*
X380778Y220117D02*
X380375Y219593D01*
X379957Y218583D01*
X379815Y217500D01*
X379957Y216417D01*
X380375Y215407D01*
X381041Y214541D01*
X381151Y214455D01*
X380991Y213982D01*
X355614D01*
X355407Y214482D01*
X361543Y220617D01*
X380531D01*
X380778Y220117D01*
D02*
G37*
G36*
X206500Y293000D02*
X206500Y270500D01*
X230000D01*
Y292500D01*
X260000D01*
Y270500D01*
X285000D01*
Y292500D01*
X313500D01*
Y270500D01*
X362500D01*
X362500Y240500D01*
X213500Y240500D01*
Y213000D01*
X192520Y213000D01*
Y252500D01*
X192500Y252599D01*
Y255500D01*
X192500Y255500D01*
X169500Y255500D01*
Y293000D01*
X206500Y293000D01*
D02*
G37*
G36*
X366290Y207216D02*
X366004Y206996D01*
X365443Y206265D01*
X365090Y205414D01*
X365007Y204784D01*
X300121D01*
X300121Y204784D01*
X299439Y204648D01*
X298860Y204262D01*
X298860Y204262D01*
X297922Y203324D01*
X297460Y203516D01*
Y205437D01*
X299739Y207716D01*
X366120D01*
X366290Y207216D01*
D02*
G37*
G36*
X296491Y213318D02*
X292087Y208913D01*
X291722Y208368D01*
X291594Y207724D01*
Y196640D01*
X291094Y196230D01*
X290910Y196266D01*
X289879D01*
Y209000D01*
X294697Y213818D01*
X296284D01*
X296491Y213318D01*
D02*
G37*
G36*
X274500Y179000D02*
X280977D01*
X282111Y177866D01*
X282690Y177479D01*
X283372Y177343D01*
X288163D01*
X288503Y177411D01*
X290910D01*
X291247Y177478D01*
X291796Y177133D01*
X291817Y176977D01*
X292119Y176247D01*
X292156Y176200D01*
X291909Y175700D01*
X291379D01*
X290910Y175793D01*
X285484D01*
X284815Y175660D01*
X284247Y175281D01*
X283867Y174713D01*
X283734Y174043D01*
X283867Y173373D01*
X284247Y172805D01*
Y172722D01*
X283867Y172154D01*
X283734Y171484D01*
X283867Y170814D01*
X284247Y170246D01*
X284815Y169867D01*
X285484Y169734D01*
X290910D01*
X291331Y169818D01*
X292129D01*
X294818Y167129D01*
Y165490D01*
X294360Y165140D01*
X293880Y164513D01*
X293577Y163783D01*
X293474Y163000D01*
X293577Y162217D01*
X293880Y161487D01*
X294360Y160860D01*
X294987Y160380D01*
X295717Y160077D01*
X296500Y159974D01*
X297283Y160077D01*
X298013Y160380D01*
X298640Y160860D01*
X299120Y161487D01*
X299423Y162217D01*
X299526Y163000D01*
X299423Y163783D01*
X299120Y164513D01*
X298640Y165140D01*
X298182Y165490D01*
Y166364D01*
X298644Y166555D01*
X303049Y162150D01*
X302974Y161579D01*
X303077Y160796D01*
X303380Y160066D01*
X303860Y159439D01*
X304487Y158958D01*
X305217Y158656D01*
X306000Y158553D01*
X306783Y158656D01*
X307513Y158958D01*
X308140Y159439D01*
X308621Y160066D01*
X308923Y160796D01*
X309026Y161579D01*
X308923Y162362D01*
X308621Y163092D01*
X308160Y163692D01*
X308142Y163730D01*
X308244Y164268D01*
X308513Y164380D01*
X309140Y164860D01*
X309620Y165487D01*
X309923Y166217D01*
X310026Y167000D01*
X309923Y167783D01*
X309620Y168513D01*
X309140Y169140D01*
X309017Y169234D01*
X309187Y169734D01*
X313516D01*
X313857Y169802D01*
X314330D01*
X316303Y167829D01*
X316077Y167283D01*
X315974Y166500D01*
X316077Y165717D01*
X316379Y164987D01*
X316860Y164360D01*
X317487Y163880D01*
X318217Y163577D01*
X319000Y163474D01*
X319783Y163577D01*
X320513Y163880D01*
X321140Y164360D01*
X321620Y164987D01*
X321923Y165717D01*
X322026Y166500D01*
X321923Y167283D01*
X321620Y168013D01*
X321140Y168640D01*
X320513Y169121D01*
X319783Y169423D01*
X319420Y169471D01*
X318245Y170646D01*
X318292Y170786D01*
X318458Y171139D01*
X319143Y171423D01*
X319770Y171903D01*
X320042Y172259D01*
X321000D01*
Y169500D01*
X328000D01*
Y175466D01*
X328511D01*
X330000Y173977D01*
Y169500D01*
X337000D01*
Y171216D01*
X342517D01*
X342807Y170925D01*
X343954D01*
X344145Y170463D01*
X300476Y126794D01*
X287520D01*
Y128500D01*
X287442Y128890D01*
X287221Y129221D01*
X286890Y129442D01*
X286500Y129520D01*
X280422D01*
X271020Y138922D01*
Y165000D01*
X270942Y165390D01*
X270721Y165721D01*
X270390Y165942D01*
X270000Y166020D01*
X265020D01*
Y180636D01*
X265500Y181116D01*
X266000Y180982D01*
Y179000D01*
X273000D01*
Y181211D01*
X274500D01*
Y179000D01*
D02*
G37*
G36*
X301244Y180657D02*
Y175926D01*
X301217Y175923D01*
X300487Y175620D01*
X299860Y175140D01*
X299379Y174513D01*
X299077Y173783D01*
X298974Y173000D01*
X299077Y172217D01*
X299379Y171487D01*
X299860Y170860D01*
X300487Y170379D01*
X301217Y170077D01*
X302000Y169974D01*
X302783Y170077D01*
X303513Y170379D01*
X303593Y170441D01*
X304042Y170220D01*
Y168276D01*
X304119Y167885D01*
X304077Y167783D01*
X303974Y167000D01*
X304021Y166644D01*
X303547Y166411D01*
X295582Y174376D01*
X295738Y174927D01*
X296252Y175140D01*
X296879Y175621D01*
X297360Y176247D01*
X297662Y176977D01*
X297765Y177760D01*
X297751Y177872D01*
X300744Y180865D01*
X301244Y180657D01*
D02*
G37*
G36*
X191500Y106000D02*
X165024D01*
Y252500D01*
X191500D01*
Y106000D01*
D02*
G37*
G36*
X238500Y238000D02*
Y210000D01*
X254500D01*
X254500Y210000D01*
X264000Y210000D01*
X264000Y165000D01*
X270000D01*
Y138500D01*
X280000Y128500D01*
X286500D01*
Y98500D01*
X284500Y96500D01*
X270500D01*
Y131000D01*
X264000Y137500D01*
X254500D01*
Y165000D01*
X254500D01*
X254500Y181000D01*
X215000D01*
Y238500D01*
X238000D01*
X238500Y238000D01*
D02*
G37*
%LPC*%
G36*
X269339Y425419D02*
X268678Y425288D01*
X268117Y424913D01*
X268002D01*
X267441Y425288D01*
X266780Y425419D01*
X266119Y425288D01*
X265558Y424913D01*
X265183Y424353D01*
X265052Y423691D01*
Y419357D01*
X265183Y418695D01*
X265558Y418135D01*
X266119Y417760D01*
X266780Y417629D01*
X267441Y417760D01*
X268002Y418135D01*
X268117D01*
X268678Y417760D01*
X269339Y417629D01*
X270000Y417760D01*
X270561Y418135D01*
X270936Y418695D01*
X271067Y419357D01*
Y419995D01*
X273843D01*
X278000Y415837D01*
Y411000D01*
X285000D01*
Y418000D01*
X280163D01*
X275557Y422605D01*
X275061Y422937D01*
X274476Y423053D01*
X271067D01*
Y423691D01*
X270936Y424353D01*
X270561Y424913D01*
X270000Y425288D01*
X269339Y425419D01*
D02*
G37*
G36*
X212339D02*
X211678Y425288D01*
X211117Y424913D01*
X211002D01*
X210441Y425288D01*
X209780Y425419D01*
X209119Y425288D01*
X208558Y424913D01*
X208183Y424353D01*
X208052Y423691D01*
Y419357D01*
X208183Y418695D01*
X208558Y418135D01*
X209119Y417760D01*
X209780Y417629D01*
X210441Y417760D01*
X211002Y418135D01*
X211117D01*
X211678Y417760D01*
X212339Y417629D01*
X213000Y417760D01*
X213561Y418135D01*
X213936Y418695D01*
X214067Y419357D01*
Y419995D01*
X215843D01*
X220919Y414919D01*
X221415Y414587D01*
X221500Y414570D01*
Y410500D01*
X228500D01*
Y413803D01*
X228526Y414000D01*
X228500Y414197D01*
Y417500D01*
X223148D01*
X223000Y417529D01*
X222634D01*
X217557Y422605D01*
X217061Y422937D01*
X216476Y423053D01*
X214067D01*
Y423691D01*
X213936Y424353D01*
X213561Y424913D01*
X213000Y425288D01*
X212339Y425419D01*
D02*
G37*
G36*
X224299Y333748D02*
X209701D01*
Y325252D01*
X224299D01*
Y333748D01*
D02*
G37*
G36*
X226299Y281492D02*
X211701D01*
Y272996D01*
X226299D01*
Y281492D01*
D02*
G37*
G36*
X198000Y290464D02*
Y287500D01*
X200964D01*
X200910Y287914D01*
X200557Y288765D01*
X199996Y289496D01*
X199265Y290057D01*
X198414Y290410D01*
X198000Y290464D01*
D02*
G37*
G36*
X197000D02*
X196586Y290410D01*
X195735Y290057D01*
X195004Y289496D01*
X194443Y288765D01*
X194090Y287914D01*
X194036Y287500D01*
X197000D01*
Y290464D01*
D02*
G37*
G36*
X187000D02*
Y287500D01*
X189964D01*
X189910Y287914D01*
X189557Y288765D01*
X188996Y289496D01*
X188265Y290057D01*
X187414Y290410D01*
X187000Y290464D01*
D02*
G37*
G36*
X186000D02*
X185586Y290410D01*
X184735Y290057D01*
X184004Y289496D01*
X183443Y288765D01*
X183090Y287914D01*
X183036Y287500D01*
X186000D01*
Y290464D01*
D02*
G37*
G36*
X177500D02*
Y287500D01*
X180464D01*
X180410Y287914D01*
X180057Y288765D01*
X179496Y289496D01*
X178765Y290057D01*
X177914Y290410D01*
X177500Y290464D01*
D02*
G37*
G36*
X176500D02*
X176086Y290410D01*
X175235Y290057D01*
X174504Y289496D01*
X173943Y288765D01*
X173590Y287914D01*
X173536Y287500D01*
X176500D01*
Y290464D01*
D02*
G37*
G36*
X200964Y286500D02*
X198000D01*
Y283536D01*
X198414Y283590D01*
X199265Y283943D01*
X199996Y284504D01*
X200557Y285235D01*
X200910Y286086D01*
X200964Y286500D01*
D02*
G37*
G36*
X197000D02*
X194036D01*
X194090Y286086D01*
X194443Y285235D01*
X195004Y284504D01*
X195735Y283943D01*
X196586Y283590D01*
X197000Y283536D01*
Y286500D01*
D02*
G37*
G36*
X189964D02*
X187000D01*
Y283536D01*
X187414Y283590D01*
X188265Y283943D01*
X188996Y284504D01*
X189557Y285235D01*
X189910Y286086D01*
X189964Y286500D01*
D02*
G37*
G36*
X186000D02*
X183036D01*
X183090Y286086D01*
X183443Y285235D01*
X184004Y284504D01*
X184735Y283943D01*
X185586Y283590D01*
X186000Y283536D01*
Y286500D01*
D02*
G37*
G36*
X180464D02*
X177500D01*
Y283536D01*
X177914Y283590D01*
X178765Y283943D01*
X179496Y284504D01*
X180057Y285235D01*
X180410Y286086D01*
X180464Y286500D01*
D02*
G37*
G36*
X176500D02*
X173536D01*
X173590Y286086D01*
X173943Y285235D01*
X174504Y284504D01*
X175235Y283943D01*
X176086Y283590D01*
X176500Y283536D01*
Y286500D01*
D02*
G37*
G36*
X199000Y279964D02*
Y277000D01*
X201964D01*
X201910Y277414D01*
X201557Y278265D01*
X200996Y278996D01*
X200265Y279557D01*
X199414Y279910D01*
X199000Y279964D01*
D02*
G37*
G36*
X198000D02*
X197586Y279910D01*
X196735Y279557D01*
X196004Y278996D01*
X195443Y278265D01*
X195090Y277414D01*
X195036Y277000D01*
X198000D01*
Y279964D01*
D02*
G37*
G36*
X189000D02*
Y277000D01*
X191964D01*
X191910Y277414D01*
X191557Y278265D01*
X190996Y278996D01*
X190265Y279557D01*
X189414Y279910D01*
X189000Y279964D01*
D02*
G37*
G36*
X188000D02*
X187586Y279910D01*
X186735Y279557D01*
X186004Y278996D01*
X185443Y278265D01*
X185090Y277414D01*
X185036Y277000D01*
X188000D01*
Y279964D01*
D02*
G37*
G36*
X177000D02*
Y277000D01*
X179964D01*
X179910Y277414D01*
X179557Y278265D01*
X178996Y278996D01*
X178265Y279557D01*
X177414Y279910D01*
X177000Y279964D01*
D02*
G37*
G36*
X176000D02*
X175586Y279910D01*
X174735Y279557D01*
X174004Y278996D01*
X173443Y278265D01*
X173090Y277414D01*
X173036Y277000D01*
X176000D01*
Y279964D01*
D02*
G37*
G36*
X201964Y276000D02*
X199000D01*
Y273036D01*
X199414Y273090D01*
X200265Y273443D01*
X200996Y274004D01*
X201557Y274735D01*
X201910Y275586D01*
X201964Y276000D01*
D02*
G37*
G36*
X198000D02*
X195036D01*
X195090Y275586D01*
X195443Y274735D01*
X196004Y274004D01*
X196735Y273443D01*
X197586Y273090D01*
X198000Y273036D01*
Y276000D01*
D02*
G37*
G36*
X191964D02*
X189000D01*
Y273036D01*
X189414Y273090D01*
X190265Y273443D01*
X190996Y274004D01*
X191557Y274735D01*
X191910Y275586D01*
X191964Y276000D01*
D02*
G37*
G36*
X188000D02*
X185036D01*
X185090Y275586D01*
X185443Y274735D01*
X186004Y274004D01*
X186735Y273443D01*
X187586Y273090D01*
X188000Y273036D01*
Y276000D01*
D02*
G37*
G36*
X179964D02*
X177000D01*
Y273036D01*
X177414Y273090D01*
X178265Y273443D01*
X178996Y274004D01*
X179557Y274735D01*
X179910Y275586D01*
X179964Y276000D01*
D02*
G37*
G36*
X176000D02*
X173036D01*
X173090Y275586D01*
X173443Y274735D01*
X174004Y274004D01*
X174735Y273443D01*
X175586Y273090D01*
X176000Y273036D01*
Y276000D01*
D02*
G37*
G36*
X189000Y268464D02*
Y265500D01*
X191964D01*
X191910Y265914D01*
X191557Y266765D01*
X190996Y267496D01*
X190265Y268057D01*
X189414Y268410D01*
X189000Y268464D01*
D02*
G37*
G36*
X188000D02*
X187586Y268410D01*
X186735Y268057D01*
X186004Y267496D01*
X185443Y266765D01*
X185090Y265914D01*
X185036Y265500D01*
X188000D01*
Y268464D01*
D02*
G37*
G36*
X177500Y267964D02*
Y265000D01*
X180464D01*
X180410Y265414D01*
X180057Y266265D01*
X179496Y266996D01*
X178765Y267557D01*
X177914Y267910D01*
X177500Y267964D01*
D02*
G37*
G36*
X176500D02*
X176086Y267910D01*
X175235Y267557D01*
X174504Y266996D01*
X173943Y266265D01*
X173590Y265414D01*
X173536Y265000D01*
X176500D01*
Y267964D01*
D02*
G37*
G36*
X200000Y266964D02*
Y264000D01*
X202964D01*
X202910Y264414D01*
X202557Y265265D01*
X201996Y265996D01*
X201265Y266557D01*
X200414Y266910D01*
X200000Y266964D01*
D02*
G37*
G36*
X199000D02*
X198586Y266910D01*
X197735Y266557D01*
X197004Y265996D01*
X196443Y265265D01*
X196090Y264414D01*
X196036Y264000D01*
X199000D01*
Y266964D01*
D02*
G37*
G36*
X191964Y264500D02*
X189000D01*
Y261536D01*
X189414Y261590D01*
X190265Y261943D01*
X190996Y262504D01*
X191557Y263235D01*
X191910Y264086D01*
X191964Y264500D01*
D02*
G37*
G36*
X188000D02*
X185036D01*
X185090Y264086D01*
X185443Y263235D01*
X186004Y262504D01*
X186735Y261943D01*
X187586Y261590D01*
X188000Y261536D01*
Y264500D01*
D02*
G37*
G36*
X180464Y264000D02*
X177500D01*
Y261036D01*
X177914Y261090D01*
X178765Y261443D01*
X179496Y262004D01*
X180057Y262735D01*
X180410Y263586D01*
X180464Y264000D01*
D02*
G37*
G36*
X176500D02*
X173536D01*
X173590Y263586D01*
X173943Y262735D01*
X174504Y262004D01*
X175235Y261443D01*
X176086Y261090D01*
X176500Y261036D01*
Y264000D01*
D02*
G37*
G36*
X202964Y263000D02*
X200000D01*
Y260036D01*
X200414Y260090D01*
X201265Y260443D01*
X201996Y261004D01*
X202557Y261735D01*
X202910Y262586D01*
X202964Y263000D01*
D02*
G37*
G36*
X199000D02*
X196036D01*
X196090Y262586D01*
X196443Y261735D01*
X197004Y261004D01*
X197735Y260443D01*
X198586Y260090D01*
X199000Y260036D01*
Y263000D01*
D02*
G37*
G36*
X200500Y254964D02*
Y252000D01*
X203464D01*
X203410Y252414D01*
X203057Y253265D01*
X202496Y253996D01*
X201765Y254557D01*
X200914Y254910D01*
X200500Y254964D01*
D02*
G37*
G36*
X199500D02*
X199086Y254910D01*
X198235Y254557D01*
X197504Y253996D01*
X196943Y253265D01*
X196590Y252414D01*
X196536Y252000D01*
X199500D01*
Y254964D01*
D02*
G37*
G36*
X214500Y253964D02*
Y251000D01*
X217464D01*
X217410Y251414D01*
X217057Y252265D01*
X216496Y252996D01*
X215765Y253557D01*
X214914Y253910D01*
X214500Y253964D01*
D02*
G37*
G36*
X213500D02*
D01*
X213086Y253910D01*
X212235Y253557D01*
X211504Y252996D01*
X210943Y252265D01*
X210590Y251414D01*
X210536Y251000D01*
X213500D01*
Y253964D01*
D02*
G37*
G36*
X203464Y251000D02*
X200500D01*
Y248036D01*
X200914Y248090D01*
X201765Y248443D01*
X202496Y249004D01*
X203057Y249735D01*
X203410Y250586D01*
X203464Y251000D01*
D02*
G37*
G36*
X199500D02*
X196536D01*
X196590Y250586D01*
X196943Y249735D01*
X197504Y249004D01*
X198235Y248443D01*
X199086Y248090D01*
X199500Y248036D01*
Y251000D01*
D02*
G37*
G36*
X217464Y250000D02*
X214500D01*
Y247036D01*
X214914Y247090D01*
X215765Y247443D01*
X216496Y248004D01*
X217057Y248735D01*
X217410Y249586D01*
X217464Y250000D01*
D02*
G37*
G36*
X213500D02*
X210536D01*
X210590Y249586D01*
X210943Y248735D01*
X211504Y248004D01*
X212235Y247443D01*
X213086Y247090D01*
X213500Y247036D01*
D01*
D01*
Y250000D01*
D02*
G37*
G36*
X201500Y243964D02*
Y241000D01*
X204464D01*
X204410Y241414D01*
X204057Y242265D01*
X203496Y242996D01*
X202765Y243557D01*
X201914Y243910D01*
X201500Y243964D01*
D02*
G37*
G36*
X200500D02*
X200086Y243910D01*
X199235Y243557D01*
X198504Y242996D01*
X197943Y242265D01*
X197590Y241414D01*
X197536Y241000D01*
X200500D01*
Y243964D01*
D02*
G37*
G36*
X204464Y240000D02*
X201500D01*
Y237036D01*
X201914Y237090D01*
X202765Y237443D01*
X203496Y238004D01*
X204057Y238735D01*
X204410Y239586D01*
X204464Y240000D01*
D02*
G37*
G36*
X200500D02*
X197536D01*
X197590Y239586D01*
X197943Y238735D01*
X198504Y238004D01*
X199235Y237443D01*
X200086Y237090D01*
X200500Y237036D01*
Y240000D01*
D02*
G37*
G36*
X208500Y233464D02*
Y230500D01*
X211464D01*
X211410Y230914D01*
X211057Y231765D01*
X210496Y232496D01*
X209765Y233057D01*
X208914Y233410D01*
X208500Y233464D01*
D02*
G37*
G36*
X207500D02*
X207086Y233410D01*
X206235Y233057D01*
X205504Y232496D01*
X204943Y231765D01*
X204590Y230914D01*
X204536Y230500D01*
X207500D01*
Y233464D01*
D02*
G37*
G36*
X211464Y229500D02*
X208500D01*
Y226536D01*
X208914Y226590D01*
X209765Y226943D01*
X210496Y227504D01*
X211057Y228235D01*
X211410Y229086D01*
X211464Y229500D01*
D02*
G37*
G36*
X207500D02*
X204536D01*
X204590Y229086D01*
X204943Y228235D01*
X205504Y227504D01*
X206235Y226943D01*
X207086Y226590D01*
X207500Y226536D01*
Y229500D01*
D02*
G37*
G36*
X200500Y227464D02*
Y224500D01*
X203464D01*
X203410Y224914D01*
X203057Y225765D01*
X202496Y226496D01*
X201765Y227057D01*
X200914Y227410D01*
X200500Y227464D01*
D02*
G37*
G36*
X199500D02*
X199086Y227410D01*
X198235Y227057D01*
X197504Y226496D01*
X196943Y225765D01*
X196590Y224914D01*
X196536Y224500D01*
X199500D01*
Y227464D01*
D02*
G37*
G36*
X203464Y223500D02*
X200500D01*
Y220536D01*
X200914Y220590D01*
X201765Y220943D01*
X202496Y221504D01*
X203057Y222235D01*
X203410Y223086D01*
X203464Y223500D01*
D02*
G37*
G36*
X199500D02*
X196536D01*
X196590Y223086D01*
X196943Y222235D01*
X197504Y221504D01*
X198235Y220943D01*
X199086Y220590D01*
X199500Y220536D01*
Y223500D01*
D02*
G37*
%LPD*%
G36*
X518971Y392367D02*
Y294000D01*
X519087Y293415D01*
X519352Y293018D01*
X518964Y292699D01*
X515529Y296133D01*
Y388500D01*
X515413Y389085D01*
X515081Y389581D01*
X441509Y463154D01*
X441716Y463654D01*
X447684D01*
X518971Y392367D01*
D02*
G37*
G36*
X251000Y139000D02*
X250500Y138500D01*
X240000D01*
Y107000D01*
X222355Y107000D01*
X222043Y107390D01*
X235131Y165500D01*
X251000D01*
Y139000D01*
D02*
G37*
D11*
X516750Y130500D02*
X517375Y131125D01*
X543600Y157500D02*
Y159400D01*
X540500Y162500D02*
X543600Y159400D01*
X492775Y162500D02*
X540500D01*
X477275Y147000D02*
X492775Y162500D01*
X224000Y414000D02*
Y415000D01*
X402650Y446150D02*
Y451850D01*
X396000Y439500D02*
X402650Y446150D01*
X389350Y292150D02*
X399926D01*
X388650Y282850D02*
X399926D01*
X327976Y422024D02*
X335000Y415000D01*
X322839Y422024D02*
X327976D01*
X387150Y192150D02*
X404850D01*
X385250Y190250D02*
X387150Y192150D01*
X396000Y187000D02*
X397904D01*
X415500Y169404D01*
Y125000D02*
Y169404D01*
X388150Y182150D02*
X399926D01*
X385750Y179750D02*
X388150Y182150D01*
X407500Y137000D02*
Y164000D01*
X396000Y175500D02*
X407500Y164000D01*
X386000Y295500D02*
X389350Y292150D01*
X386000Y285500D02*
X388650Y282850D01*
X538950Y411550D02*
X541674Y408826D01*
X538950Y411550D02*
Y418725D01*
X535526Y422150D02*
X538950Y418725D01*
X529350Y422150D02*
X535526D01*
X485075Y466425D02*
X529350Y422150D01*
X485075Y466425D02*
Y469850D01*
X533000Y407500D02*
X533600D01*
X487075Y453425D02*
X533000Y407500D01*
X487075Y453425D02*
Y456821D01*
X486196Y457700D02*
X487075Y456821D01*
X484000Y457700D02*
X486196D01*
X484000D02*
Y461500D01*
X532086Y277414D02*
X535414D01*
X535500Y277500D01*
X538250Y282850D02*
X543600Y277500D01*
X531650Y282850D02*
X538250D01*
X209780Y421524D02*
X212339D01*
X225000Y414000D02*
X225500D01*
X224000D02*
X225000D01*
X223000Y416000D02*
X224000Y415000D01*
X222000Y416000D02*
X223000D01*
X216476Y421524D02*
X222000Y416000D01*
X212339Y421524D02*
X216476D01*
X266780D02*
X269339D01*
X274476D02*
X281500Y414500D01*
X269339Y421524D02*
X274476D01*
X305500Y431500D02*
X343000D01*
Y466500D02*
X349500Y473000D01*
X343000Y431500D02*
Y466500D01*
Y428500D02*
Y431500D01*
Y419000D02*
Y428500D01*
X360650D02*
X361000Y428850D01*
X343000Y428500D02*
X360650D01*
X339000Y415000D02*
X343000Y419000D01*
X320280Y422024D02*
X322839D01*
X335000Y415000D02*
X339000D01*
X349500Y473000D02*
X363150D01*
X371500Y464650D02*
Y465075D01*
X370425Y466150D02*
X371500Y465075D01*
X370000Y466150D02*
X370425D01*
X363150Y473000D02*
X370000Y466150D01*
X371500Y464650D02*
X389850D01*
X402650Y451850D01*
X509850Y478650D02*
X517000Y471500D01*
X484000Y478650D02*
X509850D01*
X324500Y181500D02*
X326000Y183000D01*
X324457Y173043D02*
X324500Y173000D01*
X514000Y295500D02*
X532086Y277414D01*
X514000Y295500D02*
Y388500D01*
X435500Y467000D02*
Y468000D01*
Y467000D02*
X514000Y388500D01*
X520500Y294000D02*
X531650Y282850D01*
X520500Y294000D02*
Y393000D01*
X445500Y468000D02*
X520500Y393000D01*
X484000Y470925D02*
Y471350D01*
Y470925D02*
X485075Y469850D01*
X468500Y472000D02*
X483350D01*
X484000Y471350D01*
X468500Y462000D02*
X483500D01*
X484000Y461500D01*
X511642Y103642D02*
X536386D01*
X509614D02*
X511642D01*
X516750Y108750D02*
Y130500D01*
X511642Y103642D02*
X516750Y108750D01*
X526000Y157500D02*
X533600D01*
X516850Y148350D02*
X526000Y157500D01*
X516850Y142500D02*
Y148350D01*
X517000Y131500D02*
Y142350D01*
X516850Y142500D02*
X517000Y142350D01*
X476850Y147000D02*
X477275D01*
X477000Y135000D02*
Y146850D01*
X476850Y147000D02*
X477000Y146850D01*
Y112528D02*
Y135000D01*
X468114Y103642D02*
X477000Y112528D01*
X468114Y103642D02*
X494886D01*
X404850Y192150D02*
X420000Y177000D01*
Y119500D02*
Y177000D01*
X415000Y114500D02*
X420000Y119500D01*
X405000Y114500D02*
X415500Y125000D01*
X399926Y182150D02*
X411500Y170575D01*
Y131000D02*
Y170575D01*
X395000Y114500D02*
X411500Y131000D01*
X385000Y114500D02*
X407500Y137000D01*
X399926Y282850D02*
X425000Y257776D01*
X425000Y114500D01*
X399926Y292150D02*
X435000Y257076D01*
X435000Y114500D01*
D18*
X368500Y292150D02*
D03*
Y284850D02*
D03*
Y311000D02*
D03*
Y303700D02*
D03*
X484000Y478650D02*
D03*
Y471350D02*
D03*
Y454200D02*
D03*
Y461500D02*
D03*
X361000Y428850D02*
D03*
Y436150D02*
D03*
X371500Y457350D02*
D03*
Y464650D02*
D03*
D19*
X369500Y146500D02*
D03*
Y166500D02*
D03*
D20*
X322839Y422024D02*
D03*
X320280D02*
D03*
X317721D02*
D03*
X315161D02*
D03*
X322839Y398976D02*
D03*
X320280D02*
D03*
X317721D02*
D03*
X315161D02*
D03*
X269339Y421524D02*
D03*
X266780D02*
D03*
X264221D02*
D03*
X261661D02*
D03*
X269339Y398476D02*
D03*
X266780D02*
D03*
X264221D02*
D03*
X261661D02*
D03*
X212339Y421524D02*
D03*
X209780D02*
D03*
X207221D02*
D03*
X204661D02*
D03*
X212339Y398476D02*
D03*
X209780D02*
D03*
X207221D02*
D03*
X204661D02*
D03*
D21*
X360474Y457000D02*
D03*
X372526Y435999D02*
D03*
D22*
X360474Y464001D02*
D03*
X372526Y429000D02*
D03*
D23*
X476850Y147000D02*
D03*
X484150D02*
D03*
X516850Y142500D02*
D03*
X524150D02*
D03*
D24*
X523900Y131500D02*
D03*
X517000D02*
D03*
X483900Y135000D02*
D03*
X477000D02*
D03*
D25*
X364500Y128500D02*
D03*
Y119500D02*
D03*
X274000Y376500D02*
D03*
Y385500D02*
D03*
X225000Y405000D02*
D03*
Y414000D02*
D03*
X335000Y406000D02*
D03*
Y415000D02*
D03*
X278000Y182500D02*
D03*
Y173500D02*
D03*
X269500Y182500D02*
D03*
Y173500D02*
D03*
X281500Y405500D02*
D03*
Y414500D02*
D03*
D26*
X181130Y159000D02*
D03*
X209870D02*
D03*
D27*
X180500Y227000D02*
D03*
X203000D02*
D03*
X225500D02*
D03*
D28*
X355012Y190000D02*
D03*
X355512Y182000D02*
D03*
Y173500D02*
D03*
D29*
X343988Y190000D02*
D03*
X344488Y182000D02*
D03*
Y173500D02*
D03*
D30*
X333500Y190000D02*
D03*
X324500D02*
D03*
X333500Y181500D02*
D03*
X324500D02*
D03*
X333500Y173000D02*
D03*
X324500D02*
D03*
D31*
X243500Y397244D02*
D03*
Y422756D02*
D03*
X189000Y398500D02*
D03*
Y424012D02*
D03*
X298000Y398244D02*
D03*
Y423756D02*
D03*
X324500Y276244D02*
D03*
Y301756D02*
D03*
X272000Y277244D02*
D03*
Y302756D02*
D03*
X219000Y277244D02*
D03*
Y302756D02*
D03*
X325500Y330500D02*
D03*
Y356012D02*
D03*
X272500Y328244D02*
D03*
Y353756D02*
D03*
X217000Y329500D02*
D03*
Y355012D02*
D03*
D32*
X310803Y171484D02*
D03*
Y174043D02*
D03*
Y176602D02*
D03*
Y179161D02*
D03*
Y181720D02*
D03*
Y184279D02*
D03*
Y186839D02*
D03*
Y189398D02*
D03*
Y191957D02*
D03*
Y194516D02*
D03*
X288197Y171484D02*
D03*
Y174043D02*
D03*
Y176602D02*
D03*
Y179161D02*
D03*
Y181720D02*
D03*
Y184279D02*
D03*
Y186839D02*
D03*
Y189398D02*
D03*
Y191957D02*
D03*
Y194516D02*
D03*
D33*
X270000Y250870D02*
D03*
Y222130D02*
D03*
X289500Y250870D02*
D03*
Y222130D02*
D03*
X308500Y250870D02*
D03*
Y222130D02*
D03*
X327500Y250870D02*
D03*
Y222130D02*
D03*
X347000Y250870D02*
D03*
Y222130D02*
D03*
X250000Y251370D02*
D03*
Y222630D02*
D03*
D34*
X299000Y276500D02*
D03*
X243000Y276520D02*
D03*
X190000Y277000D02*
D03*
X298000Y329020D02*
D03*
X244500Y328020D02*
D03*
X189500Y328500D02*
D03*
D35*
X290000Y303460D02*
D03*
X308000D02*
D03*
X234000Y303480D02*
D03*
X252000D02*
D03*
X181000Y303960D02*
D03*
X199000D02*
D03*
X289000Y355980D02*
D03*
X307000D02*
D03*
X235500Y354980D02*
D03*
X253500D02*
D03*
X180500Y355460D02*
D03*
X198500D02*
D03*
D63*
X369000Y144500D02*
X371000Y146500D01*
X360531Y114532D02*
X371500Y125500D01*
Y143000D01*
X350335Y114532D02*
X360531D01*
D64*
X368500Y284425D02*
Y284850D01*
X361500Y277425D02*
X368500Y284425D01*
X361500Y270000D02*
Y277425D01*
X264750Y183250D02*
X276250D01*
X262000Y175000D02*
Y180500D01*
X264750Y183250D01*
X276250D02*
X276500Y183000D01*
D65*
X368500Y303700D02*
X380164D01*
X383964Y307500D01*
X384000D01*
X368500Y292150D02*
Y303700D01*
X388900Y202600D02*
X394000Y197500D01*
X380910Y202600D02*
X388900D01*
X366212Y203000D02*
X368815Y205603D01*
X374010Y209500D02*
X380910Y202600D01*
X299000Y209500D02*
X374010D01*
X278000Y181500D02*
X281000D01*
X276500Y183000D02*
X278000Y181500D01*
X281000D02*
X283372Y179128D01*
X288163D01*
X288197Y179161D01*
X318000Y183000D02*
X326000D01*
X295178Y181720D02*
X303318Y189859D01*
X288197Y181720D02*
X295178D01*
X293543Y186872D02*
X298518Y191848D01*
X288230Y186872D02*
X293543D01*
X292625Y189490D02*
X295676Y192542D01*
X288289Y189490D02*
X292625D01*
X315725Y183000D02*
X318000D01*
X319364Y179161D02*
X321275Y177250D01*
X310803Y179161D02*
X319364D01*
X321275Y185750D02*
X329250D01*
X320186Y186839D02*
X321275Y185750D01*
X318500Y191000D02*
X323500D01*
X316047D02*
X318500D01*
X304857Y197500D02*
X384000D01*
X300121Y203000D02*
X366212D01*
X316947Y194750D02*
X328750D01*
X316713Y194516D02*
X316947Y194750D01*
X310803Y194516D02*
X316713D01*
X310803Y186839D02*
X320186D01*
X317630Y174043D02*
X324457D01*
X310803D02*
X317630D01*
X333500Y173000D02*
X342746D01*
X343746Y174000D01*
X344488D01*
X321275Y177250D02*
X329250D01*
X333500Y173000D01*
X328750Y194750D02*
X333500Y190000D01*
X314537Y181812D02*
X315725Y183000D01*
X310895Y181812D02*
X314537D01*
X310803Y181720D02*
X310895Y181812D01*
X333500Y181500D02*
X334000Y182000D01*
X344488D01*
X329250Y185750D02*
X333500Y181500D01*
X314445Y189398D02*
X316047Y191000D01*
X310803Y189398D02*
X314445D01*
X323500Y191000D02*
X324500Y190000D01*
X298518Y201396D02*
X300121Y203000D01*
X298518Y191848D02*
Y201396D01*
X303318Y195961D02*
X304857Y197500D01*
X303318Y189859D02*
Y195961D01*
X368815Y204815D02*
Y205603D01*
X368500Y204500D02*
X368815Y204815D01*
X295676Y192542D02*
Y206176D01*
X288197Y189398D02*
X288289Y189490D01*
X288197Y186839D02*
X288230Y186872D01*
X295676Y206176D02*
X299000Y209500D01*
X333500Y190000D02*
X343988D01*
D66*
X382012Y342700D02*
X399800D01*
X404800Y337700D01*
X315178Y418488D02*
X339667Y394000D01*
X315178Y418488D02*
Y422007D01*
X339667Y394000D02*
X371000D01*
X389200Y222300D02*
X394000Y217500D01*
X360846Y222300D02*
X389200D01*
Y212300D02*
X394000Y207500D01*
X297852Y212300D02*
X389200D01*
X371000Y394000D02*
X377000Y388000D01*
Y347712D02*
Y388000D01*
Y347712D02*
X382012Y342700D01*
X404800Y328300D02*
Y337700D01*
X396000Y319500D02*
X404800Y328300D01*
X319000Y166500D02*
Y167511D01*
X315161Y422024D02*
X315178Y422007D01*
X296500Y397496D02*
X298000Y398996D01*
X188500Y398000D02*
Y407500D01*
X211500Y439000D02*
X228500D01*
X204661Y432161D02*
X211500Y439000D01*
X204661Y421524D02*
Y432161D01*
X263322Y434500D02*
X283500D01*
X261661Y432839D02*
X263322Y434500D01*
X261661Y421524D02*
Y432839D01*
X302500Y409500D02*
X316000D01*
X317721Y407779D01*
Y398976D02*
Y407779D01*
X298000Y405000D02*
X302500Y409500D01*
X298000Y398996D02*
Y405000D01*
Y416500D02*
Y423756D01*
Y416500D02*
X302500Y412000D01*
X316753D01*
X320280Y398976D02*
Y408473D01*
X316753Y412000D02*
X320280Y408473D01*
X243500Y414000D02*
Y422756D01*
Y414000D02*
X246700Y410800D01*
X261953D01*
X266780Y405973D01*
Y398476D02*
Y405973D01*
X264221Y398476D02*
Y405279D01*
X261000Y408500D02*
X264221Y405279D01*
X243500Y397244D02*
Y405000D01*
X247000Y408500D01*
X261000D01*
X189000Y416500D02*
X191500Y414000D01*
X202695D01*
X189000Y416500D02*
Y424012D01*
X209780Y398476D02*
Y406915D01*
X202695Y414000D02*
X209780Y406915D01*
X188500Y407500D02*
X192000Y411000D01*
X202442D01*
X207221Y406221D01*
Y398476D02*
Y406221D01*
X292826Y171500D02*
X296500Y167826D01*
Y163000D02*
Y167826D01*
X305724Y173063D02*
X306023Y172764D01*
X305724Y172464D02*
X306023Y172764D01*
X305724Y168276D02*
Y172464D01*
X294740Y177760D02*
X295260D01*
X305718Y188218D01*
X302000Y173000D02*
Y173852D01*
X303000Y174852D01*
X305831Y175331D02*
X305931Y175231D01*
X305931D01*
X305724Y175023D02*
X305931Y175231D01*
X305724Y173063D02*
Y175023D01*
X305831Y175331D02*
X307077Y176576D01*
X305831Y175331D02*
Y175331D01*
X302926Y174926D02*
X303000Y174852D01*
X305724Y168276D02*
X307000Y167000D01*
X302926Y174926D02*
Y181047D01*
X306158Y184279D01*
X293729Y173850D02*
X306000Y161579D01*
X305718Y188218D02*
Y190372D01*
X292488Y173850D02*
X293729D01*
X292321Y174018D02*
X292488Y173850D01*
X288223Y174018D02*
X292321D01*
X294343Y184279D02*
X300918Y190854D01*
X288197Y184279D02*
X294343D01*
X315027Y171484D02*
X319000Y167511D01*
X288197Y174043D02*
X288223Y174018D01*
X290894Y171500D02*
X292826D01*
X303694Y200350D02*
X372350D01*
X291890Y192149D02*
X293276Y193536D01*
X288389Y192149D02*
X291890D01*
X288172Y174018D02*
X288197Y174043D01*
Y171484D02*
X290910D01*
X290894Y171500D02*
X290910Y171484D01*
X310803D02*
X315027D01*
X310777Y176576D02*
X310803Y176602D01*
X307077Y176576D02*
X310777D01*
X306158Y184279D02*
X310803D01*
X293276Y193536D02*
Y207724D01*
X310777Y191931D02*
X310803Y191957D01*
X307277Y191931D02*
X310777D01*
X305718Y190372D02*
X307277Y191931D01*
X300918Y190854D02*
Y197574D01*
X373292Y201292D02*
X374792D01*
X372350Y200350D02*
X373292Y201292D01*
X374792D02*
X375500Y202000D01*
X300918Y197574D02*
X303694Y200350D01*
X375500Y202000D02*
X376501D01*
X293276Y207724D02*
X297852Y212300D01*
X288197Y191957D02*
X288389Y192149D01*
X354046Y215500D02*
X360846Y222300D01*
X294000Y215500D02*
X354046D01*
X288197Y209697D02*
X294000Y215500D01*
X288197Y194516D02*
Y209697D01*
D67*
X372526Y429000D02*
X385472D01*
X355012Y173825D02*
Y190000D01*
X355337Y173500D02*
X355512D01*
X350426D02*
X355337D01*
X282000Y124500D02*
X301426D01*
X350426Y173500D01*
X355012Y173825D02*
X355337Y173500D01*
X360474Y457000D02*
X371175D01*
X371500Y457325D01*
Y457350D01*
X372425Y435925D02*
X372500Y435850D01*
X360550Y435925D02*
X372425D01*
X360474Y436000D02*
X360550Y435925D01*
D68*
X350335Y104532D02*
Y114532D01*
X189000Y329000D02*
Y398500D01*
Y329000D02*
X189500Y328500D01*
X298000Y423756D02*
Y443500D01*
X279000Y462500D02*
X298000Y443500D01*
X275500Y462500D02*
X279000D01*
X243500Y422756D02*
Y448531D01*
X255500Y460532D01*
Y462500D01*
X211000D02*
X235500D01*
X189000Y440500D02*
X211000Y462500D01*
X189000Y424012D02*
Y440500D01*
X296500Y344500D02*
Y397496D01*
X243500Y345000D02*
Y397244D01*
D69*
X384000Y447500D02*
D03*
X533600D02*
D03*
X384000Y247500D02*
D03*
X533600D02*
D03*
D70*
X394000Y447500D02*
D03*
X384000Y437500D02*
D03*
X394000D02*
D03*
X384000Y427500D02*
D03*
X394000D02*
D03*
X384000Y417500D02*
D03*
X394000D02*
D03*
X384000Y407500D02*
D03*
X394000D02*
D03*
X384000Y397500D02*
D03*
X394000D02*
D03*
X384000Y387500D02*
D03*
X394000D02*
D03*
X384000Y377500D02*
D03*
X394000D02*
D03*
X384000Y367500D02*
D03*
X394000D02*
D03*
X384000Y357500D02*
D03*
X394000D02*
D03*
X384000Y347500D02*
D03*
X394000D02*
D03*
X384000Y337500D02*
D03*
X394000D02*
D03*
X384000Y327500D02*
D03*
X394000D02*
D03*
X384000Y317500D02*
D03*
X394000D02*
D03*
X384000Y307500D02*
D03*
X394000D02*
D03*
X384000Y297500D02*
D03*
X394000D02*
D03*
X384000Y287500D02*
D03*
X394000D02*
D03*
X384000Y277500D02*
D03*
X394000D02*
D03*
X384000Y267500D02*
D03*
X394000D02*
D03*
X384000Y257500D02*
D03*
X394000D02*
D03*
X543600Y447500D02*
D03*
X533600Y437500D02*
D03*
X543600D02*
D03*
X533600Y427500D02*
D03*
X543600D02*
D03*
X533600Y417500D02*
D03*
X543600D02*
D03*
X533600Y407500D02*
D03*
X543600D02*
D03*
X533600Y397500D02*
D03*
X543600D02*
D03*
X533600Y387500D02*
D03*
X543600D02*
D03*
X533600Y377500D02*
D03*
X543600D02*
D03*
X533600Y367500D02*
D03*
X543600D02*
D03*
X533600Y357500D02*
D03*
X543600D02*
D03*
X533600Y347500D02*
D03*
X543600D02*
D03*
X533600Y337500D02*
D03*
X543600D02*
D03*
X533600Y327500D02*
D03*
X543600D02*
D03*
X533600Y317500D02*
D03*
X543600D02*
D03*
X533600Y307500D02*
D03*
X543600D02*
D03*
X533600Y297500D02*
D03*
X543600D02*
D03*
X533600Y287500D02*
D03*
X543600D02*
D03*
X533600Y277500D02*
D03*
X543600D02*
D03*
X533600Y267500D02*
D03*
X543600D02*
D03*
X533600Y257500D02*
D03*
X543600D02*
D03*
X394000Y137500D02*
D03*
X384000D02*
D03*
X394000Y147500D02*
D03*
X384000D02*
D03*
X394000Y157500D02*
D03*
X384000D02*
D03*
X394000Y167500D02*
D03*
X384000D02*
D03*
X394000Y177500D02*
D03*
X384000D02*
D03*
X394000Y187500D02*
D03*
X384000D02*
D03*
X394000Y197500D02*
D03*
X384000D02*
D03*
X394000Y207500D02*
D03*
X384000D02*
D03*
X394000Y217500D02*
D03*
X384000D02*
D03*
X394000Y227500D02*
D03*
X384000D02*
D03*
X394000Y237500D02*
D03*
X384000D02*
D03*
X394000Y247500D02*
D03*
X543600Y137500D02*
D03*
X533600D02*
D03*
X543600Y147500D02*
D03*
X533600D02*
D03*
X543600Y157500D02*
D03*
X533600D02*
D03*
X543600Y167500D02*
D03*
X533600D02*
D03*
X543600Y177500D02*
D03*
X533600D02*
D03*
X543600Y187500D02*
D03*
X533600D02*
D03*
X543600Y197500D02*
D03*
X533600D02*
D03*
X543600Y207500D02*
D03*
X533600D02*
D03*
X543600Y217500D02*
D03*
X533600D02*
D03*
X543600Y227500D02*
D03*
X533600D02*
D03*
X543600Y237500D02*
D03*
X533600D02*
D03*
X543600Y247500D02*
D03*
D71*
X445500Y468000D02*
D03*
X350335Y104532D02*
D03*
X277500D02*
D03*
X517000Y461500D02*
D03*
X350335Y146500D02*
D03*
X277500D02*
D03*
X468500Y462000D02*
D03*
D72*
X435500Y468000D02*
D03*
X425500D02*
D03*
X415500D02*
D03*
X350335Y114532D02*
D03*
X277500D02*
D03*
X517000Y471500D02*
D03*
X350335Y156500D02*
D03*
X277500D02*
D03*
X385000Y114500D02*
D03*
X395000D02*
D03*
X445000D02*
D03*
X435000D02*
D03*
X425000D02*
D03*
X415000D02*
D03*
X405000D02*
D03*
X468500Y472000D02*
D03*
D73*
X536386Y121358D02*
D03*
Y103642D02*
D03*
X509614D02*
D03*
X494886Y121358D02*
D03*
Y103642D02*
D03*
X468114D02*
D03*
D74*
X509614Y121358D02*
D03*
X468114D02*
D03*
D75*
X201500Y116000D02*
D03*
X181500D02*
D03*
X251000Y116500D02*
D03*
X231000D02*
D03*
X255500Y462500D02*
D03*
X275500D02*
D03*
X235500D02*
D03*
D76*
X455000Y114500D02*
D03*
D77*
X243000Y155000D02*
D03*
X261898D02*
D03*
X224102D02*
D03*
D78*
X330000Y450000D02*
D03*
X315000D02*
D03*
X210000D02*
D03*
X202500Y465000D02*
D03*
X187500D02*
D03*
X180000Y450000D02*
D03*
X345000Y360000D02*
D03*
X352500Y345000D02*
D03*
X345000Y330000D02*
D03*
X352500Y315000D02*
D03*
X345000Y300000D02*
D03*
X262000Y373500D02*
D03*
X213000Y372500D02*
D03*
X267500Y225000D02*
D03*
X249000D02*
D03*
X269000Y233000D02*
D03*
X256500D02*
D03*
X248500Y232500D02*
D03*
X517500Y255000D02*
D03*
X510000Y240000D02*
D03*
X517500Y225000D02*
D03*
X510000Y210000D02*
D03*
X517500Y195000D02*
D03*
X510000Y180000D02*
D03*
X495000Y390000D02*
D03*
X502500Y375000D02*
D03*
X495000Y360000D02*
D03*
X502500Y345000D02*
D03*
X495000Y330000D02*
D03*
X502500Y315000D02*
D03*
X495000Y300000D02*
D03*
X502500Y285000D02*
D03*
X495000Y270000D02*
D03*
X502500Y255000D02*
D03*
X495000Y240000D02*
D03*
X502500Y225000D02*
D03*
X495000Y210000D02*
D03*
X502500Y195000D02*
D03*
X495000Y180000D02*
D03*
X480000Y390000D02*
D03*
X487500Y375000D02*
D03*
X480000Y360000D02*
D03*
X487500Y345000D02*
D03*
X480000Y330000D02*
D03*
X487500Y315000D02*
D03*
X480000Y300000D02*
D03*
X487500Y285000D02*
D03*
X480000Y270000D02*
D03*
X487500Y255000D02*
D03*
X480000Y240000D02*
D03*
X487500Y225000D02*
D03*
X480000Y210000D02*
D03*
X487500Y195000D02*
D03*
X480000Y180000D02*
D03*
X472500Y405000D02*
D03*
X465000Y390000D02*
D03*
X472500Y375000D02*
D03*
X465000Y360000D02*
D03*
X472500Y345000D02*
D03*
X465000Y330000D02*
D03*
X472500Y315000D02*
D03*
X465000Y300000D02*
D03*
X472500Y285000D02*
D03*
X465000Y270000D02*
D03*
X472500Y255000D02*
D03*
X465000Y240000D02*
D03*
X472500Y225000D02*
D03*
X465000Y210000D02*
D03*
X472500Y195000D02*
D03*
X465000Y180000D02*
D03*
X457500Y405000D02*
D03*
X450000Y390000D02*
D03*
X457500Y375000D02*
D03*
X450000Y360000D02*
D03*
X457500Y345000D02*
D03*
X450000Y330000D02*
D03*
X457500Y315000D02*
D03*
X450000Y300000D02*
D03*
X457500Y285000D02*
D03*
X450000Y270000D02*
D03*
X457500Y255000D02*
D03*
X450000Y240000D02*
D03*
X457500Y225000D02*
D03*
Y195000D02*
D03*
X442500Y405000D02*
D03*
X435000Y390000D02*
D03*
X442500Y375000D02*
D03*
X435000Y360000D02*
D03*
X442500Y345000D02*
D03*
X435000Y330000D02*
D03*
X442500Y315000D02*
D03*
Y285000D02*
D03*
X427500Y405000D02*
D03*
X420000Y390000D02*
D03*
X427500Y375000D02*
D03*
Y345000D02*
D03*
X237000Y129000D02*
D03*
X230500D02*
D03*
X234500Y137000D02*
D03*
X244000Y145500D02*
D03*
X236500D02*
D03*
X199500Y423000D02*
D03*
X255500D02*
D03*
X309500Y424500D02*
D03*
X177000Y411500D02*
D03*
X177500Y388000D02*
D03*
X335000Y386500D02*
D03*
X326000D02*
D03*
X317000D02*
D03*
X307500Y386000D02*
D03*
X286500Y386500D02*
D03*
X263000Y386000D02*
D03*
X253000Y386500D02*
D03*
X231500Y387000D02*
D03*
X221500Y386500D02*
D03*
X212000Y387000D02*
D03*
X202000D02*
D03*
X200000Y224000D02*
D03*
X208000Y230000D02*
D03*
X201000Y240500D02*
D03*
X214000Y250500D02*
D03*
X200000Y251500D02*
D03*
X199500Y263500D02*
D03*
X188500Y265000D02*
D03*
X177000Y264500D02*
D03*
X198500Y276500D02*
D03*
X188500D02*
D03*
X176500D02*
D03*
X197500Y287000D02*
D03*
X186500D02*
D03*
X177000D02*
D03*
X184500Y224000D02*
D03*
X174500Y224500D02*
D03*
X184500Y235500D02*
D03*
X174000D02*
D03*
X232000Y223000D02*
D03*
X220000D02*
D03*
X231000Y233000D02*
D03*
X220000D02*
D03*
X260000Y190000D02*
D03*
Y170000D02*
D03*
X255000Y200000D02*
D03*
X250000Y190000D02*
D03*
X245000Y200000D02*
D03*
X240000Y190000D02*
D03*
X230000Y210000D02*
D03*
X235000Y200000D02*
D03*
X230000Y190000D02*
D03*
X220000Y210000D02*
D03*
X225000Y200000D02*
D03*
X220000Y190000D02*
D03*
X369000Y146000D02*
D03*
X311500Y338000D02*
D03*
X304500Y333500D02*
D03*
X303500Y342000D02*
D03*
X295000D02*
D03*
X228500Y439000D02*
D03*
X255000Y334000D02*
D03*
X245000D02*
D03*
X233000Y334500D02*
D03*
X255500Y342000D02*
D03*
X244500Y342500D02*
D03*
X233500D02*
D03*
X177500Y319000D02*
D03*
X186500Y320000D02*
D03*
X197000D02*
D03*
Y339000D02*
D03*
X196500Y329500D02*
D03*
X186500D02*
D03*
X177500D02*
D03*
X186500Y339000D02*
D03*
X177500D02*
D03*
X180000Y210000D02*
D03*
X185000Y200000D02*
D03*
X180000Y190000D02*
D03*
X185000Y180000D02*
D03*
X180000Y170000D02*
D03*
X185000Y140000D02*
D03*
X180000Y130000D02*
D03*
X170000Y210000D02*
D03*
X175000Y200000D02*
D03*
X170000Y190000D02*
D03*
X175000Y180000D02*
D03*
X170000Y170000D02*
D03*
Y150000D02*
D03*
X175000Y140000D02*
D03*
X170000Y130000D02*
D03*
Y110000D02*
D03*
X271000Y328000D02*
D03*
X273000Y277000D02*
D03*
X217000Y329500D02*
D03*
X327750Y330506D02*
D03*
X325000Y275500D02*
D03*
X218500Y277000D02*
D03*
X368500Y204500D02*
D03*
X375500Y202000D02*
D03*
D79*
X319000Y166500D02*
D03*
X225500Y414000D02*
D03*
X281500Y414500D02*
D03*
X305500Y431500D02*
D03*
X283500Y434500D02*
D03*
X296500Y163000D02*
D03*
X294740Y177760D02*
D03*
X302000Y173000D02*
D03*
X307000Y167000D02*
D03*
X306000Y161579D02*
D03*
X318000Y183000D02*
D03*
X318500Y191000D02*
D03*
X317630Y174043D02*
D03*
D80*
X484000Y453500D02*
D03*
X524000Y142500D02*
D03*
X484500Y147000D02*
D03*
M02*
