G04*
G04 #@! TF.GenerationSoftware,Altium Limited,Altium Designer,20.0.2 (26)*
G04*
G04 Layer_Color=128*
%FSLAX25Y25*%
%MOIN*%
G70*
G01*
G75*
%ADD85C,0.00200*%
D85*
X382228Y447500D02*
X385772D01*
X384000Y445728D02*
Y449272D01*
X392228Y447500D02*
X395772D01*
X394000Y445728D02*
Y449272D01*
X382228Y437500D02*
X385772D01*
X384000Y435728D02*
Y439272D01*
X392228Y437500D02*
X395772D01*
X394000Y435728D02*
Y439272D01*
X382228Y427500D02*
X385772D01*
X384000Y425728D02*
Y429272D01*
X392228Y427500D02*
X395772D01*
X394000Y425728D02*
Y429272D01*
X382228Y417500D02*
X385772D01*
X384000Y415728D02*
Y419272D01*
X392228Y417500D02*
X395772D01*
X394000Y415728D02*
Y419272D01*
X382228Y407500D02*
X385772D01*
X384000Y405728D02*
Y409272D01*
X392228Y407500D02*
X395772D01*
X394000Y405728D02*
Y409272D01*
X382228Y397500D02*
X385772D01*
X384000Y395728D02*
Y399272D01*
X392228Y397500D02*
X395772D01*
X394000Y395728D02*
Y399272D01*
X382228Y387500D02*
X385772D01*
X384000Y385728D02*
Y389272D01*
X392228Y387500D02*
X395772D01*
X394000Y385728D02*
Y389272D01*
X382228Y377500D02*
X385772D01*
X384000Y375728D02*
Y379272D01*
X392228Y377500D02*
X395772D01*
X394000Y375728D02*
Y379272D01*
X382228Y367500D02*
X385772D01*
X384000Y365728D02*
Y369272D01*
X392228Y367500D02*
X395772D01*
X394000Y365728D02*
Y369272D01*
X382228Y357500D02*
X385772D01*
X384000Y355728D02*
Y359272D01*
X392228Y357500D02*
X395772D01*
X394000Y355728D02*
Y359272D01*
X382228Y347500D02*
X385772D01*
X384000Y345728D02*
Y349272D01*
X392228Y347500D02*
X395772D01*
X394000Y345728D02*
Y349272D01*
X382228Y337500D02*
X385772D01*
X384000Y335728D02*
Y339272D01*
X392228Y337500D02*
X395772D01*
X394000Y335728D02*
Y339272D01*
X382228Y327500D02*
X385772D01*
X384000Y325728D02*
Y329272D01*
X392228Y327500D02*
X395772D01*
X394000Y325728D02*
Y329272D01*
X382228Y317500D02*
X385772D01*
X384000Y315728D02*
Y319272D01*
X392228Y317500D02*
X395772D01*
X394000Y315728D02*
Y319272D01*
X382228Y307500D02*
X385772D01*
X384000Y305728D02*
Y309272D01*
X392228Y307500D02*
X395772D01*
X394000Y305728D02*
Y309272D01*
X382228Y297500D02*
X385772D01*
X384000Y295728D02*
Y299272D01*
X392228Y297500D02*
X395772D01*
X394000Y295728D02*
Y299272D01*
X382228Y287500D02*
X385772D01*
X384000Y285728D02*
Y289272D01*
X392228Y287500D02*
X395772D01*
X394000Y285728D02*
Y289272D01*
X382228Y277500D02*
X385772D01*
X384000Y275728D02*
Y279272D01*
X392228Y277500D02*
X395772D01*
X394000Y275728D02*
Y279272D01*
X382228Y267500D02*
X385772D01*
X384000Y265728D02*
Y269272D01*
X392228Y267500D02*
X395772D01*
X394000Y265728D02*
Y269272D01*
X382228Y257500D02*
X385772D01*
X384000Y255728D02*
Y259272D01*
X392228Y257500D02*
X395772D01*
X394000Y255728D02*
Y259272D01*
X443728Y468000D02*
X447272D01*
X445500Y466228D02*
Y469772D01*
X433728Y468000D02*
X437272D01*
X435500Y466228D02*
Y469772D01*
X423728Y468000D02*
X427272D01*
X425500Y466228D02*
Y469772D01*
X413728Y468000D02*
X417272D01*
X415500Y466228D02*
Y469772D01*
X534417Y121358D02*
X538354D01*
X536386Y119390D02*
Y123327D01*
X534417Y103642D02*
X538354D01*
X536386Y101673D02*
Y105610D01*
X507646Y103642D02*
X511583D01*
X509614Y101673D02*
Y105610D01*
X507646Y121358D02*
X511583D01*
X509614Y119390D02*
Y123327D01*
X492917Y121358D02*
X496854D01*
X494886Y119390D02*
Y123327D01*
X492917Y103642D02*
X496854D01*
X494886Y101673D02*
Y105610D01*
X466146Y103642D02*
X470083D01*
X468114Y101673D02*
Y105610D01*
X466146Y121358D02*
X470083D01*
X468114Y119390D02*
Y123327D01*
X199138Y116000D02*
X203862D01*
X201500Y113638D02*
Y118362D01*
X179138Y116000D02*
X183862D01*
X181500Y113638D02*
Y118362D01*
X348563Y114532D02*
X352106D01*
X350335Y112760D02*
Y116303D01*
X348563Y104532D02*
X352106D01*
X350335Y102760D02*
Y106303D01*
X275728Y114532D02*
X279272D01*
X277500Y112760D02*
Y116303D01*
X275728Y104532D02*
X279272D01*
X277500Y102760D02*
Y106303D01*
X515228Y471500D02*
X518772D01*
X517000Y469728D02*
Y473272D01*
X515228Y461500D02*
X518772D01*
X517000Y459728D02*
Y463272D01*
X348563Y156500D02*
X352106D01*
X350335Y154728D02*
Y158272D01*
X348563Y146500D02*
X352106D01*
X350335Y144728D02*
Y148272D01*
X275728Y156500D02*
X279272D01*
X277500Y154728D02*
Y158272D01*
X275728Y146500D02*
X279272D01*
X277500Y144728D02*
Y148272D01*
X383228Y114500D02*
X386772D01*
X385000Y112728D02*
Y116272D01*
X393228Y114500D02*
X396772D01*
X395000Y112728D02*
Y116272D01*
X453228Y114500D02*
X456772D01*
X455000Y112728D02*
Y116272D01*
X443228Y114500D02*
X446772D01*
X445000Y112728D02*
Y116272D01*
X433228Y114500D02*
X436772D01*
X435000Y112728D02*
Y116272D01*
X423228Y114500D02*
X426772D01*
X425000Y112728D02*
Y116272D01*
X413228Y114500D02*
X416772D01*
X415000Y112728D02*
Y116272D01*
X403228Y114500D02*
X406772D01*
X405000Y112728D02*
Y116272D01*
X248638Y116500D02*
X253362D01*
X251000Y114138D02*
Y118862D01*
X228638Y116500D02*
X233362D01*
X231000Y114138D02*
Y118862D01*
X466728Y472000D02*
X470272D01*
X468500Y470228D02*
Y473772D01*
X466728Y462000D02*
X470272D01*
X468500Y460228D02*
Y463772D01*
X238472Y155000D02*
X247528D01*
X243000Y150472D02*
Y159528D01*
X257370Y155000D02*
X266425D01*
X261898Y150472D02*
Y159528D01*
X219575Y155000D02*
X228630D01*
X224102Y150472D02*
Y159528D01*
X253138Y462500D02*
X257862D01*
X255500Y460138D02*
Y464862D01*
X273138Y462500D02*
X277862D01*
X275500Y460138D02*
Y464862D01*
X233138Y462500D02*
X237862D01*
X235500Y460138D02*
Y464862D01*
X531828Y447500D02*
X535372D01*
X533600Y445728D02*
Y449272D01*
X541828Y447500D02*
X545372D01*
X543600Y445728D02*
Y449272D01*
X531828Y437500D02*
X535372D01*
X533600Y435728D02*
Y439272D01*
X541828Y437500D02*
X545372D01*
X543600Y435728D02*
Y439272D01*
X531828Y427500D02*
X535372D01*
X533600Y425728D02*
Y429272D01*
X541828Y427500D02*
X545372D01*
X543600Y425728D02*
Y429272D01*
X531828Y417500D02*
X535372D01*
X533600Y415728D02*
Y419272D01*
X541828Y417500D02*
X545372D01*
X543600Y415728D02*
Y419272D01*
X531828Y407500D02*
X535372D01*
X533600Y405728D02*
Y409272D01*
X541828Y407500D02*
X545372D01*
X543600Y405728D02*
Y409272D01*
X531828Y397500D02*
X535372D01*
X533600Y395728D02*
Y399272D01*
X541828Y397500D02*
X545372D01*
X543600Y395728D02*
Y399272D01*
X531828Y387500D02*
X535372D01*
X533600Y385728D02*
Y389272D01*
X541828Y387500D02*
X545372D01*
X543600Y385728D02*
Y389272D01*
X531828Y377500D02*
X535372D01*
X533600Y375728D02*
Y379272D01*
X541828Y377500D02*
X545372D01*
X543600Y375728D02*
Y379272D01*
X531828Y367500D02*
X535372D01*
X533600Y365728D02*
Y369272D01*
X541828Y367500D02*
X545372D01*
X543600Y365728D02*
Y369272D01*
X531828Y357500D02*
X535372D01*
X533600Y355728D02*
Y359272D01*
X541828Y357500D02*
X545372D01*
X543600Y355728D02*
Y359272D01*
X531828Y347500D02*
X535372D01*
X533600Y345728D02*
Y349272D01*
X541828Y347500D02*
X545372D01*
X543600Y345728D02*
Y349272D01*
X531828Y337500D02*
X535372D01*
X533600Y335728D02*
Y339272D01*
X541828Y337500D02*
X545372D01*
X543600Y335728D02*
Y339272D01*
X531828Y327500D02*
X535372D01*
X533600Y325728D02*
Y329272D01*
X541828Y327500D02*
X545372D01*
X543600Y325728D02*
Y329272D01*
X531828Y317500D02*
X535372D01*
X533600Y315728D02*
Y319272D01*
X541828Y317500D02*
X545372D01*
X543600Y315728D02*
Y319272D01*
X531828Y307500D02*
X535372D01*
X533600Y305728D02*
Y309272D01*
X541828Y307500D02*
X545372D01*
X543600Y305728D02*
Y309272D01*
X531828Y297500D02*
X535372D01*
X533600Y295728D02*
Y299272D01*
X541828Y297500D02*
X545372D01*
X543600Y295728D02*
Y299272D01*
X531828Y287500D02*
X535372D01*
X533600Y285728D02*
Y289272D01*
X541828Y287500D02*
X545372D01*
X543600Y285728D02*
Y289272D01*
X531828Y277500D02*
X535372D01*
X533600Y275728D02*
Y279272D01*
X541828Y277500D02*
X545372D01*
X543600Y275728D02*
Y279272D01*
X531828Y267500D02*
X535372D01*
X533600Y265728D02*
Y269272D01*
X541828Y267500D02*
X545372D01*
X543600Y265728D02*
Y269272D01*
X531828Y257500D02*
X535372D01*
X533600Y255728D02*
Y259272D01*
X541828Y257500D02*
X545372D01*
X543600Y255728D02*
Y259272D01*
X392228Y137500D02*
X395772D01*
X394000Y135728D02*
Y139272D01*
X382228Y137500D02*
X385772D01*
X384000Y135728D02*
Y139272D01*
X392228Y147500D02*
X395772D01*
X394000Y145728D02*
Y149272D01*
X382228Y147500D02*
X385772D01*
X384000Y145728D02*
Y149272D01*
X392228Y157500D02*
X395772D01*
X394000Y155728D02*
Y159272D01*
X382228Y157500D02*
X385772D01*
X384000Y155728D02*
Y159272D01*
X392228Y167500D02*
X395772D01*
X394000Y165728D02*
Y169272D01*
X382228Y167500D02*
X385772D01*
X384000Y165728D02*
Y169272D01*
X392228Y177500D02*
X395772D01*
X394000Y175728D02*
Y179272D01*
X382228Y177500D02*
X385772D01*
X384000Y175728D02*
Y179272D01*
X392228Y187500D02*
X395772D01*
X394000Y185728D02*
Y189272D01*
X382228Y187500D02*
X385772D01*
X384000Y185728D02*
Y189272D01*
X392228Y197500D02*
X395772D01*
X394000Y195728D02*
Y199272D01*
X382228Y197500D02*
X385772D01*
X384000Y195728D02*
Y199272D01*
X392228Y207500D02*
X395772D01*
X394000Y205728D02*
Y209272D01*
X382228Y207500D02*
X385772D01*
X384000Y205728D02*
Y209272D01*
X392228Y217500D02*
X395772D01*
X394000Y215728D02*
Y219272D01*
X382228Y217500D02*
X385772D01*
X384000Y215728D02*
Y219272D01*
X392228Y227500D02*
X395772D01*
X394000Y225728D02*
Y229272D01*
X382228Y227500D02*
X385772D01*
X384000Y225728D02*
Y229272D01*
X392228Y237500D02*
X395772D01*
X394000Y235728D02*
Y239272D01*
X382228Y237500D02*
X385772D01*
X384000Y235728D02*
Y239272D01*
X392228Y247500D02*
X395772D01*
X394000Y245728D02*
Y249272D01*
X382228Y247500D02*
X385772D01*
X384000Y245728D02*
Y249272D01*
X541828Y137500D02*
X545372D01*
X543600Y135728D02*
Y139272D01*
X531828Y137500D02*
X535372D01*
X533600Y135728D02*
Y139272D01*
X541828Y147500D02*
X545372D01*
X543600Y145728D02*
Y149272D01*
X531828Y147500D02*
X535372D01*
X533600Y145728D02*
Y149272D01*
X541828Y157500D02*
X545372D01*
X543600Y155728D02*
Y159272D01*
X531828Y157500D02*
X535372D01*
X533600Y155728D02*
Y159272D01*
X541828Y167500D02*
X545372D01*
X543600Y165728D02*
Y169272D01*
X531828Y167500D02*
X535372D01*
X533600Y165728D02*
Y169272D01*
X541828Y177500D02*
X545372D01*
X543600Y175728D02*
Y179272D01*
X531828Y177500D02*
X535372D01*
X533600Y175728D02*
Y179272D01*
X541828Y187500D02*
X545372D01*
X543600Y185728D02*
Y189272D01*
X531828Y187500D02*
X535372D01*
X533600Y185728D02*
Y189272D01*
X541828Y197500D02*
X545372D01*
X543600Y195728D02*
Y199272D01*
X531828Y197500D02*
X535372D01*
X533600Y195728D02*
Y199272D01*
X541828Y207500D02*
X545372D01*
X543600Y205728D02*
Y209272D01*
X531828Y207500D02*
X535372D01*
X533600Y205728D02*
Y209272D01*
X541828Y217500D02*
X545372D01*
X543600Y215728D02*
Y219272D01*
X531828Y217500D02*
X535372D01*
X533600Y215728D02*
Y219272D01*
X541828Y227500D02*
X545372D01*
X543600Y225728D02*
Y229272D01*
X531828Y227500D02*
X535372D01*
X533600Y225728D02*
Y229272D01*
X541828Y237500D02*
X545372D01*
X543600Y235728D02*
Y239272D01*
X531828Y237500D02*
X535372D01*
X533600Y235728D02*
Y239272D01*
X541828Y247500D02*
X545372D01*
X543600Y245728D02*
Y249272D01*
X531828Y247500D02*
X535372D01*
X533600Y245728D02*
Y249272D01*
X328600Y450000D02*
X331400D01*
X330000Y448600D02*
Y451400D01*
X313600Y450000D02*
X316400D01*
X315000Y448600D02*
Y451400D01*
X208600Y450000D02*
X211400D01*
X210000Y448600D02*
Y451400D01*
X201100Y465000D02*
X203900D01*
X202500Y463600D02*
Y466400D01*
X186100Y465000D02*
X188900D01*
X187500Y463600D02*
Y466400D01*
X178600Y450000D02*
X181400D01*
X180000Y448600D02*
Y451400D01*
X343600Y360000D02*
X346400D01*
X345000Y358600D02*
Y361400D01*
X351100Y345000D02*
X353900D01*
X352500Y343600D02*
Y346400D01*
X343600Y330000D02*
X346400D01*
X345000Y328600D02*
Y331400D01*
X351100Y315000D02*
X353900D01*
X352500Y313600D02*
Y316400D01*
X343600Y300000D02*
X346400D01*
X345000Y298600D02*
Y301400D01*
X260600Y373500D02*
X263400D01*
X262000Y372100D02*
Y374900D01*
X211600Y372500D02*
X214400D01*
X213000Y371100D02*
Y373900D01*
X266100Y225000D02*
X268900D01*
X267500Y223600D02*
Y226400D01*
X247600Y225000D02*
X250400D01*
X249000Y223600D02*
Y226400D01*
X267600Y233000D02*
X270400D01*
X269000Y231600D02*
Y234400D01*
X255100Y233000D02*
X257900D01*
X256500Y231600D02*
Y234400D01*
X247100Y232500D02*
X249900D01*
X248500Y231100D02*
Y233900D01*
X516100Y255000D02*
X518900D01*
X517500Y253600D02*
Y256400D01*
X508600Y240000D02*
X511400D01*
X510000Y238600D02*
Y241400D01*
X516100Y225000D02*
X518900D01*
X517500Y223600D02*
Y226400D01*
X508600Y210000D02*
X511400D01*
X510000Y208600D02*
Y211400D01*
X516100Y195000D02*
X518900D01*
X517500Y193600D02*
Y196400D01*
X508600Y180000D02*
X511400D01*
X510000Y178600D02*
Y181400D01*
X493600Y390000D02*
X496400D01*
X495000Y388600D02*
Y391400D01*
X501100Y375000D02*
X503900D01*
X502500Y373600D02*
Y376400D01*
X493600Y360000D02*
X496400D01*
X495000Y358600D02*
Y361400D01*
X501100Y345000D02*
X503900D01*
X502500Y343600D02*
Y346400D01*
X493600Y330000D02*
X496400D01*
X495000Y328600D02*
Y331400D01*
X501100Y315000D02*
X503900D01*
X502500Y313600D02*
Y316400D01*
X493600Y300000D02*
X496400D01*
X495000Y298600D02*
Y301400D01*
X501100Y285000D02*
X503900D01*
X502500Y283600D02*
Y286400D01*
X493600Y270000D02*
X496400D01*
X495000Y268600D02*
Y271400D01*
X501100Y255000D02*
X503900D01*
X502500Y253600D02*
Y256400D01*
X493600Y240000D02*
X496400D01*
X495000Y238600D02*
Y241400D01*
X501100Y225000D02*
X503900D01*
X502500Y223600D02*
Y226400D01*
X493600Y210000D02*
X496400D01*
X495000Y208600D02*
Y211400D01*
X501100Y195000D02*
X503900D01*
X502500Y193600D02*
Y196400D01*
X493600Y180000D02*
X496400D01*
X495000Y178600D02*
Y181400D01*
X478600Y390000D02*
X481400D01*
X480000Y388600D02*
Y391400D01*
X486100Y375000D02*
X488900D01*
X487500Y373600D02*
Y376400D01*
X478600Y360000D02*
X481400D01*
X480000Y358600D02*
Y361400D01*
X486100Y345000D02*
X488900D01*
X487500Y343600D02*
Y346400D01*
X478600Y330000D02*
X481400D01*
X480000Y328600D02*
Y331400D01*
X486100Y315000D02*
X488900D01*
X487500Y313600D02*
Y316400D01*
X478600Y300000D02*
X481400D01*
X480000Y298600D02*
Y301400D01*
X486100Y285000D02*
X488900D01*
X487500Y283600D02*
Y286400D01*
X478600Y270000D02*
X481400D01*
X480000Y268600D02*
Y271400D01*
X486100Y255000D02*
X488900D01*
X487500Y253600D02*
Y256400D01*
X478600Y240000D02*
X481400D01*
X480000Y238600D02*
Y241400D01*
X486100Y225000D02*
X488900D01*
X487500Y223600D02*
Y226400D01*
X478600Y210000D02*
X481400D01*
X480000Y208600D02*
Y211400D01*
X486100Y195000D02*
X488900D01*
X487500Y193600D02*
Y196400D01*
X478600Y180000D02*
X481400D01*
X480000Y178600D02*
Y181400D01*
X471100Y405000D02*
X473900D01*
X472500Y403600D02*
Y406400D01*
X463600Y390000D02*
X466400D01*
X465000Y388600D02*
Y391400D01*
X471100Y375000D02*
X473900D01*
X472500Y373600D02*
Y376400D01*
X463600Y360000D02*
X466400D01*
X465000Y358600D02*
Y361400D01*
X471100Y345000D02*
X473900D01*
X472500Y343600D02*
Y346400D01*
X463600Y330000D02*
X466400D01*
X465000Y328600D02*
Y331400D01*
X471100Y315000D02*
X473900D01*
X472500Y313600D02*
Y316400D01*
X463600Y300000D02*
X466400D01*
X465000Y298600D02*
Y301400D01*
X471100Y285000D02*
X473900D01*
X472500Y283600D02*
Y286400D01*
X463600Y270000D02*
X466400D01*
X465000Y268600D02*
Y271400D01*
X471100Y255000D02*
X473900D01*
X472500Y253600D02*
Y256400D01*
X463600Y240000D02*
X466400D01*
X465000Y238600D02*
Y241400D01*
X471100Y225000D02*
X473900D01*
X472500Y223600D02*
Y226400D01*
X463600Y210000D02*
X466400D01*
X465000Y208600D02*
Y211400D01*
X471100Y195000D02*
X473900D01*
X472500Y193600D02*
Y196400D01*
X463600Y180000D02*
X466400D01*
X465000Y178600D02*
Y181400D01*
X456100Y405000D02*
X458900D01*
X457500Y403600D02*
Y406400D01*
X448600Y390000D02*
X451400D01*
X450000Y388600D02*
Y391400D01*
X456100Y375000D02*
X458900D01*
X457500Y373600D02*
Y376400D01*
X448600Y360000D02*
X451400D01*
X450000Y358600D02*
Y361400D01*
X456100Y345000D02*
X458900D01*
X457500Y343600D02*
Y346400D01*
X448600Y330000D02*
X451400D01*
X450000Y328600D02*
Y331400D01*
X456100Y315000D02*
X458900D01*
X457500Y313600D02*
Y316400D01*
X448600Y300000D02*
X451400D01*
X450000Y298600D02*
Y301400D01*
X456100Y285000D02*
X458900D01*
X457500Y283600D02*
Y286400D01*
X448600Y270000D02*
X451400D01*
X450000Y268600D02*
Y271400D01*
X456100Y255000D02*
X458900D01*
X457500Y253600D02*
Y256400D01*
X448600Y240000D02*
X451400D01*
X450000Y238600D02*
Y241400D01*
X456100Y225000D02*
X458900D01*
X457500Y223600D02*
Y226400D01*
X456100Y195000D02*
X458900D01*
X457500Y193600D02*
Y196400D01*
X441100Y405000D02*
X443900D01*
X442500Y403600D02*
Y406400D01*
X433600Y390000D02*
X436400D01*
X435000Y388600D02*
Y391400D01*
X441100Y375000D02*
X443900D01*
X442500Y373600D02*
Y376400D01*
X433600Y360000D02*
X436400D01*
X435000Y358600D02*
Y361400D01*
X441100Y345000D02*
X443900D01*
X442500Y343600D02*
Y346400D01*
X433600Y330000D02*
X436400D01*
X435000Y328600D02*
Y331400D01*
X441100Y315000D02*
X443900D01*
X442500Y313600D02*
Y316400D01*
X441100Y285000D02*
X443900D01*
X442500Y283600D02*
Y286400D01*
X426100Y405000D02*
X428900D01*
X427500Y403600D02*
Y406400D01*
X418600Y390000D02*
X421400D01*
X420000Y388600D02*
Y391400D01*
X426100Y375000D02*
X428900D01*
X427500Y373600D02*
Y376400D01*
X426100Y345000D02*
X428900D01*
X427500Y343600D02*
Y346400D01*
X235600Y129000D02*
X238400D01*
X237000Y127600D02*
Y130400D01*
X229100Y129000D02*
X231900D01*
X230500Y127600D02*
Y130400D01*
X233100Y137000D02*
X235900D01*
X234500Y135600D02*
Y138400D01*
X242600Y145500D02*
X245400D01*
X244000Y144100D02*
Y146900D01*
X235100Y145500D02*
X237900D01*
X236500Y144100D02*
Y146900D01*
X198100Y423000D02*
X200900D01*
X199500Y421600D02*
Y424400D01*
X254100Y423000D02*
X256900D01*
X255500Y421600D02*
Y424400D01*
X308100Y424500D02*
X310900D01*
X309500Y423100D02*
Y425900D01*
X175600Y411500D02*
X178400D01*
X177000Y410100D02*
Y412900D01*
X176100Y388000D02*
X178900D01*
X177500Y386600D02*
Y389400D01*
X333600Y386500D02*
X336400D01*
X335000Y385100D02*
Y387900D01*
X324600Y386500D02*
X327400D01*
X326000Y385100D02*
Y387900D01*
X315600Y386500D02*
X318400D01*
X317000Y385100D02*
Y387900D01*
X306100Y386000D02*
X308900D01*
X307500Y384600D02*
Y387400D01*
X285100Y386500D02*
X287900D01*
X286500Y385100D02*
Y387900D01*
X261600Y386000D02*
X264400D01*
X263000Y384600D02*
Y387400D01*
X251600Y386500D02*
X254400D01*
X253000Y385100D02*
Y387900D01*
X230100Y387000D02*
X232900D01*
X231500Y385600D02*
Y388400D01*
X220100Y386500D02*
X222900D01*
X221500Y385100D02*
Y387900D01*
X210600Y387000D02*
X213400D01*
X212000Y385600D02*
Y388400D01*
X200600Y387000D02*
X203400D01*
X202000Y385600D02*
Y388400D01*
X198600Y224000D02*
X201400D01*
X200000Y222600D02*
Y225400D01*
X206600Y230000D02*
X209400D01*
X208000Y228600D02*
Y231400D01*
X199600Y240500D02*
X202400D01*
X201000Y239100D02*
Y241900D01*
X212600Y250500D02*
X215400D01*
X214000Y249100D02*
Y251900D01*
X198600Y251500D02*
X201400D01*
X200000Y250100D02*
Y252900D01*
X198100Y263500D02*
X200900D01*
X199500Y262100D02*
Y264900D01*
X187100Y265000D02*
X189900D01*
X188500Y263600D02*
Y266400D01*
X175600Y264500D02*
X178400D01*
X177000Y263100D02*
Y265900D01*
X197100Y276500D02*
X199900D01*
X198500Y275100D02*
Y277900D01*
X187100Y276500D02*
X189900D01*
X188500Y275100D02*
Y277900D01*
X175100Y276500D02*
X177900D01*
X176500Y275100D02*
Y277900D01*
X196100Y287000D02*
X198900D01*
X197500Y285600D02*
Y288400D01*
X185100Y287000D02*
X187900D01*
X186500Y285600D02*
Y288400D01*
X175600Y287000D02*
X178400D01*
X177000Y285600D02*
Y288400D01*
X183100Y224000D02*
X185900D01*
X184500Y222600D02*
Y225400D01*
X173100Y224500D02*
X175900D01*
X174500Y223100D02*
Y225900D01*
X183100Y235500D02*
X185900D01*
X184500Y234100D02*
Y236900D01*
X172600Y235500D02*
X175400D01*
X174000Y234100D02*
Y236900D01*
X230600Y223000D02*
X233400D01*
X232000Y221600D02*
Y224400D01*
X218600Y223000D02*
X221400D01*
X220000Y221600D02*
Y224400D01*
X229600Y233000D02*
X232400D01*
X231000Y231600D02*
Y234400D01*
X218600Y233000D02*
X221400D01*
X220000Y231600D02*
Y234400D01*
X258600Y190000D02*
X261400D01*
X260000Y188600D02*
Y191400D01*
X258600Y170000D02*
X261400D01*
X260000Y168600D02*
Y171400D01*
X253600Y200000D02*
X256400D01*
X255000Y198600D02*
Y201400D01*
X248600Y190000D02*
X251400D01*
X250000Y188600D02*
Y191400D01*
X243600Y200000D02*
X246400D01*
X245000Y198600D02*
Y201400D01*
X238600Y190000D02*
X241400D01*
X240000Y188600D02*
Y191400D01*
X228600Y210000D02*
X231400D01*
X230000Y208600D02*
Y211400D01*
X233600Y200000D02*
X236400D01*
X235000Y198600D02*
Y201400D01*
X228600Y190000D02*
X231400D01*
X230000Y188600D02*
Y191400D01*
X218600Y210000D02*
X221400D01*
X220000Y208600D02*
Y211400D01*
X223600Y200000D02*
X226400D01*
X225000Y198600D02*
Y201400D01*
X218600Y190000D02*
X221400D01*
X220000Y188600D02*
Y191400D01*
X317400Y166500D02*
X320600D01*
X319000Y164900D02*
Y168100D01*
X224100Y414000D02*
X226900D01*
X225500Y412600D02*
Y415400D01*
X280100Y414500D02*
X282900D01*
X281500Y413100D02*
Y415900D01*
X304100Y431500D02*
X306900D01*
X305500Y430100D02*
Y432900D01*
X483500Y453500D02*
X484500D01*
X484000Y453000D02*
Y454000D01*
X523500Y142500D02*
X524500D01*
X524000Y142000D02*
Y143000D01*
X484000Y147000D02*
X485000D01*
X484500Y146500D02*
Y147500D01*
X367600Y146000D02*
X370400D01*
X369000Y144600D02*
Y147400D01*
X310100Y338000D02*
X312900D01*
X311500Y336600D02*
Y339400D01*
X303100Y333500D02*
X305900D01*
X304500Y332100D02*
Y334900D01*
X302100Y342000D02*
X304900D01*
X303500Y340600D02*
Y343400D01*
X293600Y342000D02*
X296400D01*
X295000Y340600D02*
Y343400D01*
X227100Y439000D02*
X229900D01*
X228500Y437600D02*
Y440400D01*
X282100Y434500D02*
X284900D01*
X283500Y433100D02*
Y435900D01*
X253600Y334000D02*
X256400D01*
X255000Y332600D02*
Y335400D01*
X243600Y334000D02*
X246400D01*
X245000Y332600D02*
Y335400D01*
X231600Y334500D02*
X234400D01*
X233000Y333100D02*
Y335900D01*
X254100Y342000D02*
X256900D01*
X255500Y340600D02*
Y343400D01*
X243100Y342500D02*
X245900D01*
X244500Y341100D02*
Y343900D01*
X232100Y342500D02*
X234900D01*
X233500Y341100D02*
Y343900D01*
X176100Y319000D02*
X178900D01*
X177500Y317600D02*
Y320400D01*
X185100Y320000D02*
X187900D01*
X186500Y318600D02*
Y321400D01*
X195600Y320000D02*
X198400D01*
X197000Y318600D02*
Y321400D01*
X195600Y339000D02*
X198400D01*
X197000Y337600D02*
Y340400D01*
X195100Y329500D02*
X197900D01*
X196500Y328100D02*
Y330900D01*
X185100Y329500D02*
X187900D01*
X186500Y328100D02*
Y330900D01*
X176100Y329500D02*
X178900D01*
X177500Y328100D02*
Y330900D01*
X185100Y339000D02*
X187900D01*
X186500Y337600D02*
Y340400D01*
X176100Y339000D02*
X178900D01*
X177500Y337600D02*
Y340400D01*
X178600Y210000D02*
X181400D01*
X180000Y208600D02*
Y211400D01*
X183600Y200000D02*
X186400D01*
X185000Y198600D02*
Y201400D01*
X178600Y190000D02*
X181400D01*
X180000Y188600D02*
Y191400D01*
X183600Y180000D02*
X186400D01*
X185000Y178600D02*
Y181400D01*
X178600Y170000D02*
X181400D01*
X180000Y168600D02*
Y171400D01*
X183600Y140000D02*
X186400D01*
X185000Y138600D02*
Y141400D01*
X178600Y130000D02*
X181400D01*
X180000Y128600D02*
Y131400D01*
X168600Y210000D02*
X171400D01*
X170000Y208600D02*
Y211400D01*
X173600Y200000D02*
X176400D01*
X175000Y198600D02*
Y201400D01*
X168600Y190000D02*
X171400D01*
X170000Y188600D02*
Y191400D01*
X173600Y180000D02*
X176400D01*
X175000Y178600D02*
Y181400D01*
X168600Y170000D02*
X171400D01*
X170000Y168600D02*
Y171400D01*
X168600Y150000D02*
X171400D01*
X170000Y148600D02*
Y151400D01*
X173600Y140000D02*
X176400D01*
X175000Y138600D02*
Y141400D01*
X168600Y130000D02*
X171400D01*
X170000Y128600D02*
Y131400D01*
X168600Y110000D02*
X171400D01*
X170000Y108600D02*
Y111400D01*
X269250Y328000D02*
X272750D01*
X271000Y326250D02*
Y329750D01*
X294900Y163000D02*
X298100D01*
X296500Y161400D02*
Y164600D01*
X293340Y177760D02*
X296140D01*
X294740Y176360D02*
Y179160D01*
X300400Y173000D02*
X303600D01*
X302000Y171400D02*
Y174600D01*
X305400Y167000D02*
X308600D01*
X307000Y165400D02*
Y168600D01*
X304400Y161579D02*
X307600D01*
X306000Y159979D02*
Y163179D01*
X316400Y183000D02*
X319600D01*
X318000Y181400D02*
Y184600D01*
X316900Y191000D02*
X320100D01*
X318500Y189400D02*
Y192600D01*
X271250Y277000D02*
X274750D01*
X273000Y275250D02*
Y278750D01*
X215250Y329500D02*
X218750D01*
X217000Y327750D02*
Y331250D01*
X326000Y330506D02*
X329500D01*
X327750Y328756D02*
Y332256D01*
X323250Y275500D02*
X326750D01*
X325000Y273750D02*
Y277250D01*
X216750Y277000D02*
X220250D01*
X218500Y275250D02*
Y278750D01*
X316030Y174043D02*
X319230D01*
X317630Y172443D02*
Y175643D01*
X367100Y204500D02*
X369900D01*
X368500Y203100D02*
Y205900D01*
X373750Y202000D02*
X377250D01*
X375500Y200250D02*
Y203750D01*
M02*
