G04*
G04 #@! TF.GenerationSoftware,Altium Limited,Altium Designer,20.0.2 (26)*
G04*
G04 Layer_Color=16711935*
%FSLAX25Y25*%
%MOIN*%
G70*
G01*
G75*
%ADD54R,0.07099X0.07099*%
%ADD55C,0.07099*%
%ADD56R,0.07493X0.07493*%
%ADD57C,0.07493*%
%ADD58C,0.08280*%
%ADD59R,0.08280X0.08280*%
%ADD60O,0.10642X0.14580*%
%ADD61R,0.07493X0.07493*%
G04:AMPARAMS|DCode=62|XSize=86.74mil|YSize=126.11mil|CornerRadius=23.68mil|HoleSize=0mil|Usage=FLASHONLY|Rotation=180.000|XOffset=0mil|YOffset=0mil|HoleType=Round|Shape=RoundedRectangle|*
%AMROUNDEDRECTD62*
21,1,0.08674,0.07874,0,0,180.0*
21,1,0.03937,0.12611,0,0,180.0*
1,1,0.04737,-0.01968,0.03937*
1,1,0.04737,0.01968,0.03937*
1,1,0.04737,0.01968,-0.03937*
1,1,0.04737,-0.01968,-0.03937*
%
%ADD62ROUNDEDRECTD62*%
D54*
X384000Y447500D02*
D03*
X533600D02*
D03*
X384000Y247500D02*
D03*
X533600D02*
D03*
D55*
X394000Y447500D02*
D03*
X384000Y437500D02*
D03*
X394000D02*
D03*
X384000Y427500D02*
D03*
X394000D02*
D03*
X384000Y417500D02*
D03*
X394000D02*
D03*
X384000Y407500D02*
D03*
X394000D02*
D03*
X384000Y397500D02*
D03*
X394000D02*
D03*
X384000Y387500D02*
D03*
X394000D02*
D03*
X384000Y377500D02*
D03*
X394000D02*
D03*
X384000Y367500D02*
D03*
X394000D02*
D03*
X384000Y357500D02*
D03*
X394000D02*
D03*
X384000Y347500D02*
D03*
X394000D02*
D03*
X384000Y337500D02*
D03*
X394000D02*
D03*
X384000Y327500D02*
D03*
X394000D02*
D03*
X384000Y317500D02*
D03*
X394000D02*
D03*
X384000Y307500D02*
D03*
X394000D02*
D03*
X384000Y297500D02*
D03*
X394000D02*
D03*
X384000Y287500D02*
D03*
X394000D02*
D03*
X384000Y277500D02*
D03*
X394000D02*
D03*
X384000Y267500D02*
D03*
X394000D02*
D03*
X384000Y257500D02*
D03*
X394000D02*
D03*
X543600Y447500D02*
D03*
X533600Y437500D02*
D03*
X543600D02*
D03*
X533600Y427500D02*
D03*
X543600D02*
D03*
X533600Y417500D02*
D03*
X543600D02*
D03*
X533600Y407500D02*
D03*
X543600D02*
D03*
X533600Y397500D02*
D03*
X543600D02*
D03*
X533600Y387500D02*
D03*
X543600D02*
D03*
X533600Y377500D02*
D03*
X543600D02*
D03*
X533600Y367500D02*
D03*
X543600D02*
D03*
X533600Y357500D02*
D03*
X543600D02*
D03*
X533600Y347500D02*
D03*
X543600D02*
D03*
X533600Y337500D02*
D03*
X543600D02*
D03*
X533600Y327500D02*
D03*
X543600D02*
D03*
X533600Y317500D02*
D03*
X543600D02*
D03*
X533600Y307500D02*
D03*
X543600D02*
D03*
X533600Y297500D02*
D03*
X543600D02*
D03*
X533600Y287500D02*
D03*
X543600D02*
D03*
X533600Y277500D02*
D03*
X543600D02*
D03*
X533600Y267500D02*
D03*
X543600D02*
D03*
X533600Y257500D02*
D03*
X543600D02*
D03*
X394000Y137500D02*
D03*
X384000D02*
D03*
X394000Y147500D02*
D03*
X384000D02*
D03*
X394000Y157500D02*
D03*
X384000D02*
D03*
X394000Y167500D02*
D03*
X384000D02*
D03*
X394000Y177500D02*
D03*
X384000D02*
D03*
X394000Y187500D02*
D03*
X384000D02*
D03*
X394000Y197500D02*
D03*
X384000D02*
D03*
X394000Y207500D02*
D03*
X384000D02*
D03*
X394000Y217500D02*
D03*
X384000D02*
D03*
X394000Y227500D02*
D03*
X384000D02*
D03*
X394000Y237500D02*
D03*
X384000D02*
D03*
X394000Y247500D02*
D03*
X543600Y137500D02*
D03*
X533600D02*
D03*
X543600Y147500D02*
D03*
X533600D02*
D03*
X543600Y157500D02*
D03*
X533600D02*
D03*
X543600Y167500D02*
D03*
X533600D02*
D03*
X543600Y177500D02*
D03*
X533600D02*
D03*
X543600Y187500D02*
D03*
X533600D02*
D03*
X543600Y197500D02*
D03*
X533600D02*
D03*
X543600Y207500D02*
D03*
X533600D02*
D03*
X543600Y217500D02*
D03*
X533600D02*
D03*
X543600Y227500D02*
D03*
X533600D02*
D03*
X543600Y237500D02*
D03*
X533600D02*
D03*
X543600Y247500D02*
D03*
D56*
X445500Y468000D02*
D03*
X350335Y104532D02*
D03*
X277500D02*
D03*
X517000Y461500D02*
D03*
X350335Y146500D02*
D03*
X277500D02*
D03*
X468500Y462000D02*
D03*
D57*
X435500Y468000D02*
D03*
X425500D02*
D03*
X415500D02*
D03*
X350335Y114532D02*
D03*
X277500D02*
D03*
X517000Y471500D02*
D03*
X350335Y156500D02*
D03*
X277500D02*
D03*
X385000Y114500D02*
D03*
X395000D02*
D03*
X445000D02*
D03*
X435000D02*
D03*
X425000D02*
D03*
X415000D02*
D03*
X405000D02*
D03*
X468500Y472000D02*
D03*
D58*
X536386Y121358D02*
D03*
Y103642D02*
D03*
X509614D02*
D03*
X494886Y121358D02*
D03*
Y103642D02*
D03*
X468114D02*
D03*
D59*
X509614Y121358D02*
D03*
X468114D02*
D03*
D60*
X201500Y116000D02*
D03*
X181500D02*
D03*
X251000Y116500D02*
D03*
X231000D02*
D03*
X255500Y462500D02*
D03*
X275500D02*
D03*
X235500D02*
D03*
D61*
X455000Y114500D02*
D03*
D62*
X243000Y155000D02*
D03*
X261898D02*
D03*
X224102D02*
D03*
M02*
