M48
;Layer_Color=9474304
;FILE_FORMAT=2:5
INCH,LZ
;TYPE=PLATED
T1F00S00C0.01000
T2F00S00C0.02800
T3F00S00C0.03200
T4F00S00C0.03500
T5F00S00C0.03543
T6F00S00C0.03937
T8F00S00C0.04724
%
T01
X04845Y0147
X0524Y01425
X0484Y04535
T02
X017Y011
Y013
X018
X0185Y014
X0175
X017Y015
X02365Y01455
X0244
X02345Y0137
X0237Y0129
X02305
X0369Y0146
X048Y018
X0495
X051
X05175Y0195
X05025
X04875
X04725
X048Y021
X0495
X051
X05175Y0225
X05025
X04875
X04725
X048Y024
X0495
X051
X05175Y0255
X05025
X04875
X04725
X048Y027
X0495
X05025Y0285
X04875
X04725
X048Y03
X0495
X0465
X045
X04575Y0285
X04425
X045Y027
X0465
X04575Y0255
X0465Y024
X045
X04575Y0225
X0465Y021
X04575Y0195
X0465Y018
X03685Y02045
X0345Y03
X0269Y0233
X02675Y0225
X0249
X02485Y02325
X02565Y0233
X0231
X0232Y0223
X022
Y0233
X0208Y023
X02Y0224
X01845
X01745Y02245
X0174Y02355
X01845
X0201Y02405
X02Y02515
X01995Y02635
X01885Y0265
Y02765
X01985
X01975Y0287
X01865
X0177
X01765Y02765
X0177Y02645
X0214Y02505
X022Y021
X023
X0235Y02
X0245
X0255
X026Y019
X025
X024
X023
X022
X0225Y02
X0185
X0175
X018Y021
X017
Y019
X018
X0185Y018
X0175
X018Y017
X017
X026
X029474Y017776
X0295Y0342
X03035
X03045Y03335
X03115Y0338
X03075Y0386
X02865Y03865
X0263Y0386
X0253Y03865
X0262Y03735
X02555Y0342
X0255Y0334
X0245
X02445Y03425
X02335
X0233Y03345
X0197Y0339
X01965Y03295
X0197Y032
X01865
Y03295
X01775
Y0339
X01865
X01775Y0319
Y0388
X0177Y04115
X01995Y0423
X02255Y0414
X02285Y0439
X021Y045
X02025Y0465
X01875
X018Y045
X0202Y0387
X0212
X02215Y03865
X02315Y0387
X0213Y03725
X02555Y0423
X02815Y04145
X02835Y04345
X03055Y04315
X03095Y04245
X0315Y045
X033
X0326Y03865
X0335
X0317
X0345Y036
X03525Y0345
X0345Y033
X03525Y0315
X04425
X04575
X0465Y033
X045
X0435
X04425Y0345
X04575
X0465Y036
X045
X0435
X04425Y0375
X04575
X0465Y039
X045
X0435
X042
X04275Y0405
X04425
X04575
X04275Y0375
Y0345
X04725
X04875
X05025
X0495Y036
X048
X04875Y0375
X05025
X0495Y039
X048
X04725Y0405
Y0375
X048Y033
X0495
X05025Y0315
X04875
X04725
T03
X0319Y01665
X031763Y0174043
X0318Y0183
X03185Y0191
X0302Y0173
X0307Y0167
X0306Y0161579
X02965Y0163
T04
X03755Y0202
X0325Y02755
X0273Y0277
X02185
X0217Y03295
X0271Y0328
X032775Y0330506
T05
X02775Y0104532
Y0114532
Y01465
X0350335
Y0114532
Y0104532
X0385Y01145
X0395
X0405
X0415
X0425
X0435
X0445
X0455
X0394Y01375
X0384
Y01475
X0394
X05336
Y01375
X05436
Y01475
Y01575
X05336
Y01675
X05436
Y01775
X05336
Y01875
X05436
Y01975
X05336
Y02075
X05436
Y02175
X05336
Y02275
X05436
Y02375
X05336
Y02475
Y02575
Y02675
Y02775
Y02875
Y02975
Y03075
X05436
Y02975
Y02875
Y02775
Y02675
Y02575
Y02475
X0394
Y02575
Y02675
Y02775
Y02875
Y02975
Y03075
X0384
Y02975
Y02875
Y02775
Y02675
Y02575
Y02475
Y02375
Y02275
Y02175
Y02075
Y01975
Y01875
Y01775
Y01675
Y01575
X0394
Y01675
Y01775
Y01875
Y01975
Y02075
Y02175
Y02275
Y02375
X0350335Y01565
X02775
X0384Y03175
Y03275
Y03375
Y03475
Y03575
Y03675
Y03775
Y03875
Y03975
Y04075
Y04175
Y04275
Y04375
Y04475
X0394
Y04375
Y04275
Y04175
Y04075
Y03975
Y03875
Y03775
Y03675
Y03575
Y03475
Y03375
Y03275
Y03175
X04155Y0468
X04255
X04355
X04455
X04685Y0462
X0517Y04615
X05336Y04475
X05436
Y04375
X05336
Y04275
X05436
Y04175
X05336
Y04075
X05436
Y03975
X05336
Y03875
X05436
Y03775
X05336
Y03675
X05436
Y03575
X05336
Y03475
X05436
Y03375
X05336
Y03275
X05436
Y03175
X05336
X0517Y04715
X04685Y0472
T06
X0468114Y0103642
Y0121358
X0494886
X0509614
Y0103642
X0494886
X0536386
Y0121358
T08
X01815Y0116
X02015
X0231Y01165
X0251
X02555Y04625
X02755
X02355
M30
